SplineFontDB: 3.2
FontName: SeriousShannsLightItalic
FullName: Serious Shanns Light Italic
FamilyName: Serious Shanns Light Italic
Weight: Light
Copyright: https://github.com/kaBeech/serious-sans/blob/main/LICENSE
Version: 6.0.0
ItalicAngle: -11.8
UnderlinePosition: 0
UnderlineWidth: 0
Ascent: 800
Descent: 200
InvalidEm: 0
sfntRevision: 0x00001999
LayerCount: 2
Layer: 0 0 "Back" 1
Layer: 1 0 "Fore" 0
XUID: [1021 329 -1817886000 6804199]
StyleMap: 0x0040
FSType: 4
OS2Version: 3
OS2_WeightWidthSlopeOnly: 0
OS2_UseTypoMetrics: 0
CreationTime: 1532631502
ModificationTime: 315532800
PfmFamily: 81
TTFWeight: 300
TTFWidth: 5
LineGap: 0
VLineGap: 0
Panose: 0 0 0 0 0 0 0 0 0 0
OS2TypoAscent: 613
OS2TypoAOffset: 0
OS2TypoDescent: -188
OS2TypoDOffset: 0
OS2TypoLinegap: 98
OS2WinAscent: 778
OS2WinAOffset: 0
OS2WinDescent: 308
OS2WinDOffset: 0
HheadAscent: 796
HheadAOffset: 0
HheadDescent: -317
HheadDOffset: 0
OS2SubXSize: 317
OS2SubYSize: 293
OS2SubXOff: 0
OS2SubYOff: 37
OS2SupXSize: 317
OS2SupYSize: 293
OS2SupXOff: 0
OS2SupYOff: 171
OS2StrikeYSize: 0
OS2StrikeYPos: 132
OS2CapHeight: 576
OS2XHeight: 485
OS2Vendor: 'NONE'
OS2CodePages: 00000001.00000000
OS2UnicodeRanges: 00000001.00000000.00000000.00000000
MarkAttachClasses: 1
DEI: 91125
LangName: 1033 "" "" "Normal" "FontForge 2.0 : Serious Shanns Light Italic : 11-6-2024" "" "Version 0.1.2"
Encoding: UnicodeBmp
Compacted: 1
UnicodeInterp: none
NameList: AGL For New Fonts
DisplaySize: -48
AntiAlias: 1
FitToEm: 0
WinInfo: 64 16 4
BeginPrivate: 8
BlueValues 32 [-39 -6 490 521 685 718 765 769]
OtherBlues 11 [-304 -292]
BlueScale 9 0.0291667
BlueShift 1 3
StdHW 4 [67]
StdVW 4 [65]
StemSnapH 23 [61 62 63 65 67 94 130]
StemSnapV 14 [40 58 65 125]
EndPrivate
BeginChars: 65537 122

StartChar: .notdef
Encoding: 65536 -1 0
Width: 600
GlyphClass: 1
Flags: HMW
HStem: 688 20G<246 569 246 246>
LayerCount: 2
Fore
SplineSet
228 737 m 1
 601 737 l 1
 372 -255 l 1
 -1 -255 l 1
 228 737 l 1
569 708 m 1
 246 708 l 1
 30 -226 l 1
 354 -226 l 1
 569 708 l 1
EndSplineSet
Validated: 1
EndChar

StartChar: exclam
Encoding: 33 33 11
Width: 600
GlyphClass: 2
Flags: HMW
HStem: -13 130<199.5 262.5>
VStem: 166 131<27.5 80.5>
LayerCount: 2
Fore
SplineSet
317 274 m 0
 313 262 307 253 298 247 c 0
 289 241 281 237 272 237 c 2
 269 237 l 2
 260 237 254 240 251 245 c 0
 249 247 248 250 248 254 c 0
 248 258 249 264 251 272 c 0
 254 281 257 290 261 300 c 0
 265 310 268 318 270 325 c 0
 272 332 275 347 281 371 c 0
 287 395 293 423 299 454 c 0
 305 485 311 515 318 544 c 0
 325 573 330 593 332 603 c 0
 334 613 340 634 349 668 c 0
 358 702 363 724 365 732 c 0
 369 747 376 759 384 766 c 0
 392 773 402 777 412 777 c 2
 415 777 l 2
 423 777 429 775 432 771 c 0
 434 769 435 764 435 759 c 0
 435 754 433 748 432 742 c 0
 431 736 419 691 398 609 c 0
 377 527 361 462 350 411 c 0
 339 360 332 330 329 320 c 0
 326 310 321 295 317 274 c 0
297 75 m 0
 297 70 296 64 295 57 c 0
 291 39 283 24 268 11 c 0
 253 -2 235 -10 214 -12 c 0
 212 -12 209 -13 207 -13 c 0
 192 -13 181 -7 174 3 c 0
 168 12 166 22 166 33 c 0
 166 38 167 44 168 51 c 0
 173 68 182 83 199 96 c 0
 218 110 236 117 255 117 c 0
 270 117 283 112 290 102 c 0
 295 95 297 86 297 75 c 0
EndSplineSet
Validated: 1
EndChar

StartChar: quotedbl
Encoding: 34 34 12
Width: 600
GlyphClass: 2
Flags: HMW
HStem: 448 323<179.5 268 184 268 262 333 262 334>
LayerCount: 2
Fore
SplineSet
268 771 m 2
 276 771 283 769 289 765 c 0
 290 763 292 760 293 756 c 0
 294 752 294 748 293 741 c 0
 287 714 276 669 260 607 c 0
 244 545 233 502 225 479 c 0
 221 468 215 461 207 456 c 0
 199 451 192 448 185 448 c 2
 184 448 l 2
 175 448 167 452 161 457 c 0
 159 459 157 462 157 466 c 0
 157 470 158 474 159 478 c 0
 170 512 181 556 192 609 c 0
 203 662 212 706 219 741 c 0
 220 748 223 753 226 757 c 0
 229 762 233 765 237 766 c 0
 246 769 255 771 262 771 c 2
 268 771 l 2
410 607 m 0
 395 545 383 502 375 479 c 0
 371 468 365 461 357 456 c 0
 349 451 341 448 334 448 c 2
 333 448 l 2
 324 448 316 452 310 457 c 0
 308 459 307 463 307 466 c 0
 307 469 308 473 309 478 c 0
 319 512 330 556 341 609 c 0
 352 662 361 706 368 741 c 0
 369 748 372 753 376 757 c 0
 380 761 383 765 387 766 c 0
 396 769 404 771 411 771 c 2
 417 771 l 2
 422 771 426 771 429 770 c 0
 432 769 436 767 439 765 c 0
 442 763 443 758 443 751 c 0
 443 743 432 695 410 607 c 0
EndSplineSet
Validated: 1
EndChar

StartChar: numbersign
Encoding: 35 35 13
Width: 600
GlyphClass: 2
Flags: HMW
HStem: 205 57<402 440 379 459> 457 60<303 413 279 437 303 521 303 478>
LayerCount: 2
Fore
SplineSet
183 203 m 1
 174 203 l 1
 142 126 120 74 108 47 c 0
 101 36 92 26 79 18 c 0
 70 13 62 10 56 10 c 0
 54 10 50 11 48 12 c 0
 44 12 42 14 41 16 c 0
 39 20 37 26 37 34 c 0
 37 44 39 55 45 67 c 0
 54 86 76 131 107 202 c 1
 60 202 l 2
 48 202 40 204 36 208 c 0
 34 210 31 214 31 217 c 0
 31 218 32 221 32 223 c 0
 34 232 39 241 46 247 c 0
 53 253 65 257 78 257 c 0
 83 257 90 258 100 258 c 0
 110 258 119 260 130 260 c 1
 212 456 l 1
 193 456 l 1
 155 455 l 1
 151 455 l 2
 141 455 134 457 131 461 c 0
 129 464 128 468 128 473 c 2
 128 480 l 2
 129 489 134 497 142 503 c 0
 150 509 160 514 173 514 c 2
 174 514 l 2
 186 514 205 515 229 515 c 2
 236 515 l 1
 302 677 l 2
 309 692 319 702 328 707 c 0
 335 710 340 712 345 712 c 0
 347 712 352 711 354 711 c 0
 363 709 369 705 371 698 c 0
 372 696 373 692 373 689 c 0
 373 683 370 675 366 666 c 2
 303 517 l 1
 437 517 l 1
 498 670 l 2
 505 685 513 695 523 700 c 0
 529 703 535 705 541 705 c 0
 543 705 546 704 549 704 c 0
 558 702 565 698 567 691 c 0
 567 689 568 686 568 684 c 0
 568 677 567 669 562 659 c 0
 549 633 529 586 503 519 c 1
 522 519 l 1
 532 519 l 2
 543 519 553 515 558 509 c 0
 563 504 565 500 565 495 c 0
 565 494 564 492 564 491 c 0
 562 482 556 473 549 467 c 0
 542 461 533 457 521 457 c 2
 478 457 l 1
 402 262 l 1
 459 262 l 2
 469 262 475 260 476 258 c 0
 478 254 479 248 478 239 c 0
 476 228 470 219 465 214 c 0
 459 208 451 205 440 205 c 2
 379 205 l 1
 348 124 327 70 315 43 c 0
 308 31 298 22 286 16 c 0
 278 12 271 10 265 10 c 0
 263 10 258 11 255 12 c 0
 249 13 246 18 245 25 c 0
 245 28 244 32 244 34 c 0
 244 43 247 52 252 63 c 0
 265 90 285 137 312 204 c 1
 293 204 l 1
 183 203 l 1
413 457 m 1
 279 457 l 1
 197 261 l 1
 235 262 279 263 327 263 c 2
 335 263 l 1
 360 323 386 387 413 457 c 1
EndSplineSet
Validated: 1
EndChar

StartChar: dollar
Encoding: 36 36 14
Width: 600
GlyphClass: 2
Flags: HMW
HStem: -17 60<181 215 191 215 195 215>
VStem: 160 63 426 69<235 287>
LayerCount: 2
Fore
SplineSet
137 -8 m 0
 120 -2 107 4 96 13 c 0
 75 31 61 52 54 76 c 0
 53 82 52 89 52 95 c 0
 52 101 54 107 56 112 c 0
 60 121 66 127 75 131 c 0
 82 134 88 137 91 137 c 0
 94 137 98 138 99 138 c 2
 104 138 l 2
 105 138 107 135 109 133 c 0
 111 131 115 125 118 118 c 0
 127 96 138 77 153 64 c 0
 168 50 188 43 213 43 c 2
 215 43 l 1
 223 43 l 1
 250 161 273 268 293 365 c 1
 282 366 273 368 267 369 c 0
 261 370 255 371 251 371 c 0
 233 373 218 378 205 387 c 0
 192 396 182 406 175 419 c 0
 165 438 160 458 160 480 c 0
 160 487 161 494 163 503 c 0
 168 526 176 548 187 569 c 0
 197 590 210 610 226 628 c 0
 242 646 262 661 284 674 c 0
 306 687 331 697 358 702 c 2
 365 704 l 1
 370 725 376 747 381 769 c 0
 384 784 389 795 395 803 c 0
 401 811 407 815 416 815 c 2
 418 815 l 2
 425 815 430 814 432 811 c 0
 434 808 435 803 435 797 c 0
 435 791 433 785 432 778 c 2
 418 711 l 1
 431 710 l 2
 444 710 462 706 484 700 c 0
 506 694 522 689 533 684 c 0
 540 681 545 676 547 670 c 0
 547 668 548 664 548 660 c 0
 548 656 546 651 544 644 c 0
 543 639 541 634 537 631 c 0
 533 628 529 626 526 626 c 2
 517 626 l 2
 511 626 505 627 499 629 c 0
 494 630 488 634 481 638 c 0
 474 642 465 646 454 649 c 0
 443 652 429 655 414 655 c 2
 405 656 l 1
 392 596 374 518 353 421 c 1
 365 419 l 2
 389 415 409 408 426 399 c 0
 444 389 457 378 467 366 c 0
 477 354 484 341 488 326 c 0
 492 311 495 295 495 279 c 0
 495 263 493 247 488 227 c 0
 481 198 471 170 455 144 c 0
 439 118 422 96 402 76 c 0
 382 56 361 40 338 26 c 0
 315 12 291 1 266 -6 c 2
 260 -8 l 1
 251 -52 245 -82 243 -96 c 0
 239 -107 233 -117 225 -123 c 0
 217 -129 209 -132 200 -132 c 2
 199 -132 l 2
 197 -132 194 -131 192 -131 c 0
 189 -129 187 -125 187 -118 c 0
 187 -113 188 -106 190 -97 c 0
 195 -81 201 -54 209 -17 c 1
 195 -17 l 1
 191 -17 l 2
 171 -17 154 -14 137 -8 c 0
237 468 m 0
 250 450 269 437 295 429 c 2
 306 426 l 1
 318 480 334 555 354 651 c 1
 336 645 l 2
 308 636 284 623 264 603 c 0
 244 583 231 560 226 533 c 0
 224 526 223 520 223 513 c 0
 223 496 228 481 237 468 c 0
426 241 m 0
 426 253 424 266 419 281 c 0
 415 294 407 306 395 317 c 0
 383 328 368 338 349 346 c 2
 337 352 l 1
 334 338 l 1
 334 338 323 287 302 188 c 0
 290 133 280 88 272 53 c 1
 292 62 l 2
 324 76 352 95 376 120 c 0
 400 145 415 173 422 205 c 0
 424 217 426 229 426 241 c 0
EndSplineSet
Validated: 1
EndChar

StartChar: percent
Encoding: 37 37 15
Width: 600
GlyphClass: 2
Flags: HMW
HStem: -16 52<334.5 370 343 370> 184 49<397.5 398.5> 444 51<202.5 237 211 237> 645 48<266.5 271>
VStem: 146 41<522.5 546.5> 278 41<63.5 86.5> 309 41<589.5 628> 440 35<99 143> 440 45<129.5 169>
LayerCount: 2
Fore
SplineSet
169 461 m 0xfa
 158 472 150 486 148 503 c 0
 147 510 146 518 146 527 c 0
 146 536 147 548 150 561 c 0
 159 600 175 631 198 656 c 0
 221 681 250 693 283 693 c 0
 309 693 328 683 340 664 c 0
 347 653 350 638 350 618 c 0
 350 601 347 581 341 559 c 0
 332 521 316 493 295 473 c 0
 274 453 247 444 212 444 c 2
 211 444 l 2
 194 444 180 450 169 461 c 0xfa
46 12 m 0
 68 44 112 104 177 192 c 2
 372 470 l 2
 438 563 484 629 510 670 c 0
 518 680 527 686 537 688 c 0
 540 688 544 689 546 689 c 0
 551 689 555 687 560 684 c 0
 563 683 565 681 566 680 c 0
 567 679 568 675 568 673 c 0
 568 665 564 654 553 641 c 0
 520 600 444 497 326 330 c 0
 211 163 132 51 90 -9 c 0
 81 -21 73 -29 66 -34 c 0
 61 -37 56 -39 52 -39 c 0
 48 -39 45 -38 42 -36 c 0
 39 -34 35 -31 34 -29 c 0
 33 -27 32 -24 32 -21 c 0
 32 -12 37 -1 46 12 c 0
235 495 m 2
 237 495 l 2
 254 495 268 501 279 514 c 0
 290 527 299 543 305 563 c 0
 307 574 309 585 309 594 c 0
 309 605 308 615 303 623 c 0
 294 638 281 645 261 645 c 0
 244 645 229 638 217 623 c 0
 206 610 197 592 191 570 c 0
 189 560 187 551 187 542 c 0
 187 533 188 526 191 519 c 0
 198 505 213 497 235 495 c 2
301 1 m 0
 290 12 283 26 280 43 c 0
 279 50 278 59 278 68 c 0xfc80
 278 77 280 88 282 101 c 0
 290 140 307 171 330 196 c 0
 353 221 381 233 414 233 c 0
 427 233 439 231 448 226 c 0
 458 221 467 214 474 204 c 0
 481 194 485 179 485 159 c 0
 485 142 482 122 475 100 c 1xfd
 475 99 l 1
 464 61 448 32 427 12 c 0
 406 -7 379 -16 346 -16 c 2
 343 -16 l 2
 326 -16 312 -10 301 1 c 0
367 36 m 2
 370 36 l 2
 386 36 400 42 411 55 c 0
 422 68 431 83 436 103 c 0
 438 114 440 125 440 134 c 0
 440 152 436 165 425 174 c 0
 416 181 405 184 392 184 c 0
 375 184 361 176 349 162 c 0
 337 149 328 131 323 110 c 0
 321 100 319 91 319 82 c 0
 319 73 321 66 324 59 c 0
 331 45 345 37 367 36 c 2
EndSplineSet
Validated: 1
EndChar

StartChar: ampersand
Encoding: 38 38 16
Width: 600
GlyphClass: 2
Flags: HMW
HStem: -29 69 657 55
VStem: 54 71<105.001 142.501> 232 64<541.001 542.001> 399 71<8.00098 34>
LayerCount: 2
Fore
SplineSet
466 5 m 0
 461 -11 454 -20.9990234375 446 -23.9990234375 c 0
 441 -25.9990234375 437 -27.9990234375 433 -27.9990234375 c 0
 428 -27.9990234375 424 -25.9990234375 420 -23.9990234375 c 0
 411 -17.9990234375 404 -6.9990234375 399 8.0009765625 c 0
 399 12.0009765625 397 22.0009765625 395 38.0009765625 c 0
 393 54.0009765625 391 65.0009765625 389 73.0009765625 c 2
 384 97.0009765625 l 1
 368 79.0009765625 l 2
 366 77.0009765625 361 70.0009765625 353 62.0009765625 c 2
 335 44.0009765625 l 2
 316 25.0009765625 303 13.0009765625 295 8.0009765625 c 0
 289 4.0009765625 281 0.0009765625 272 -5.9990234375 c 0
 263 -11.9990234375 254 -16.9990234375 246 -18.9990234375 c 0
 238 -20.9990234375 229 -23.9990234375 218 -25.9990234375 c 0
 207 -27.9990234375 197 -28.9990234375 187 -28.9990234375 c 0
 155 -28.9990234375 128 -19.9990234375 106 -2.9990234375 c 0
 84 14.0009765625 68 37.0009765625 60 66.0009765625 c 0
 56 81.0009765625 54 97.0009765625 54 113.000976562 c 0
 54 129.000976562 56 145.000976562 60 162.000976562 c 0
 88 284.000976562 153 367.000976562 257 411.000976562 c 2
 268 416.000976562 l 1
 252 460.000976562 243 486.000976562 241 491.000976562 c 0
 239 497.000976562 237 505.000976562 235 513.000976562 c 0
 233 521.000976562 232 528.000976562 232 533.000976562 c 0
 232 551.000976562 234 569.000976562 238 587.000976562 c 0
 243 609.000976562 254 632.000976562 272 653.000976562 c 0
 281 664.000976562 292 675.000976562 304 683.000976562 c 0
 316 691.000976562 331 698.000976562 349 704.000976562 c 0
 367 710.000976562 385 712.000976562 406 712.000976562 c 0
 423 712.000976562 439 710.000976562 453 704.000976562 c 0
 467 698.000976562 479 690.000976562 489 680.000976562 c 0
 499 670.000976562 505 657.000976562 509 640.000976562 c 0
 510.888671875 631.974609375 511.885742188 623.279296875 511.885742188 614.020507812 c 0
 511.885742188 603.668945312 510.639648438 592.61328125 508 581 c 0
 503 561 496 542 487 525 c 0
 478 508 469 493 459 481 c 0
 449 469 437 458 423 447 c 0
 409 436 396 427 385 421 c 0
 374 415 362 409 347 402 c 2
 338 397 l 1
 341 387 l 2
 348 366 360 335 377 294 c 0
 394 253 405 227 410 214 c 2
 418 191 l 1
 433 213 445 232 453 244 c 0
 461 256 468 266 473 273 c 0
 478 280 482 286 484 289 c 0
 498 305 509 315 518 318 c 0
 520 319 524 320 526 320 c 0
 530 320 534 318 539 316 c 0
 544 313 546 307 546 300 c 0
 546 287 539 272 528 255 c 0
 524 249 512 236 492 215 c 0
 472 194 453 174 436 153 c 1
 441 137 448 116 455 93 c 0
 462 70 466 55 467 50 c 0
 468 45 470 38 470 30 c 0
 470 22 468 14 466 5 c 0
385 657.000976562 m 0
 360 657.000976562 340 648.000976562 325 631.000976562 c 0
 313 617.000976562 304 598.000976562 299 575.000976562 c 0
 297 566.000976562 296 556.000976562 296 546.000976562 c 0
 296 536.000976562 297 526.000976562 299 515.000976562 c 0
 302 493.000976562 309 474.000976562 318 458.000976562 c 2
 323 450.000976562 l 1
 333 453.000976562 l 2
 348 458.000976562 362 463.000976562 373 468.000976562 c 0
 384 473.000976562 395 480.000976562 406 489.000976562 c 0
 417 498.000976562 427 508.000976562 434 521.000976562 c 0
 441 534.000976562 447 550.000976562 451 567.000976562 c 0
 453 576.000976562 455 585.000976562 455 593.000976562 c 0
 455 610.000976562 450 623.000976562 441 634.000976562 c 0
 427 649.000976562 408 657.000976562 385 657.000976562 c 0
138 82.0009765625 m 0
 153 54.0009765625 178 40.0009765625 211 40.0009765625 c 0
 226 40.0009765625 243 43.0009765625 263 49.0009765625 c 0
 270 51.0009765625 278 56.0009765625 286 61.0009765625 c 0
 294 66.0009765625 299 69.0009765625 304 72.0009765625 c 0
 309 75.0009765625 314 80.0009765625 321 87.0009765625 c 0
 328 94.0009765625 334 99.0009765625 336 102.000976562 c 0
 338 105.000976562 343 109.000976562 349 116.000976562 c 0
 355 123.000976562 359 127.000976562 360 128.000976562 c 2
 365 133.000976562 l 1
 359 163.000976562 354 186.000976562 350 201.000976562 c 0
 345 217.000976562 335 242.000976562 321 277.000976562 c 0
 307 312.000976562 297 337.000976562 291 354.000976562 c 2
 286 366.000976562 l 1
 274 361.000976562 l 2
 253 352.000976562 234 341.000976562 217 327.000976562 c 0
 200 313.000976562 186 298.000976562 175 282.000976562 c 0
 164 266.000976562 155 249.000976562 148 232.000976562 c 0
 141 215.000976562 136 197.000976562 131 177.000976562 c 0
 127 162.000976562 125 149.000976562 125 136.000976562 c 0
 125 115.000976562 129 97.0009765625 138 82.0009765625 c 0
EndSplineSet
Validated: 524289
EndChar

StartChar: quotesingle
Encoding: 39 39 17
Width: 600
GlyphClass: 2
Flags: HMW
HStem: 458 302<260 339 260 339>
LayerCount: 2
Fore
SplineSet
340 760 m 2
 348 760 355 758 361 754 c 0
 362 753 364 750 365 746 c 0
 366 742 365 737 364 730 c 0
 358 704 349 663 335 608 c 0
 321 553 310 513 302 490 c 0
 298 479 292 470 284 465 c 0
 276 460 269 458 262 458 c 2
 260 458 l 2
 250 459 242 463 237 468 c 0
 235 470 234 473 234 477 c 0
 234 481 235 484 236 489 c 0
 246 524 256 563 266 609 c 0
 276 655 285 696 292 731 c 0
 292 737 294 743 298 747 c 0
 302 751 306 754 310 755 c 0
 319 758 327 760 334 760 c 2
 339 760 l 1
 340 760 l 2
EndSplineSet
Validated: 1
EndChar

StartChar: parenleft
Encoding: 40 40 18
Width: 600
GlyphClass: 2
Flags: HMW
HStem: -119 60<235.5 278> 745 57<443.5 476.5>
VStem: 108 71<140.5 147.5>
LayerCount: 2
Fore
SplineSet
274 -59 m 0
 282 -59 287 -61 289 -64 c 0
 290 -65 292 -67 292 -71 c 0
 292 -75 290 -81 289 -90 c 0
 287 -98 283 -104 275 -110 c 0
 267 -116 260 -119 254 -119 c 0
 217 -119 186 -105 162 -76 c 0
 137 -45 121 -3 113 52 c 0
 110 77 108 103 108 130 c 0
 108 165 110 203 116 244 c 0
 123 293 139 356 163 433 c 0
 187 510 213 574 242 623 c 0
 255 644 270 666 288 687 c 0
 306 708 325 727 346 744 c 0
 367 761 389 775 411 786 c 0
 433 797 453 802 473 802 c 0
 480 802 485 801 487 799 c 0
 489 797 491 793 491 788 c 0
 491 785 491 781 490 776 c 0
 488 765 483 757 476 752 c 0
 469 747 462 745 453 745 c 0
 434 745 417 740 399 729 c 0
 381 718 364 703 349 685 c 0
 320 651 295 609 273 558 c 0
 256 523 239 475 222 414 c 0
 205 353 194 304 188 268 c 0
 182 232 179 197 179 164 c 0
 179 117 184 76 193 41 c 0
 200 12 211 -11 224 -29 c 0
 239 -49 255 -59 274 -59 c 0
EndSplineSet
Validated: 1
EndChar

StartChar: parenright
Encoding: 41 41 19
Width: 600
GlyphClass: 2
Flags: HMW
HStem: -119 60<141.5 145.5> 745 57<323.5 353.5>
VStem: 426 65<551.5 571>
LayerCount: 2
Fore
SplineSet
491 571 m 0
 491 532 487 488 480 438 c 0
 469 361 455 298 439 250 c 0
 416 177 388 113 354 57 c 0
 320 1 284 -42 244 -73 c 0
 204 -104 165 -119 126 -119 c 0
 121 -119 116 -117 112 -112 c 0
 110 -110 109 -106 109 -102 c 2
 109 -96 l 2
 112 -81 117 -71 123 -66 c 0
 129 -61 137 -59 146 -59 c 0
 163 -59 183 -50 205 -31 c 0
 226 -14 246 10 267 38 c 0
 288 66 307 99 327 139 c 0
 347 179 362 218 375 259 c 0
 387 297 399 348 410 410 c 0
 421 472 426 522 426 560 c 0
 426 582 425 603 422 624 c 0
 419 645 414 663 407 682 c 0
 400 701 390 716 376 728 c 0
 362 740 346 745 327 745 c 0
 320 745 314 747 310 751 c 0
 308 753 307 755 307 759 c 0
 307 763 308 768 309 773 c 0
 310 778 313 784 316 788 c 0
 319 792 322 795 324 796 c 0
 331 800 337 802 344 802 c 0
 363 802 381 797 398 787 c 0
 415 777 429 764 441 747 c 0
 453 730 464 711 472 690 c 0
 480 669 486 648 488 627 c 0
 490 610 491 592 491 571 c 0
EndSplineSet
Validated: 1
EndChar

StartChar: asterisk
Encoding: 42 42 20
Width: 600
GlyphClass: 2
Flags: HMW
HStem: 305 80<99.5 122> 313 71<488 508.5> 319 52<391.5 401.5 350 419>
VStem: 218 62 318 66<145 173>
LayerCount: 2
Fore
SplineSet
344 129 m 0x98
 337 129 331 131 326 134 c 0
 324 135 321 137 320 139 c 0
 319 141 318 144 318 146 c 0
 317 173 310 213 297 264 c 2
 290 290 l 1
 275 268 l 2
 231 206 203 165 192 145 c 0
 189 139 184 134 179 131 c 0
 174 129 168 126 163 126 c 2
 157 126 l 2
 155 126 151 126 147 127 c 0
 143 128 138 130 136 132 c 0
 134 134 131 137 130 141 c 0
 129 145 128 148 128 151 c 2
 128 159 l 2
 128 166 132 173 138 182 c 2
 242 312 l 1
 215 311 l 2
 164 307 126 305 102 305 c 0
 97 305 92 307 89 308 c 0
 86 309 83 312 81 315 c 0
 78 320 76 325 76 331 c 2
 78 341 l 2
 78 346 80 351 82 356 c 0
 89 369 96 378 105 382 c 0
 110 384 114 385 119 385 c 2
 122 385 l 2
 150 383 197 379 264 374 c 1
 258 391 l 2
 243 440 229 477 218 503 c 0
 216 509 215 515 215 521 c 0
 215 527 216 534 218 540 c 0
 222 551 228 559 236 562 c 0
 242 566 248 568 254 568 c 0
 259 568 265 566 270 562 c 0
 275 558 279 552 280 545 c 0
 283 529 294 483 314 406 c 1
 330 426 l 2
 365 471 393 509 413 540 c 0
 418 549 425 556 432 560 c 0
 439 564 446 566 451 566 c 0
 456 566 461 564 464 561 c 2
 465 561 l 2
 467 560 470 557 471 552 c 0
 471 550 472 546 472 543 c 0
 472 530 468 518 458 507 c 0
 431 476 399 437 364 390 c 2
 350 371 l 1x38
 374 371 l 2
 429 371 470 375 496 382 c 0
 500 383 504 384 506 384 c 0x58
 511 384 515 381 517 378 c 0
 521 373 524 367 524 362 c 0
 524 357 522 350 518 341 c 0
 511 328 504 319 496 315 c 0
 494 314 491 313 489 313 c 0
 487 313 485 314 484 314 c 0
 468 317 440 319 398 319 c 0x38
 385 319 366 318 341 318 c 1
 382 187 l 2
 383 182 384 176 384 170 c 0
 384 164 383 159 381 154 c 0
 378 145 373 138 367 134 c 0
 361 130 353 129 344 129 c 0x98
EndSplineSet
Validated: 1
EndChar

StartChar: plus
Encoding: 43 43 21
Width: 600
GlyphClass: 2
Flags: HMW
HStem: 370 59<251 280 251 280>
LayerCount: 2
Fore
SplineSet
157 369 m 2
 146 369 138 371 136 376 c 0
 134 379 132 383 132 388 c 0
 132 390 133 394 133 397 c 0
 135 407 140 415 147 422 c 0
 154 428 162 431 173 431 c 2
 176 431 l 2
 219 430 250 429 270 429 c 2
 280 429 l 1
 289 469 298 508 305 547 c 0
 306 557 310 565 315 570 c 0
 322 577 331 580 343 580 c 2
 346 580 l 2
 353 580 359 578 363 575 c 0
 364 574 365 571 365 567 c 0
 365 563 364 559 362 553 c 0
 351 514 341 472 330 427 c 1
 448 427 l 2
 458 427 464 425 465 423 c 0
 466 421 468 418 468 413 c 0
 468 406 466 398 463 391 c 0
 461 387 458 383 455 379 c 0
 450 373 443 370 434 370 c 2
 434 370 432 371 430 371 c 0
 420 371 406 372 386 372 c 0
 366 372 343 371 316 371 c 1
 311 347 305 323 300 298 c 0
 295 273 291 258 290 253 c 0
 287 240 282 232 277 227 c 0
 271 223 264 220 256 220 c 0
 249 220 244 221 241 223 c 0
 238 225 237 229 237 235 c 0
 237 239 237 243 238 248 c 2
 266 370 l 1
 251 370 l 1
 157 369 l 2
EndSplineSet
Validated: 1
EndChar

StartChar: comma
Encoding: 44 44 22
Width: 600
GlyphClass: 2
Flags: HMW
VStem: 183 234
LayerCount: 2
Fore
SplineSet
183 -185 m 2
 183 -182 l 2
 183 -176 186 -169 193 -161 c 0
 211 -140 240 -95 279 -27 c 0
 318 41 343 89 354 116 c 0
 356 123 362 129 368 133 c 0
 374 137 380 139 385 139 c 2
 386 139 l 2
 392 139 398 138 403 137 c 0
 408 135 413 131 415 125 c 0
 416 123 417 120 417 117 c 0
 417 114 415 108 413 101 c 0
 400 68 375 19 339 -48 c 0
 303 -115 278 -157 264 -172 c 0
 252 -185 239 -195 224 -200 c 0
 216 -202 209 -204 203 -204 c 0
 200 -204 196 -203 194 -202 c 0
 191 -201 188 -198 186 -196 c 0
 184 -193 183 -189 183 -185 c 2
EndSplineSet
Validated: 1
EndChar

StartChar: hyphen
Encoding: 45 45 23
Width: 600
GlyphClass: 2
Flags: HMW
HStem: 255 62<182.5 222.5> 264 56<392 419.5>
LayerCount: 2
Fore
SplineSet
205 317 m 0x80
 240 317 282 317 331 318 c 0
 380 319 408 320 415 320 c 0x40
 424 320 430 318 432 316 c 0
 434 312 435 306 434 298 c 0
 432 287 426 278 421 273 c 0
 415 267 407 264 396 264 c 0
 388 264 356 262 301 259 c 0
 246 256 207 255 186 255 c 0
 179 255 173 256 170 258 c 0
 167 260 166 264 166 270 c 0
 166 274 167 278 168 283 c 0
 169 294 173 303 178 308 c 0
 185 314 194 317 205 317 c 0x80
EndSplineSet
Validated: 1
EndChar

StartChar: period
Encoding: 46 46 24
Width: 600
GlyphClass: 2
Flags: HMW
HStem: -2 130<266.5 330.5 274 330.5>
VStem: 234 131<37.5 90.5>
LayerCount: 2
Fore
SplineSet
365 85 m 0
 365 80 364 74 363 68 c 0
 359 49 351 34 336 21 c 0
 321 8 303 0 282 -2 c 2
 274 -2 l 2
 259 -2 249 3 242 13 c 0
 237 22 234 32 234 43 c 0
 234 49 235 55 236 61 c 0
 240 79 251 94 268 107 c 0
 287 121 304 128 323 128 c 0
 338 128 350 123 357 113 c 0
 362 105 365 96 365 85 c 0
EndSplineSet
Validated: 1
EndChar

StartChar: slash
Encoding: 47 47 25
Width: 600
GlyphClass: 2
Flags: W
LayerCount: 2
Fore
SplineSet
-5 -31 m 0
 -5 -28 -4 -24 -4 -20 c 0
 -2 -3 6 12 17 27 c 0
 145 187 255 329 348 454 c 0
 407 530 470 617 537 714 c 0
 544 723 550 730 558 734 c 0
 566 738 573 741 579 741 c 0
 585 741 590 739 596 737 c 0
 602 733 606 727 606 719 c 0
 606 710 599 698 590 683 c 0
 566 649 502 566 397 433 c 0
 292 300 228 218 205 185 c 0
 190 164 166 129 132 80 c 0
 98 31 77 1 69 -10 c 0
 56 -27 41 -38 26 -45 c 0
 19 -47 14 -49 10 -49 c 0
 6 -49 2 -48 0 -46 c 2
 -1 -46 l 2
 -3 -44 -5 -38 -5 -31 c 0
EndSplineSet
Validated: 1
EndChar

StartChar: zero
Encoding: 48 48 26
Width: 600
GlyphClass: 2
Flags: HMW
HStem: -12 60<216 216.5> 649 57<375 376>
VStem: 68 77<133.5 211>
LayerCount: 2
Fore
SplineSet
79 211 m 0
 80 218 83 235 89 261 c 0
 95 287 100 308 104 324 c 0
 108 340 114 361 121 388 c 0
 128 415 135 438 141 458 c 0
 147 478 155 500 165 522 c 0
 175 544 184 565 193 582 c 0
 215 623 243 653 278 674 c 0
 313 695 353 706 397 706 c 0
 419 706 440 702 458 693 c 0
 476 684 491 671 503 655 c 0
 515 639 523 618 528 591 c 0
 530 578 531 564 531 548 c 0
 531 532 529 516 527 496 c 0
 522 463 514 425 505 383 c 0
 496 341 485 298 473 256 c 0
 461 214 450 181 439 159 c 0
 419 117 399 82 379 57 c 0
 370 45 362 34 351 26 c 0
 340 18 330 11 320 6 c 0
 310 1 299 -3 287 -5 c 0
 275 -7 263 -10 251 -11 c 0
 239 -12 225 -12 208 -12 c 0
 183 -12 160 -7 139 3 c 0
 118 13 103 27 91 46 c 0
 79 65 71 88 69 116 c 0
 69 123 68 130 68 137 c 0
 68 159 72 184 79 211 c 0
281 616 m 0
 258 594 237 559 217 511 c 0
 210 494 203 473 197 451 c 0
 191 429 184 402 177 370 c 0
 170 338 165 315 163 302 c 2
 149 232 l 2
 149 230 147 226 147 221 c 0
 147 216 145 212 145 210 c 2
 130 160 l 1
 166 198 l 1
 268 321 363 447 454 576 c 1
 459 581 l 1
 456 588 l 2
 447 608 435 622 419 633 c 0
 404 644 386 649 366 649 c 0
 333 649 304 638 281 616 c 0
269 53 m 0
 282 56 296 61 309 70 c 0
 336 86 359 117 380 162 c 0
 384 171 391 194 401 230 c 0
 412 266 424 307 436 354 c 0
 448 401 456 446 463 489 c 2
 471 542 l 1
 441 498 l 1
 348 352 251 230 147 131 c 1
 142 127 l 1
 143 120 l 2
 148 93 159 74 176 62 c 0
 189 53 206 48 226 48 c 0
 242 48 256 50 269 53 c 0
EndSplineSet
Validated: 1
EndChar

StartChar: one
Encoding: 49 49 27
Width: 600
GlyphClass: 2
Flags: HMW
HStem: 3 67
LayerCount: 2
Fore
SplineSet
503 47 m 2
 503 40 l 2
 501 29 496 21 489 14 c 0
 482 7 471 3 456 3 c 0
 253 5 138 7 116 7 c 0
 107 7 102 9 100 13 c 0
 98 16 96 19 96 23 c 0
 96 27 98 31 98 35 c 0
 100 46 103 55 110 62 c 0
 117 69 126 72 137 72 c 0
 165 72 213 71 280 70 c 1
 287 103 293 129 295 146 c 0
 295 151 298 168 304 197 c 2
 318 262 l 2
 320 275 327 300 335 336 c 0
 343 372 350 399 354 417 c 0
 369 481 384 549 404 620 c 1
 377 598 l 2
 330 558 296 534 276 525 c 0
 274 524 272 523 270 523 c 0
 266 523 261 527 257 532 c 0
 252 539 251 545 251 551 c 0
 251 553 252 555 252 557 c 0
 253 566 256 574 261 581 c 0
 266 588 273 595 284 604 c 0
 303 619 322 636 343 653 c 2
 390 692 l 2
 401 699 411 705 420 710 c 0
 429 715 436 718 441 718 c 0
 450 718 459 713 468 704 c 0
 475 697 480 691 480 686 c 2
 480 685 l 1
 480 685 466 633 439 529 c 0
 412 430 397 373 394 357 c 0
 380 290 368 234 359 190 c 0
 354 165 346 124 337 67 c 1
 362 67 396 66 436 65 c 0
 458 65 473 64 479 64 c 0
 485 64 491 63 494 62 c 0
 497 61 500 59 500 58 c 0
 502 56 503 52 503 47 c 2
EndSplineSet
Validated: 1
EndChar

StartChar: two
Encoding: 50 50 28
Width: 600
GlyphClass: 2
Flags: HMW
HStem: -5 59 0 64<405 411> 650 60<384.5 396.5>
VStem: 477 68<578.5 582>
LayerCount: 2
Fore
SplineSet
227 -5 m 0xb0
 200 -6 171 -7 140 -7 c 0
 109 -7 85 -6 68 -4 c 0
 64 -4 62 -1 60 1 c 0
 57 5 54 12 54 23 c 0
 54 38 59 57 64 81 c 0
 71 108 82 137 100 167 c 0
 118 197 141 227 170 256 c 0
 197 284 224 307 253 324 c 0
 322 365 369 393 390 409 c 0
 419 431 441 456 454 482 c 0
 461 496 468 514 473 536 c 0
 475 549 477 560 477 571 c 0
 477 593 471 610 459 623 c 0
 442 641 414 650 379 650 c 0
 355 650 332 642 307 625 c 0
 282 608 262 590 246 569 c 0
 233 553 223 544 217 544 c 2
 213 544 l 2
 212 544 210 544 208 545 c 0
 206 546 201 549 196 551 c 0
 191 554 190 559 190 566 c 0
 190 572 196 584 205 603 c 0
 212 615 222 627 235 639 c 0
 248 651 263 662 280 673 c 0
 297 684 316 693 336 700 c 0
 356 707 375 710 394 710 c 0
 456 710 498 695 523 664 c 0
 538 645 545 620 545 588 c 0
 545 569 543 548 538 525 c 0
 525 472 502 430 470 398 c 0
 446 374 408 347 357 318 c 0
 341 308 321 296 294 281 c 0
 264 265 237 246 215 223 c 0
 193 200 176 176 163 151 c 0
 150 127 138 101 130 73 c 2
 126 58 l 1
 173 56 213 54 246 54 c 0
 271 54 290 55 306 56 c 0
 322 57 335 58 346 59 c 0
 357 60 376 62 405 64 c 2x70
 414 64 l 2
 418 64 422 65 426 65 c 0
 430 65 434 64 436 64 c 0
 437 63 439 61 441 60 c 2
 441 56 l 1
 441 52 l 2
 441 45 439 37 436 29 c 0
 433 21 427 14 421 8 c 0
 417 3 413 0 409 0 c 0
 369 0 310 -1 227 -5 c 0xb0
EndSplineSet
Validated: 1
EndChar

StartChar: three
Encoding: 51 51 29
Width: 600
GlyphClass: 2
Flags: HMW
HStem: -12 60<231.5 253.5> 330 76<261.5 282> 650 60<359.5 373.5>
VStem: 399 74<214.5 271> 461 69<584.5 585.5>
LayerCount: 2
Fore
SplineSet
466 201 m 0xf0
 451 136 421 84 377 45 c 0
 335 7 284 -12 223 -12 c 0
 204 -12 186 -9 168 -2 c 0
 150 4 135 12 122 22 c 0
 109 32 98 44 89 56 c 0
 80 68 74 80 72 91 c 0
 71 96 70 101 70 107 c 0
 70 113 72 119 74 125 c 0
 79 135 85 142 93 146 c 0
 101 150 108 152 113 152 c 0
 115 152 118 151 120 151 c 0
 127 149 132 143 137 132 c 0
 146 110 160 90 180 73 c 0
 198 56 219 48 244 48 c 0
 280 48 312 60 340 84 c 0
 368 108 387 140 395 179 c 0
 397 194 399 208 399 221 c 0
 399 248 393 271 378 289 c 0
 356 316 313 330 251 330 c 0
 248 330 244 332 242 333 c 0
 240 334 237 337 235 341 c 0
 232 346 230 352 230 359 c 0
 230 361 231 365 231 368 c 0
 233 380 238 389 244 396 c 0
 250 403 257 406 266 406 c 0
 315 406 356 418 389 442 c 0
 425 466 448 501 457 546 c 0
 459 557 461 566 461 575 c 0xe8
 461 596 454 612 439 625 c 0
 419 642 392 650 355 650 c 0
 343 650 330 647 316 642 c 0
 311 640 305 636 299 632 c 0
 293 628 288 624 285 622 c 0
 282 620 278 614 272 608 c 2
 259 595 l 2
 257 593 253 587 248 580 c 0
 237 567 228 560 221 558 c 0
 219 558 217 557 215 557 c 0
 210 557 206 559 201 562 c 0
 199 564 196 566 195 568 c 0
 194 570 194 574 194 577 c 0
 194 588 199 600 208 615 c 0
 223 640 244 662 270 680 c 0
 283 689 299 697 316 702 c 0
 333 707 350 710 369 710 c 0
 433 710 479 695 505 666 c 0
 522 648 530 624 530 593 c 0
 530 576 527 556 522 535 c 0
 518 516 512 500 504 485 c 0
 496 470 487 458 477 448 c 0
 467 438 456 429 443 421 c 0
 430 413 418 408 406 403 c 0
 395 398 383 394 370 392 c 2
 322 381 l 1
 370 368 l 2
 391 363 408 356 422 348 c 0
 436 340 448 330 457 317 c 0
 468 302 473 283 473 259 c 0
 473 242 471 222 466 201 c 0xf0
EndSplineSet
Validated: 1
EndChar

StartChar: four
Encoding: 52 52 30
Width: 600
GlyphClass: 2
Flags: HMW
HStem: 236 55<269.5 374 361 362>
VStem: 318 50 318 63<17 62 19 62>
LayerCount: 2
Fore
SplineSet
325 -1 m 0xa0
 320 5 318 11 318 17 c 2
 318 19 l 1
 323 40 331 78 342 134 c 2
 362 236 l 1
 310 236 l 2
 229 236 169 232 128 223 c 0
 124 223 120 222 117 222 c 0
 114 222 110 222 108 223 c 0
 104 225 101 228 99 231 c 0
 97 238 95 246 95 255 c 0
 95 260 97 266 98 274 c 0
 99 282 102 290 106 297 c 0
 117 315 140 345 177 387 c 0
 212 429 254 480 304 542 c 0
 354 604 392 650 416 679 c 0
 426 690 436 699 446 705 c 0
 456 711 465 713 472 713 c 2
 473 713 l 1
 479 713 l 2
 486 713 493 711 498 708 c 0
 503 705 505 699 505 691 c 2
 505 691 504 689 504 688 c 0
 503 665 497 629 488 581 c 0
 479 533 471 491 464 458 c 2
 428 291 l 1
 449 291 466 290 479 290 c 0
 489 290 495 287 497 285 c 0
 499 281 499 275 498 267 c 0
 496 256 491 247 486 242 c 0
 480 235 472 232 460 232 c 0
 448 232 433 233 416 234 c 1
 394 129 381 69 381 55 c 0
 381 36 376 20 368 7 c 0xc0
 361 -5 353 -11 344 -11 c 0
 337 -11 331 -8 325 -1 c 0xa0
443 640 m 1
 415 610 l 1
 306 481 228 380 182 308 c 2
 168 287 l 1
 193 289 l 2
 225 291 264 292 308 292 c 0
 326 292 348 291 374 291 c 1
 403 423 423 526 436 600 c 2
 443 640 l 1
EndSplineSet
Validated: 1
EndChar

StartChar: five
Encoding: 53 53 31
Width: 600
GlyphClass: 2
Flags: HMW
HStem: -6 60<203.5 220.5> 433 64<325 385.5> 633 62<492.5 550.5 535 550.5> 639 61
VStem: 418 70<327 379.5>
LayerCount: 2
Fore
SplineSet
481 299 m 0xd8
 470 250 454 207 434 168 c 0
 415 129 393 97 370 72 c 0
 347 47 321 27 293 14 c 0
 265 1 236 -6 205 -6 c 0
 181 -6 158 -3 138 3 c 0
 117 9 101 17 89 26 c 0
 77 35 69 45 62 56 c 0
 55 67 49 78 46 89 c 0
 45 96 45 102 45 108 c 0
 45 114 45 121 47 126 c 0
 51 134 58 140 67 145 c 0
 78 150 86 152 90 152 c 0
 91 152 93 151 95 151 c 0
 97 151 100 150 101 148 c 0
 103 144 106 138 109 131 c 0
 120 103 136 83 157 70 c 0
 174 59 193 54 214 54 c 0
 259 54 301 75 337 117 c 0
 372 159 397 213 412 282 c 0
 416 302 418 319 418 335 c 0
 418 356 414 374 407 389 c 0
 400 405 390 417 375 424 c 0
 363 430 349 433 333 433 c 0
 317 433 300 430 283 426 c 0
 273 424 261 418 245 409 c 0
 241 407 235 403 228 398 c 0
 221 393 216 389 214 387 c 0
 212 385 203 376 188 363 c 0
 177 354 164 348 150 347 c 0
 149 347 148 346 147 346 c 0
 142 346 137 348 132 350 c 0
 125 353 122 364 122 383 c 0
 122 396 124 412 128 432 c 0
 132 452 137 473 143 494 c 0
 149 515 156 538 163 563 c 0
 170 588 174 606 176 619 c 1
 175 623 l 2
 173 627 172 632 172 638 c 0
 172 640 173 644 173 646 c 0
 173 656 176 665 180 673 c 0
 184 681 188 687 194 692 c 0
 200 697 206 700 211 700 c 0
 232 700 280 699 358 698 c 0
 439 697 502 696 546 696 c 0
 547 696 549 695 550 695 c 0xe8
 551 695 552 693 552 692 c 0
 554 687 556 682 556 676 c 2
 556 672 l 2
 556 664 553 657 551 650 c 0
 550 647 548 644 547 642 c 0
 546 640 544 637 542 636 c 0
 540 635 538 633 536 633 c 0
 534 633 530 631 527 631 c 2
 520 631 l 2
 519 631 515 632 510 632 c 0
 505 632 500 633 495 633 c 0
 490 633 477 634 456 636 c 0
 435 638 416 640 400 641 c 0
 384 642 363 643 334 643 c 0
 305 643 271 641 234 639 c 1
 231 626 226 604 218 572 c 0
 210 540 205 517 202 502 c 0
 199 487 193 454 183 403 c 1
 208 430 l 2
 228 450 251 465 280 478 c 0
 309 491 341 497 374 497 c 0
 397 497 417 492 433 482 c 0
 451 473 462 459 471 442 c 0
 482 421 488 395 488 364 c 0
 488 343 486 321 481 299 c 0xd8
EndSplineSet
Validated: 1
EndChar

StartChar: six
Encoding: 54 54 32
Width: 600
GlyphClass: 2
Flags: HMW
HStem: -10 60<221.5 256> 405 64<319.5 386.5>
VStem: 88 58<186.5 192> 431 71<299 358>
LayerCount: 2
Fore
SplineSet
490 248 m 0
 482 213 468 178 449 146 c 0
 430 114 409 86 386 64 c 0
 365 42 342 23 316 10 c 0
 290 -3 264 -10 238 -10 c 0
 205 -10 176 -3 153 12 c 0
 130 27 114 48 104 75 c 0
 94 102 88 134 88 171 c 0
 88 213 95 260 108 313 c 0
 121 370 138 421 159 465 c 0
 180 509 202 547 224 578 c 0
 245 609 269 635 295 656 c 0
 321 677 349 693 377 704 c 0
 407 715 440 722 477 725 c 2
 484 725 l 2
 493 725 501 723 506 720 c 0
 508 719 509 716 510 714 c 0
 511 712 512 709 512 708 c 2
 512 704 l 2
 512 699 507 692 498 684 c 0
 489 676 481 670 472 668 c 0
 465 667 454 664 439 661 c 0
 424 658 411 654 400 651 c 0
 390 648 378 643 365 637 c 0
 338 624 308 601 277 567 c 0
 261 549 245 525 228 494 c 0
 211 463 198 436 189 412 c 2
 171 362 l 1
 209 399 l 2
 230 422 255 440 283 452 c 0
 311 464 342 469 374 469 c 0
 399 469 421 466 440 458 c 0
 459 450 472 438 483 421 c 0
 496 401 502 375 502 341 c 0
 502 314 498 283 490 248 c 0
247 378 m 0
 218 360 191 337 167 309 c 2
 165 307 l 1
 157 276 151 251 149 232 c 0
 147 221 146 209 146 197 c 0
 146 176 149 156 155 136 c 0
 160 120 166 105 175 92 c 0
 184 79 195 69 210 61 c 0
 223 54 238 50 254 50 c 2
 256 50 l 2
 278 50 302 59 324 78 c 0
 346 97 366 119 383 147 c 0
 402 175 414 203 421 232 c 0
 428 262 431 288 431 310 c 0
 431 335 426 355 416 369 c 0
 406 382 394 392 381 397 c 0
 368 402 353 405 334 405 c 0
 305 405 276 396 247 378 c 0
EndSplineSet
Validated: 1
EndChar

StartChar: seven
Encoding: 55 55 33
Width: 600
GlyphClass: 2
Flags: HMW
HStem: 634 68
LayerCount: 2
Fore
SplineSet
541 631 m 0
 528 611 505 581 473 541 c 0
 442 501 409 459 378 417 c 0
 347 375 307 319 260 249 c 0
 213 179 166 107 119 33 c 0
 108 16 97 4 85 -3 c 0
 76 -8 69 -11 62 -11 c 2
 57 -11 l 2
 53 -10 49 -7 47 -4 c 0
 45 -1 44 3 44 9 c 0
 44 15 47 24 53 37 c 0
 100 105 149 173 198 241 c 0
 245 309 285 362 316 403 c 0
 347 444 374 483 401 522 c 0
 428 561 449 592 462 616 c 2
 470 633 l 1
 450 634 l 2
 425 634.5 399.5 634.75 373.125 634.75 c 0
 346.75 634.75 319.5 634.5 291 634 c 0
 234 633 196 629 176 624 c 0
 174 624 172 623 171 623 c 0
 170 623 168 624 167 624 c 0
 165 625 162 628 161 630 c 0
 159 637 157 646 158 658 c 0
 160 666 165 673 170 679 c 0
 175 685 182 690 195 692 c 0
 226 699 278 702 348 702 c 0
 370 702 415 700 481 697 c 0
 513 696 530 695 532 695 c 0
 542 695 549 691 554 682 c 0
 555 680 557 676 557 673 c 0
 557 670 556 667 556 665 c 0
 555 656 550 644 541 631 c 0
EndSplineSet
Validated: 524289
EndChar

StartChar: eight
Encoding: 56 56 34
Width: 600
GlyphClass: 2
Flags: HMW
HStem: -16 61<238.5 243> 658 48<355.5 395.5 370 395.5>
VStem: 71 58<122.5 164> 178 60 428 67<217.5 249.5> 467 62<550 586>
LayerCount: 2
Fore
SplineSet
495 244 m 0xf8
 495 233 493 221 490 207 c 0
 480 163 460 122 429 85 c 0
 412 65 396 49 377 34 c 0
 358 19 336 7 310 -2 c 0
 284 -11 257 -16 229 -16 c 0
 200 -16 174 -12 153 -3 c 0
 132 6 115 16 104 29 c 0
 93 42 84 58 79 77 c 0
 74 96 71 113 71 132 c 0
 71 151 73 172 78 194 c 0
 83 215 93 237 109 262 c 0
 125 287 146 310 170 331 c 0
 192 353 216 368 238 376 c 2
 262 384 l 1
 240 398 l 2
 216 413 199 432 189 457 c 0
 182 473 178 489 178 505 c 0
 178 514 179 523 181 531 c 0
 183 539 186 547 189 556 c 0
 191 565 196 574 202 586 c 0
 208 598 213 609 220 620 c 0
 227 631 237 641 248 652 c 0
 259 663 270 672 283 680 c 0
 296 688 311 694 329 699 c 0
 347 704 365 706 385 706 c 0
 406 706 424 704 442 699 c 0
 460 694 474 688 484 681 c 0
 494 674 502 664 509 654 c 0
 516 644 522 634 524 624 c 0
 527 611 529 595 529 577 c 0xf4
 529 563 527 548 524 533 c 0
 523 526 520 519 517 512 c 0
 514 505 510 499 506 493 c 0
 502 487 496 481 490 475 c 0
 484 469 478 464 473 459 c 0
 465 452 449 441 426 426 c 2
 381 396 l 1
 399 386 l 2
 418 376 434 365 447 352 c 0
 460 339 470 327 477 315 c 0
 484 303 489 292 491 279 c 0
 493 266 495 255 495 244 c 0xf8
427 638 m 0
 410 651 392 658 371 658 c 2
 370 658 l 2
 341 658 315 646 289 622 c 0
 263 598 247 570 241 541 c 0
 239 534 238 527 238 521 c 0
 238 502 244 486 256 471 c 0
 271 453 297 435 334 417 c 2
 338 415 l 1
 342 416 l 1
 369 428 394 444 418 465 c 0
 445 486 460 506 464 526 c 0
 466 535 467 545 467 555 c 0
 467 565 465 576 462 587 c 0
 456 608 444 625 427 638 c 0
139 114 m 0
 150 92 165 74 186 63 c 0
 206 51 227 45 250 45 c 0
 267 45 284 49 302 55 c 0
 320 61 337 70 353 81 c 0
 369 92 383 107 396 126 c 0
 409 145 418 165 423 186 c 0
 426 199 428 212 428 223 c 0xf8
 428 233 426 244 423 257 c 0
 420 270 415 282 407 294 c 0
 400 306 389 318 375 330 c 0
 361 342 344 353 323 363 c 2
 320 365 l 1
 316 364 l 2
 272 351 233 328 200 295 c 0
 164 262 141 227 132 189 c 0
 130 179 129 169 129 159 c 0
 129 143 132 128 139 114 c 0
EndSplineSet
Validated: 1
EndChar

StartChar: nine
Encoding: 57 57 35
Width: 600
GlyphClass: 2
Flags: HMW
HStem: 248 64<237 301> 667 60<345 390.5 356 390.5>
VStem: 117 68<412.5 427> 466 57<522.5 530.5>
LayerCount: 2
Fore
SplineSet
500 382 m 0
 487 330 470 283 449 241 c 0
 428 199 404 162 380 133 c 0
 357 104 331 79 303 58 c 0
 275 37 246 22 216 11 c 0
 184 0 150 -7 113 -10 c 0
 111 -10 109 -11 107 -11 c 0
 98 -11 91 -8 85 -5 c 0
 83 -4 80 -2 79 0 c 0
 78 2 78 6 78 10 c 0
 78 16 83 22 91 30 c 0
 99 38 109 44 118 46 c 0
 125 48 136 51 152 55 c 0
 168 59 184 62 197 65 c 0
 208 68 222 73 237 79 c 0
 270 92 300 114 329 145 c 0
 347 165 363 188 380 214 c 0
 397 241 411 265 420 286 c 2
 442 341 l 1
 400 300 l 2
 381 280 360 266 336 259 c 0
 312 252 283 248 248 248 c 0
 226 248 205 253 187 266 c 0
 167 279 152 295 141 316 c 0
 130 337 122 362 119 390 c 0
 118 399 117 408 117 417 c 0
 117 437 119 456 124 476 c 0
 133 512 145 546 164 577 c 0
 183 608 203 635 225 657 c 0
 246 679 269 696 295 708 c 0
 321 720 349 727 376 727 c 0
 405 727 430 721 451 710 c 0
 477 696 496 673 508 642 c 0
 518 615 523 583 523 546 c 0
 523 499 515 444 500 382 c 0
457 581 m 0
 452 597 446 611 437 624 c 0
 428 637 416 647 401 655 c 0
 388 663 373 667 357 667 c 2
 356 667 l 2
 334 667 310 659 287 642 c 0
 264 625 245 603 228 577 c 0
 211 551 199 523 193 494 c 0
 187 468 185 445 185 425 c 0
 185 400 190 378 199 361 c 0
 216 328 246 312 288 312 c 0
 314 312 341 319 368 333 c 0
 396 347 420 366 442 391 c 1
 445 393 l 1
 450 415 455 445 462 485 c 0
 464 496 466 508 466 520 c 0
 466 541 463 561 457 581 c 0
EndSplineSet
Validated: 1
EndChar

StartChar: colon
Encoding: 58 58 36
Width: 600
GlyphClass: 2
Flags: HMW
HStem: 52 131<244.5 289 249 289> 319 131<314 350 314 350>
VStem: 215 108<80 151.5 84 151.5> 276 109<343 424 351 424>
LayerCount: 2
Fore
SplineSet
276 351 m 2xd0
 278 369 284 392 291 419 c 0
 292 426 295 432 299 436 c 0
 303 440 309 443 315 445 c 0
 325 448 334 450 343 450 c 2
 350 450 l 2
 360 450 369 448 377 443 c 0
 382 440 385 433 385 424 c 2
 385 419 l 1
 381 398 373 376 362 352 c 0
 357 341 350 332 340 327 c 0
 330 322 323 319 316 319 c 2
 314 319 l 2
 302 320 293 323 286 327 c 0
 282 329 279 331 278 334 c 0
 277 337 276 340 276 343 c 2
 276 351 l 2xd0
215 80 m 2xe0
 215 84 l 1
 220 110 l 2
 220 112 223 117 224 122 c 0
 225 127 228 137 233 152 c 0
 234 158 237 163 241 167 c 0
 245 171 250 175 255 177 c 0
 266 181 275 183 283 183 c 2
 289 183 l 2
 295 183 301 182 306 180 c 0
 311 178 314 175 318 170 c 0
 322 165 324 160 324 153 c 2
 324 153 323 152 323 151 c 0
 322 129 315 106 304 83 c 0
 299 73 291 65 280 60 c 0
 269 55 260 52 252 52 c 2
 249 52 l 2
 240 52 231 56 223 62 c 0
 218 67 215 73 215 80 c 2xe0
EndSplineSet
Validated: 1
EndChar

StartChar: semicolon
Encoding: 59 59 37
Width: 600
GlyphClass: 2
Flags: HMW
HStem: 277 131<370 404 370 404>
VStem: 331 109<306 382 310 382>
LayerCount: 2
Fore
SplineSet
404 408 m 2
 413 408 423 406 432 401 c 0
 434 400 437 398 438 394 c 0
 439 390 440 386 440 382 c 2
 440 377 l 1
 436 356 428 334 417 310 c 0
 412 299 404 290 395 285 c 0
 386 280 378 277 371 277 c 2
 370 277 l 2
 354 279 342 285 335 294 c 0
 333 297 331 301 331 306 c 2
 331 310 l 2
 333 328 338 351 345 378 c 0
 347 384 351 390 355 394 c 0
 359 398 365 401 371 403 c 0
 377 405 382 407 387 407 c 0
 392 407 397 408 399 408 c 2
 404 408 l 2
352 77 m 0
 346 56 306 -30 232 -182 c 0
 227 -193 220 -201 212 -206 c 0
 204 -211 197 -213 190 -213 c 2
 188 -213 l 2
 179 -213 171 -210 165 -204 c 0
 163 -202 161 -198 161 -194 c 0
 161 -190 162 -187 163 -183 c 0
 168 -168 183 -129 209 -67 c 0
 235 -5 255 41 270 74 c 0
 274 83 277 90 281 95 c 0
 285 100 290 103 292 104 c 0
 299 106 305 107 310 107 c 0
 311 107 314 106 316 106 c 0
 327 106 337 104 346 99 c 0
 351 97 354 92 354 87 c 0
 354 85 353 81 352 77 c 0
EndSplineSet
Validated: 1
EndChar

StartChar: less
Encoding: 60 60 38
Width: 600
GlyphClass: 2
Flags: HMW
HStem: 680 20G<524 530>
LayerCount: 2
Fore
SplineSet
553 669 m 0
 553 663 550 657 545 650 c 0
 536 639 519 626 496 611 c 0
 456 585 393 543 309 483 c 0
 225 423 166 383 135 362 c 1
 145 352 l 2
 165 332 186 307 209 279 c 0
 232 251 252 226 269 203 c 0
 286 180 304 155 325 131 c 0
 346 107 365 88 382 74 c 0
 402 58 411 45 411 35 c 0
 411 32 409 27 406 20 c 0
 403 15 399 10 393 7 c 0
 387 4 379 1 370 0 c 2
 364 0 l 2
 357 0 349 2 340 5 c 0
 327 10 312 21 294 38 c 0
 276 55 257 77 236 102 c 0
 215 127 196 152 176 178 c 0
 156 204 134 230 111 258 c 0
 88 286 69 308 52 324 c 0
 49 327 47 333 47 341 c 0
 47 351 49 361 54 370 c 0
 59 379 64 385 71 389 c 0
 113 418 163 454 220 496 c 0
 277 538 330 576 377 610 c 0
 424 644 465 671 500 691 c 0
 511 697 520 700 528 700 c 0
 532 700 536 700 538 698 c 0
 546 692 551 684 552 675 c 0
 552 673 553 671 553 669 c 0
EndSplineSet
Validated: 1
EndChar

StartChar: equal
Encoding: 61 61 39
Width: 600
GlyphClass: 2
Flags: HMW
HStem: 259 50 259 58 455 61<189.5 194.5>
LayerCount: 2
Fore
SplineSet
195 516 m 2x20
 197 516.000976562 l 2
 233.318359375 514.829101562 273.068359375 514.34375 316.25 514.34375 c 0
 346.784179688 514.34375 379.034179688 514.5859375 413 515 c 0
 445 515 463 516 470 516 c 0
 480 516 487 515 488 513 c 0
 489 511 490 507 490 502 c 0
 490 495 488 487 485 479 c 0
 481 470 476 463 469 461 c 0
 466 460 463 459 461 459 c 2
 454 459 l 2
 440 459 427 460 415 460 c 2
 381 460 l 1
 278 457 l 2
 236 456 205 455 184 455 c 0
 173 455 164 458 159 463 c 0
 156 466 154 470 154 475 c 0
 154 477 155 480 155 482 c 0
 157 492 163 500 170 507 c 0
 177 513 184 516 195 516 c 2x20
155 317.000976562 m 2x60
 175 317.000976562 198 316.000976562 226 316.000976562 c 0
 254 316.000976562 287 318.000976562 327 318.000976562 c 2
 425 320.000976562 l 2
 436 320.000976562 442 318.000976562 443 316.000976562 c 0
 445 313.000976562 445 307.000976562 444 298.000976562 c 0
 442 288.000976562 439 280.000976562 434 273.000976562 c 0
 432 269.000976562 428 266.000976562 424 265.000976562 c 0
 420 264.000976562 417 264.000976562 415 264.000976562 c 2
 408 264.000976562 l 2
 393 264.000976562 376 265.000976562 356 265.000976562 c 0
 336 265.000976562 295 263.000976562 231 261.000976562 c 0
 187 260.000976562 154 259.000976562 134 259.000976562 c 0
 123 259.000976562 115 261.000976562 112 266.000976562 c 0
 110 269.000976562 109 273.000976562 109 278.000976562 c 0
 109 281.000976562 110 285.000976562 110 288.000976562 c 0
 111 296.000976562 116 303.000976562 124 309.000976562 c 0xa0
 132 315.000976562 141 317.000976562 153 317.000976562 c 2
 155 317.000976562 l 2x60
EndSplineSet
Validated: 524289
EndChar

StartChar: greater
Encoding: 62 62 40
Width: 600
GlyphClass: 2
Flags: HMW
HStem: 687 20G<230 236 236 239.5>
LayerCount: 2
Fore
SplineSet
236 707 m 2
 243 707 251 705 260 702 c 0
 273 697 288 686 307 669 c 0
 326 652 344 631 364 606 c 0
 384 581 404 555 424 529 c 0
 444 503 466 477 488 449 c 0
 510 421 531 399 548 383 c 0
 551 380 553 374 553 366 c 0
 553 356 551 346 546 337 c 0
 541 328 536 322 529 318 c 0
 487 290 437 254 380 212 c 0
 323 170 271 131 224 97 c 0
 177 63 135 36 100 16 c 0
 89 10 80 7 72 7 c 0
 67 7 64 7 62 9 c 0
 58 12 54 16 52 20 c 0
 50 24 48 26 48 30 c 0
 48 34 47 37 47 38 c 0
 47 44 50 50 55 57 c 0
 64 68 80 81 104 96 c 0
 145 122 208 164 292 224 c 0
 376 284 435 324 466 345 c 1
 455 355 l 2
 435 375 415 400 392 428 c 0
 369 456 349 481 332 504 c 0
 315 527 296 552 275 576 c 0
 254 600 236 619 218 633 c 0
 198 649 189 662 189 672 c 0
 189 677 191 682 194 687 c 0
 197 692 202 697 208 700 c 0
 214 703 221 706 230 707 c 2
 236 707 l 2
EndSplineSet
Validated: 1
EndChar

StartChar: question
Encoding: 63 63 41
Width: 600
GlyphClass: 2
Flags: HMW
HStem: -2 130<142.5 206.5 150 206.5> 650 60<326 339>
VStem: 109 132<37.5 90.5> 422 69<578.5 582>
LayerCount: 2
Fore
SplineSet
491 588 m 0
 491 569 488 548 483 525 c 0
 479 508 472 493 464 479 c 0
 456 465 447 453 437 443 c 0
 427 433 415 424 402 415 c 0
 389 406 376 396 362 387 c 0
 348 378 336 368 323 357 c 0
 310 346 299 333 287 318 c 0
 275 303 266 286 259 267 c 0
 253 252 245 240 236 232 c 0
 231 227 225 225 218 225 c 0
 216 225 212 227 207 227 c 0
 202 228 197 231 194 233 c 0
 189 237 187 242 187 249 c 0
 187 259 191 272 198 287 c 0
 206 304 216 320 228 335 c 0
 240 350 250 364 262 375 c 0
 274 386 287 397 300 407 c 0
 313 417 326 427 338 436 c 0
 350 445 362 454 373 464 c 0
 384 474 393 485 401 497 c 0
 409 509 415 522 418 535 c 0
 421 548 422 560 422 571 c 0
 422 593 416 610 404 623 c 0
 386 641 358 650 320 650 c 0
 310 650 300 648 289 643 c 0
 278 638 268 633 260 627 c 0
 252 621 243 613 233 604 c 0
 223 595 215 587 210 581 c 0
 205 575 198 567 190 558 c 0
 177 543 167 534 160 534 c 0
 159 534 156 533 155 533 c 0
 154 533 151 534 149 535 c 0
 147 536 142 538 137 540 c 0
 132 543 129 548 129 555 c 0
 129 564 134 576 145 592 c 0
 165 619 191 645 222 669 c 0
 238 681 256 691 276 699 c 0
 296 707 316 710 336 710 c 0
 399 710 443 695 468 664 c 0
 483 645 491 620 491 588 c 0
241 85 m 0
 241 80 240 74 239 68 c 0
 235 49 226 34 211 21 c 0
 196 8 178 0 158 -2 c 2
 150 -2 l 2
 135 -2 125 3 118 13 c 0
 112 22 109 32 109 43 c 0
 109 48 110 54 111 61 c 0
 116 79 126 94 143 107 c 0
 161 121 179 128 199 128 c 0
 214 128 226 123 233 113 c 0
 238 105 241 96 241 85 c 0
EndSplineSet
Validated: 1
EndChar

StartChar: at
Encoding: 64 64 42
Width: 600
GlyphClass: 2
Flags: HMW
HStem: -117 61<180 227.5 195 227.5> 114 53<393.5 424.5> 130 56<258.5 266.5> 394 52<327 356.5 327 356.5> 625 65<379.5 416 393 409>
VStem: 41 60<100 118.5> 172 53<198 229> 357 33 508 51<460 533.5>
LayerCount: 2
Fore
SplineSet
431 49 m 2xdf80
 431 47 429 42 427 36 c 0
 425 30 421 22 415 12 c 0
 410 3 405 -6 400 -13 c 0
 395 -20 389 -28 381 -38 c 0
 373 -48 365 -55 357 -62 c 0
 349 -69 340 -77 328 -84 c 0
 316 -91 304 -97 292 -102 c 0
 280 -107 265 -111 249 -113 c 0
 233 -115 217 -117 200 -117 c 2
 195 -117 l 2
 165 -117 138 -109 116 -93 c 0
 94 -77 76 -55 63 -26 c 0
 48 8 41 50 41 99 c 0
 41 138 45 180 56 225 c 0
 70 283 87 338 107 388 c 0
 127 438 148 481 171 518 c 0
 194 555 221 586 247 612 c 0
 273 638 300 658 327 671 c 0
 354 684 380 690 406 690 c 0
 426 690 444 689 459 686 c 0
 474 683 489 677 501 669 c 0
 513 661 523 652 531 640 c 0
 539 628 546 611 551 591 c 0
 556 571 559 547 559 520 c 0
 559 463 548 388 527 295 c 0
 516 248 500 206 479 171 c 0
 468 153 456 139 443 129 c 0
 430 119 416 114 402 114 c 0
 385 114 373 119 366 128 c 0
 360 136 357 148 357 163 c 0
 357 169 357 176 358 184 c 2
 367 251 l 1
 335 192 l 2
 313 150 284 130 249 130 c 0xbf80
 217 130 195 140 183 161 c 0
 176 173 172 188 172 208 c 0
 172 225 175 245 180 268 c 0
 185 291 193 312 203 333 c 0
 213 354 223 370 235 384 c 0
 247 398 260 410 273 420 c 0
 286 430 300 436 313 440 c 0
 326 444 338 446 349 446 c 0
 364 446 379 443 393 436 c 0
 404 431 412 425 417 417 c 0
 418 414 419 411 419 409 c 0
 419 407 418 405 417 403 c 0
 411 394 405 389 399 387 c 0
 394 386 389 385 386 385 c 0
 381 385 370 387 354 392 c 0
 347 393 341 394 337 394 c 2
 327 394 l 2
 317 393 307 389 297 383 c 0
 287 377 278 371 270 362 c 0
 262 353 254 343 247 329 c 0
 240 315 235 300 231 283 c 0
 227 266 225 252 225 241 c 2
 225 229 l 2
 225 217 229 207 235 199 c 0
 242 190 252 186 265 186 c 0
 288 186 307 195 322 215 c 0
 335 233 347 261 357 301 c 0
 358 307 366 313 379 318 c 0
 389 322 397 324 404 324 c 0
 408 324 412 323 414 322 c 2
 415 321 l 1
 415 321 414 319 414 317 c 0
 402 281 394 253 392 232 c 0
 391 222 390 213 390 205 c 0
 390 197 391 191 393 186 c 0
 395 179 400 174 405 171 c 0
 410 169 415 167 420 167 c 0xdf80
 429 167 438 173 446 186 c 0xbf80
 452 196 458 208 463 223 c 0
 472 248 479 272 484 293 c 0
 491 327 498 360 502 391 c 0
 506 422 508 449 508 471 c 0
 508 489 506 506 503 522 c 0
 500 538 497 552 493 563 c 0
 489 574 483 584 475 592 c 0
 467 600 460 607 453 611 c 0
 446 615 439 619 430 621 c 0
 421 623 414 625 409 625 c 2
 393 625 l 2
 366 625 339 617 312 599 c 0
 285 581 259 557 235 526 c 0
 211 495 189 457 169 413 c 0
 149 369 133 320 121 267 c 0
 108 208 101 156 101 112 c 0
 101 88 103 68 107 51 c 0
 113 27 122 6 133 -11 c 0
 144 -28 157 -39 171 -46 c 0
 185 -53 202 -56 219 -56 c 0
 236 -56 253 -54 268 -51 c 0
 283 -48 295 -43 306 -38 c 0
 317 -33 327 -26 338 -18 c 0
 349 -10 357 -1 363 6 c 0
 369 13 377 22 385 32 c 0
 390 39 394 44 398 48 c 0
 403 54 407 58 409 59 c 0
 411 59 413 61 415 62 c 0
 417 63 420 63 422 62 c 0
 424 61 427 59 428 58 c 0
 429 57 431 53 431 51 c 2
 431 49 l 2xdf80
415 321 m 1024
EndSplineSet
Validated: 1
EndChar

StartChar: A
Encoding: 65 65 43
Width: 600
GlyphClass: 2
Flags: HMW
HStem: 276 43<444 444 444 454>
VStem: 449 72<66 126> 454 57 468 62
LayerCount: 2
Fore
SplineSet
441 276 m 1xa0
 366 273 296 265 234 253 c 1
 201 196 167 131 132 58 c 0
 123 40 114 28 103 23 c 0
 98 21 92 19 88 19 c 0
 84 19 81 20 78 21 c 0
 75 22 72 25 71 28 c 0
 70 31 69 35 69 39 c 0
 69 49 74 63 82 81 c 0
 91 102 121 157 175 245 c 1
 173 256 170 258 168 252 c 1
 163 255 161 259 161 263 c 0
 161 264 162 266 162 268 c 0
 163 275 167 282 176 289 c 0
 185 296 196 301 207 305 c 1
 208 314 210 315 211 307 c 1
 320 499 401 627 454 691 c 0
 465 704 475 712 482 717 c 0
 489 722 496 725 502 725 c 2
 503 725 l 1
 507 725 l 2
 514 725 519 723 524 720 c 0
 528 718 530 712 530 705 c 2x90
 530 700 l 1
 523 617 519 500 515 348 c 0
 513 289 511 241 511 201 c 0xa0
 511 137 514 98 518 84 c 0
 520 78 521 72 521 68 c 0xc0
 521 64 520 60 519 56 c 0
 516 47 510 41 505 35 c 0
 500 29 494 24 487 22 c 0
 482 20 479 19 476 19 c 0
 472 19 467 20 464 22 c 0
 457 26 452 37 450 54 c 0
 450 62 449 81 449 111 c 0
 449 141 452 197 454 276 c 1
 450 285 446 285 441 276 c 1xa0
445 610 m 2
 408 565 352 470 277 324 c 1
 267 303 l 1
 289 306 l 2
 347 313 398 318 444 319 c 2
 456 320 l 1
 468 637 l 1
 445 610 l 2
EndSplineSet
Validated: 1
EndChar

StartChar: B
Encoding: 66 66 44
Width: 600
GlyphClass: 2
Flags: HMW
HStem: 310 47<276 280 280 281> 642 43<352 369 369 372>
VStem: 436 72<211 215.5 211 215.5> 478 62<533.5 538.5>
LayerCount: 2
Fore
SplineSet
506 201 m 2xd0
 501 177 490 153 473 130 c 0
 456 107 434 85 409 65 c 0
 385 45 355 28 321 14 c 0
 287 0 251 -10 212 -14 c 1
 205.8125 -19.0625 199.625 -21.59375 193.4375 -21.59375 c 2
 179 -17 l 1
 172.8125 -22.0625 166.94140625 -24.59375 161.03125 -24.59375 c 0
 156.43359375 -24.59375 151.8125 -23.0625 147 -20 c 0
 127 -22 113 -23 103 -23 c 0
 97 -23 91 -22 85 -21 c 2
 83 -21 l 1
 80 -21 l 2
 72 -21 66 -18 63 -13 c 0
 61 -11 60 -7 60 -2 c 0
 60 3 61 8 63 14 c 0
 72 42 85 95 102 174 c 0
 119 253 136 335 152 419 c 0
 161 463 168 493 171 508 c 0
 174 523 179 544 186 570 c 0
 191 579 195 597 200 623 c 0
 203 639 209 651 217 658 c 0
 225 665 233 669 242 669 c 2
 246 669 l 1
 247 669 l 2
 258 672 268 675 278 677 c 0
 297 681 314 684 331 684 c 0
 340 684 347 685 352 685 c 2
 369 685 l 1
 379 685 l 2
 416 685 448 678 475 662 c 0
 502 646 520 624 531 595 c 0
 537 578 540 561 540 541 c 0
 540 526 538 509 534 492 c 0
 526 455 511 423 489 397 c 0
 467 371 441 352 412 340 c 1
 403 329 395 325 386 329 c 1
 392.459960938 320.38671875 398.405273438 315.89453125 404.57421875 315.89453125 c 0
 407 315.89453125 409.459960938 316.588867188 412 318 c 0
 429 311 446 300 462 287 c 0
 478 274 490 259 499 242 c 0
 505 231 508 220 508 211 c 2xe0
 506 201 l 2xd0
266 629 m 2
 260 627 l 1
 242 553 230 501 223 470 c 0
 216 439 209 402 200 360 c 1
 235 358 264 357 288 357 c 0
 306 357 323 359 338 362 c 0
 353 365 367 369 378 375 c 0
 389 381 400 388 410 397 c 0
 420 406 429 414 436 423 c 0
 443 432 449 441 454 451 c 0
 459 461 463 471 466 479 c 0
 469 487 473 496 475 506 c 0
 477 516 478 525 478 534 c 0xd0
 478 543 477 550 476 557 c 0
 473 574 467 587 458 598 c 0
 449 609 439 617 426 624 c 0
 406 636 384 642 360 642 c 0
 329 642 297 638 266 629 c 2
404 261 m 0
 393 271 377 280 356 289 c 0
 335 298 310 305 281 310 c 1
 280 310 l 2
 238 310 209 308 190 308 c 1
 168 194 151 109 140 54 c 1
 157 55 173 56 188 56 c 0
 203 56 214 57 221 57 c 0
 248 58 274 64 300 74 c 0
 326 84 348 94 366 108 c 0
 384 122 399 137 411 152 c 0
 424 167 432 182 435 196 c 0
 435 199 436 203 436 206 c 0xe0
 436 225 425 243 404 261 c 0
EndSplineSet
Validated: 524289
EndChar

StartChar: C
Encoding: 67 67 45
Width: 600
GlyphClass: 2
Flags: HMW
HStem: -31 67<163 213 174 213> 654 59<426 430.5> 701 21G
VStem: 28 77<126.5 190.5>
LayerCount: 2
Fore
SplineSet
181 -31 m 2xd0
 174 -31 l 2
 152 -31 132 -27 113 -18 c 0
 94 -9 79 2 67 17 c 0
 55 32 46 49 39 70 c 0
 32 91 28 114 28 139 c 0
 28 159 30 179 35 200 c 0
 46 249 61 297 81 343 c 0
 101 389 122 432 146 469 c 0
 168 506 192 540 218 571 c 0
 244 602 270 627 295 648 c 0
 320 669 346 685 370 696 c 0
 394 707 416 713 436 713 c 0
 457 713 475 710 492 705 c 1
 495 711 499 710 502 701 c 1xb0
 504 712 506 716 507 711 c 1
 511 720 516 727 523 732 c 0
 530 737 536 740 543 740 c 2
 548 741 l 2
 553 741 558 739 563 735 c 0
 569 730 572 723 572 713 c 0
 572 697 570 678 566 656 c 0
 565 647 563 635 559 621 c 0
 555 607 552 598 552 596 c 0
 550 583 542 570 531 557 c 0
 520 544 511 537 504 537 c 2
 499 537 l 2
 492 537 486 539 481 544 c 0
 477 547 475 552 475 558 c 0
 475 559 476 562 476 565 c 0
 477 571 482 588 489 616 c 0
 488 623 486 625 484 621 c 1
 481 623 475 629 466 637 c 0
 464 639 460 642 455 645 c 0
 446 651 436 654 425 654 c 0
 405 654 382 647 358 632 c 0
 334 617 310 596 286 570 c 0
 262 544 237 514 215 481 c 0
 193 448 172 409 154 367 c 0
 134 325 120 281 111 239 c 0
 107 219 105 200 105 181 c 0
 105 169 106 157 108 145 c 0
 112 114 122 88 140 68 c 0
 157 47 178 36 203 36 c 0
 223 36 241 38 261 43 c 0
 281 48 298 54 314 62 c 0
 330 70 344 76 356 84 c 0
 368 92 379 100 390 109 c 0
 398 114 405 119 410 121 c 0
 415 123 420 125 425 125 c 0
 428 125 431 124 433 122 c 0
 437 117 439 113 439 108 c 0
 439 97 431 82 414 64 c 0
 354 1 277 -31 181 -31 c 2xd0
EndSplineSet
Validated: 1
EndChar

StartChar: D
Encoding: 68 68 46
Width: 600
GlyphClass: 2
Flags: HMW
HStem: -31 61<265.5 312 278 312> 712 21G<262 266 262 262>
VStem: 262 4<688 688 712 712> 481 65<341 379>
LayerCount: 2
Fore
SplineSet
266 712 m 1
 262 712 l 1
 263 726 265 732 266 730 c 2
 266 712 l 1
266 687 m 1
 277 686 290 683 303 680 c 0
 320 676 336 671 353 664 c 0
 370 657 387 647 406 635 c 0
 425 623 442 609 459 593 c 0
 476 577 490 557 504 533 c 0
 518 509 528 484 535 457 c 0
 542 430 546 398 546 363 c 0
 546 319 541 272 529 222 c 0
 523 200 515 176 504 153 c 0
 493 130 480 107 463 85 c 0
 446 63 429 43 410 26 c 0
 392 9 372 -6 351 -16 c 0
 330 -26 307 -31 286 -31 c 2
 278 -31 l 2
 253 -31 228 -29 203 -27 c 0
 178 -25 158 -21 142 -17 c 0
 126 -13 111 -9 98 -5 c 0
 85 -1 77 0 74 0 c 0
 66 0 60 3 57 8 c 0
 55 10 54 15 54 20 c 0
 54 25 55 30 57 36 c 0
 66 68 80 125 99 207 c 0
 118 289 135 377 154 472 c 0
 161 509 167 533 170 545 c 0
 173 557 177 575 183 600 c 0
 189 625 193 640 194 645 c 0
 197 660 203 672 211 679 c 0
 219 686 227 690 236 690 c 0
 244 690 253 689 262 688 c 1
 257 654 251 628 245 611 c 0
 224 525 205 433 188 338 c 0
 180 287 172 243 163 208 c 0
 151 151 142 104 135 69 c 0
 137 60 141 58 143 65 c 1
 166 52 190 43 215 38 c 0
 240 33 270 30 303 30 c 0
 321 30 339 36 357 50 c 0
 375 64 391 81 405 102 c 0
 419 123 431 145 443 169 c 0
 455 193 464 218 469 241 c 0
 477 275 481 307 481 337 c 0
 481 421 452 489 392 540 c 0
 367 562 328 586 277 611 c 1
 277 616 l 1
 274 616 l 1
 274 617 l 1
 272 617 l 1
 272 618 l 1
 270 618 l 1
 270 619 l 1
 266 619 l 1
 266 687 l 1
EndSplineSet
Validated: 1
EndChar

StartChar: E
Encoding: 69 69 47
Width: 600
GlyphClass: 2
Flags: HMW
HStem: -20 63<103 183.5> -6 66<372.5 419 379 419> 312 62<160 198> 332 57<451.5 481> 615 59<404 425.5 380 432>
VStem: 25 77<27.5 74.5>
LayerCount: 2
Fore
SplineSet
391 -6 m 2x4c
 379 -6 l 2
 366 -6 345 -7 314 -9 c 0
 219 -16 151 -20 113 -20 c 0xac
 93 -20 79 -19 66 -18 c 0
 55 -18 46 -11 37 0 c 0
 30 9 25 21 25 34 c 0
 25 47 32 81 45 136 c 0
 55 180 66 228 79 279 c 0
 92 330 103 388 116 451 c 0
 124 491 130 517 133 530 c 0
 136 543 141 562 148 587 c 0
 155 612 158 627 159 634 c 0
 163 649 169 660 177 668 c 0
 185 676 194 680 203 680 c 1
 204 672 206 672 207 680 c 0
 211 680 214 679 217 678 c 0
 220 677 223 674 224 670 c 0
 225 659 227 656 228 661 c 1
 230 654 233 654 235 663 c 1
 283 670 344 674 416 674 c 0
 435 674 451 673 468 673 c 0
 504 672 532 669 553 667 c 0
 564 665 571 662 573 659 c 0
 573 658 574 655 574 653 c 0
 574 651 573 647 573 643 c 0
 573 639 571 634 569 630 c 0
 564 621 559 614 552 612 c 0
 549 610 546 609 544 609 c 0
 542 609 540 610 538 610 c 0
 495 613 453 615 411 615 c 0
 397 615 382 614 367 614 c 0
 312 613 265 609 223 602 c 1
 221 593 217 593 215 601 c 1
 195 526 179 450 163 373 c 1
 168 366 172 366 177 374 c 1
 219 374 278 376 351 381 c 0
 425 386 466 389 476 389 c 0x1c
 486 389 492 386 494 384 c 0
 496 380 496 374 495 366 c 0
 493 355 488 346 483 341 c 0
 477 335 468 332 457 332 c 0
 446 332 400 329 321 322 c 0
 242 315 189 312 160 312 c 1xac
 157 303 152 303 150 311 c 1
 140 267 132 225 123 184 c 0
 109 122 102 82 102 67 c 0
 102 63 103 57 103 50 c 0
 105 41 108 41 110 48 c 1
 115 46 122 44 132 44 c 0
 141 44 155 43 174 43 c 0
 193 43 219 44 251 45 c 0
 326 49 376 53 399 58 c 0
 407 59 413 60 417 60 c 0
 421 60 425 59 427 58 c 0
 429 57 431 55 432 54 c 0
 433 53 434 50 434 47 c 0
 434 44 435 41 435 39 c 0
 435 37 434 33 434 31 c 0
 432 20 427 11 419 3 c 0
 414 -4 406 -7 397 -7 c 0
 395 -7 393 -6 391 -6 c 2x4c
EndSplineSet
Validated: 1
EndChar

StartChar: F
Encoding: 70 70 48
Width: 600
GlyphClass: 2
Flags: HMW
HStem: 323 60<263 276> 619 63
LayerCount: 2
Fore
SplineSet
560 677 m 0
 571 676 577 673 578 671 c 0
 580 668 581 662 580 654 c 0
 578 645 572 636 565 629 c 0
 559 622 551 619 540 619 c 2
 538 619 l 2
 505 621 471 622 436 622 c 0
 371 622 299 618 220 611 c 1
 204 544 193 498 187 472 c 0
 181 446 174 414 166 376 c 1
 171 369 177 369 182 378 c 1
 207 381 234 383 263 383 c 2
 284 383 l 2
 321 382 354 379 384 376 c 0
 414 373 437 370 454 367 c 0
 460 366 464 363 467 362 c 0
 470 361 473 359 473 359 c 2
 474 357 475 354 475 350 c 2
 475 344 l 2
 473 335 468 326 462 319 c 0
 458 313 451 310 442 310 c 2
 440 310 l 2
 423 313 397 317 365 319 c 0
 333 321 296 323 256 323 c 0
 218 323 187 320 161 316 c 1
 159 307 156 307 154 315 c 1
 134 207 114 107 94 15 c 0
 90 4 83 -5 73 -12 c 0
 63 -19 53 -22 43 -22 c 0
 42 -22 40 -21 40 -21 c 2
 32 -21 26 -18 23 -13 c 0
 21 -11 20 -7 20 -2 c 0
 20 3 21 8 23 14 c 0
 32 43 44 100 63 183 c 0
 82 266 100 352 117 440 c 0
 126 484 133 515 136 530 c 0
 139 545 143 565 150 591 c 0
 155 601 160 619 165 645 c 0
 168 660 174 672 182 679 c 0
 190 686 199 690 208 690 c 2
 212 690 l 2
 217 690 220 689 223 688 c 0
 226 687 229 684 230 680 c 0
 230 669 232 667 233 672 c 1
 309 679 380 682 446 682 c 0
 491 682 529 680 560 677 c 0
EndSplineSet
Validated: 1
EndChar

StartChar: G
Encoding: 71 71 49
Width: 600
GlyphClass: 2
Flags: HMW
HStem: -31 67<164 213 175 213> 289 59<425.5 466> 666 58<430.5 434.5>
VStem: 29 78<126.5 190.5>
LayerCount: 2
Fore
SplineSet
551 687 m 0
 559 682 564 677 566 674 c 0
 569 669 570 664 570 658 c 0
 570 650 568 640 562 629 c 0
 560 623 553 618 546 615 c 0
 542 614 539 613 537 613 c 0
 535 613 531 615 527 615 c 0
 524 616 517 621 506 630 c 0
 495 639 482 647 468 654 c 0
 454 662 441 666 428 666 c 0
 408 666 386 658 362 643 c 0
 338 628 314 607 289 580 c 0
 264 553 239 522 217 487 c 0
 195 452 174 413 156 370 c 0
 136 327 121 283 112 239 c 0
 108 219 107 200 107 181 c 0
 107 169 107 157 109 145 c 0
 113 114 125 89 142 68 c 0
 160 47 180 36 205 36 c 0
 221 36 237 42 255 54 c 0
 273 66 291 80 306 97 c 0
 321 114 336 132 351 153 c 0
 366 174 379 195 390 215 c 0
 401 235 411 253 418 270 c 0
 420 275 423 281 425 289 c 1
 418 287 412 287 406 288 c 0
 369 286 333 282 296 276 c 0
 259 270 233 263 217 254 c 0
 214 252 211 250 209 250 c 0
 207 250 205 251 203 253 c 0
 199 257 196 262 196 268 c 2
 196 270 l 2
 197 291 210 308 235 320 c 0
 252 329 288 337 341 342 c 0
 381 346 413 348 438 348 c 0
 464 348 479 347 485 345 c 2
 491 341 l 2
 493 339 495 336 495 331 c 2
 495 328 l 2
 494 318 491 310 487 304 c 0
 483 298 478 293 471 291 c 0
 469 289 467 289 465 289 c 0
 464 282 462 275 459 266 c 0
 456 257 454 249 453 244 c 0
 448 230 441 214 432 195 c 0
 423 176 411 157 397 136 c 0
 383 115 368 94 350 74 c 0
 332 54 314 36 295 20 c 0
 276 4 257 -9 236 -18 c 0
 215 -27 196 -31 177 -31 c 2
 175 -31 l 2
 153 -31 133 -27 114 -18 c 0
 95 -9 81 2 69 17 c 0
 57 32 48 49 41 70 c 0
 34 91 29 114 29 139 c 0
 29 159 32 179 37 200 c 0
 49 251 64 300 84 347 c 0
 104 394 125 437 149 475 c 0
 171 513 195 548 221 580 c 0
 247 612 272 638 298 659 c 0
 324 680 349 696 373 707 c 0
 397 718 420 724 441 724 c 0
 463 724 490 718 517 705 c 0
 532 698 543 692 551 687 c 0
EndSplineSet
Validated: 1
EndChar

StartChar: H
Encoding: 72 72 50
Width: 600
GlyphClass: 2
Flags: HMW
HStem: 312 62<169 211.5 169 211.5>
LayerCount: 2
Fore
SplineSet
169 312 m 1
 167 304 165 297 164 293 c 0
 163 289 161 285 161 282 c 0
 142 215 122 126 100 15 c 0
 96 4 89 -5 79 -12 c 0
 69 -19 58 -22 49 -22 c 0
 48 -22 46 -21 46 -21 c 2
 39 -21 33 -18 29 -13 c 0
 27 -11 26 -7 26 -2 c 0
 26 3 27 8 29 14 c 0
 34 31 45 76 62 148 c 0
 71 186 85 248 107 334 c 0
 118 376 126 407 131 428 c 0
 136 449 142 479 151 520 c 0
 158 554 163 573 163 577 c 0
 165 586 167 597 171 612 c 0
 175 627 177 638 179 645 c 0
 183 660 190 672 198 679 c 0
 206 686 215 690 224 690 c 1
 224 682 226 682 226 690 c 1
 234 690 240 688 244 683 c 0
 246 680 248 675 248 670 c 0
 248 665 247 659 246 653 c 0
 245 647 240 633 234 611 c 0
 228 589 223 569 219 550 c 0
 215 531 210 506 203 470 c 0
 196 434 190 402 183 373 c 1
 188 366 191 366 196 374 c 1
 227 374 259 375 292 379 c 0
 325 383 354 388 381 392 c 0
 408 396 429 399 444 400 c 1
 446 411 448 421 449 430 c 0
 450 439 453 445 454 450 c 0
 460 470 465 497 471 533 c 0
 474 546 480 566 487 594 c 0
 494 622 500 639 501 645 c 0
 505 660 511 672 520 679 c 0
 529 686 537 690 546 690 c 1
 546 682 548 682 549 690 c 1
 558 690 565 688 569 683 c 0
 571 680 573 675 573 670 c 0
 573 665 572 657 570 648 c 0
 568 639 562 616 552 576 c 0
 542 536 534 502 527 472 c 0
 520 442 511 399 499 343 c 0
 490 297 475 236 455 161 c 0
 436 85 425 36 420 15 c 0
 417 4 410 -5 401 -12 c 0
 392 -19 383 -22 374 -22 c 0
 373 -22 371 -21 371 -21 c 2
 364 -21 358 -18 355 -13 c 0
 354 -11 352 -7 352 -2 c 0
 352 3 353 8 355 14 c 0
 381 107 405 211 429 327 c 1
 429 325 432 330 433 343 c 1
 428 334 423 334 418 342 c 1
 408 342 371 337 309 327 c 0
 247 317 201 312 176 312 c 2
 169 312 l 1
EndSplineSet
Validated: 1
EndChar

StartChar: I
Encoding: 73 73 51
Width: 600
GlyphClass: 2
Flags: HMW
HStem: -14 56<40 63> -6 53<292.501 294.5 270 309.501> 625 59<205.5 207 207 212 205.5 250>
LayerCount: 2
Fore
SplineSet
333 -7 m 0x60
 329 -7 318.000976562 -6 301.000976562 -6 c 0
 284.000976562 -6 262.000976562 -7 233.000976562 -8 c 1
 212.256835938 -13.333984375 191.512695312 -16.208984375 170.768554688 -16.208984375 c 2
 128 -12 l 1
 88 -13 61 -14 47 -14 c 0xa0
 33 -14 25 -12 21 -8 c 0
 19 -6 18 -2 18 1 c 0
 18 3 19 6 19 8 c 0
 20 17 24 26 31 32 c 0
 38 38 50 42 63 42 c 0
 90 43 137 45 205 47 c 1x60
 237 166 265 290 290 418 c 0
 296 448 299 465 299 470 c 0
 301 481 306 501 313 532 c 0
 315 541 318 555 323 575 c 0
 328 595 333 607 333 610 c 1
 333 607 335 611 336 624 c 1
 300 624 271 625 250 625 c 2
 207 625 l 2
 199 625 193 624 193 624 c 2
 183 624 176 626 173 631 c 0
 171 633 170 637 170 642 c 2
 170 649 l 2
 171 658 176 666 183 673 c 0
 190 680 199 684 212 684 c 0
 261 685 306 686 348 686 c 0
 431 686 501 683 559 676 c 0
 567 676 573 673 577 670 c 0
 581 667 583 663 583 657 c 0
 583 655 582 652 582 650 c 0
 580 641 574 631 566 622 c 0
 563 618 559 615 554 613 c 0
 551 612 548 611 546 611 c 0
 544 611 543 612 541 612 c 0
 524 614 476 618 399 623 c 1
 394 596 390 578 386 568 c 0
 370 504 355 436 342 365 c 0
 333 318 320 258 303 188 c 0
 286 118 275 71 270 47 c 1
 283 47 l 2
 306 47 353 46 422 46 c 0
 431 46 438 44 439 42 c 0xa0
 440 40 441 36 441 31 c 2
 441 23 l 2
 439 13 434 5 429 -2 c 0
 427 -6 424 -8 421 -9 c 0
 418 -10 415 -12 413 -12 c 0
 411 -12 408 -11 406 -11 c 0
 391 -9 368 -7 333 -7 c 0x60
EndSplineSet
Validated: 524289
EndChar

StartChar: J
Encoding: 74 74 52
Width: 600
GlyphClass: 2
Flags: HMW
HStem: -35 77<189 196.5> 611 65<530 548> 625 59<193 197 197 199 193 255>
VStem: 32 63<150 170.5 159.5 161.5>
LayerCount: 2
Fore
SplineSet
220 52 m 0xb0
 226 59 232 69 239 83 c 0
 252 112 267 159 282 224 c 0
 285 237 296 284 312 366 c 0
 328 445 345 531 366 623 c 1
 319 625 283 625 255 625 c 2
 197 625 l 2
 186 625 181 624 181 624 c 2
 171 624 164 626 161 631 c 0
 159 633 156 637 156 642 c 0
 156 644 157 647 157 649 c 0
 158 658 163 666 170 673 c 0
 177 680 187 684 199 684 c 0
 248 685 293 686 334 686 c 0
 416 686 486 683 544 676 c 0xd0
 552 676 558 673 562 670 c 0
 566 667 567 663 567 657 c 0
 567 655 566 652 566 650 c 0
 564 641 559 631 551 622 c 0
 547 618 544 615 539 613 c 0
 537 612 533 611 531 611 c 0
 529 611 526 612 524 612 c 0
 503 615 469 619 418 621 c 1
 412 595 405 563 398 523 c 0
 392 479 385 443 378 416 c 0
 372 384 365 349 357 309 c 0
 349 269 341 235 333 206 c 0
 316 146 298 98 281 62 c 0
 264 26 249 0 234 -14 c 0
 219 -28 204 -35 189 -35 c 0
 171 -35 153 -31 137 -24 c 0
 120 -17 106 -7 95 5 c 0
 84 17 74 31 65 46 c 0
 56 61 50 76 45 91 c 0
 40 106 36 118 35 129 c 0
 34 140 32 146 32 150 c 2
 32 159 l 2
 32 164 34 170 36 177 c 0
 38 184 41 191 44 197 c 0
 47 203 51 209 57 213 c 0
 63 217 70 221 77 222 c 0
 80 222 83 223 85 223 c 0
 90 223 94 221 96 218 c 0
 98 215 100 210 100 205 c 0
 100 203 99 199 99 196 c 0
 97 187 95 176 95 165 c 0
 95 154 97 142 100 128 c 0
 103 114 108 100 115 87 c 0
 122 74 134 64 149 55 c 0
 163 46 179 42 199 42 c 0
 206 42 214 45 220 52 c 0xb0
EndSplineSet
Validated: 1
EndChar

StartChar: K
Encoding: 75 75 53
Width: 600
GlyphClass: 2
Flags: HMW
HStem: -22 21G<60.5 66> 695 20G<546.999 549.999>
LayerCount: 2
Fore
SplineSet
38 10 m 0
 38 13 38.9990234375 18 40.9990234375 23 c 0
 49.9990234375 53 62.9990234375 110 81.9990234375 193 c 0
 99.9990234375 277 116.999023438 363 134.999023438 452 c 0
 143.999023438 496 150.999023438 526 153.999023438 541 c 0
 155.999023438 556 161.999023438 578 168.999023438 607 c 0
 175.999023438 635 180.999023438 653 181.999023438 660 c 0
 185.999023438 678 191.999023438 691 199.999023438 700 c 0
 207.999023438 709 215.999023438 714 224.999023438 714 c 1
 225.999023438 722 227.999023438 722 227.999023438 714 c 1
 235.999023438 714 241.999023438 711 245.999023438 703 c 0
 247.999023438 698 248.999023438 692 248.999023438 683 c 0
 248.999023438 678 247.999023438 674 246.999023438 669 c 0
 243.999023438 653 235.999023438 618 222.999023438 564 c 0
 209.999023438 509 196.999023438 452 183.999023438 391 c 1
 325.999023438 530 l 2
 366.999023438 573 406.999023438 611 448.999023438 642 c 0
 481.999023438 670 502.999023438 688 511.999023438 695 c 0
 520.999023438 704 529.999023438 710 536.999023438 712 c 0
 541.999023438 714 545.999023438 715 547.999023438 715 c 0
 551.999023438 715 555.999023438 711 558.999023438 703 c 0
 560.999023438 698 561.999023438 692 561.999023438 685 c 0
 561.999023438 676 552.999023438 665 535.999023438 651 c 0
 523.999023438 639 483.999023438 603 414.999023438 542 c 1
 350.999023438 478 290.999023438 419 235.999023438 366 c 1
 240.999023438 357 l 2
 254.999023438 334 279.999023438 296 315.999023438 245 c 0
 351.999023438 191 381.999023438 145 406.999023438 106 c 0
 431.977539062 71.0302734375 446.978515625 48.0400390625 449 39.0234375 c 0
 448.884765625 28.3505859375 446.852539062 17.7333984375 442 9 c 0
 438 0 433 -8 426 -13 c 0
 419 -18 414 -21 409 -21 c 0
 401 -21 394 -13 388 4 c 0
 384 13 368 36 341 73 c 0
 314 110 285 152 254 196 c 0
 223 245 201 283 188 310 c 2
 174 337 l 1
 163 286 l 1
 112 24 l 2
 108 9 101 -2 91 -10 c 0
 81 -18 71 -22 61 -22 c 0
 60 -22 58 -21 58 -21 c 2
 50 -21 44 -17 41 -8 c 0
 39 -3 38 3 38 10 c 0
EndSplineSet
Validated: 524289
EndChar

StartChar: L
Encoding: 76 76 54
Width: 600
GlyphClass: 2
Flags: HMW
HStem: -15 62.9962
LayerCount: 2
Fore
SplineSet
507 72 m 0
 510 63 510.999023438 54 509.999023438 44 c 0
 507.999023438 35 502.999023438 27 497.999023438 22 c 0
 492.999023438 17 482.999023438 12 468.999023438 10 c 0
 425.999023438 1 365.999023438 -5 288.999023438 -9 c 0
 209.999023438 -13 149.999023438 -15 109.999023438 -15 c 0
 101.999023438 -15 95.9990234375 -12 92.9990234375 -7 c 0
 90.9990234375 -5 89.9990234375 -1 89.9990234375 4 c 0
 89.9990234375 9 90.9990234375 14 92.9990234375 20 c 0
 105.999023438 51 117.999023438 89 130.999023438 135 c 0
 153.999023438 206 174.999023438 275 192.999023438 341 c 0
 201.999023438 372 213.999023438 427 228.999023438 506 c 0
 243.999023438 585 251.999023438 629 252.999023438 636 c 0
 256.999023438 652 262.999023438 664 270.999023438 671 c 0
 278.999023438 678 286.999023438 682 294.999023438 682 c 1
 295.999023438 674 297.999023438 674 297.999023438 682 c 1
 304.999023438 682 310.999023438 679 314.999023438 674 c 0
 316.999023438 672 317.999023438 668 317.999023438 662 c 0
 317.999023438 656 316.999023438 650 315.999023438 645 c 0
 311.999023438 626 306.999023438 600 298.999023438 567 c 0
 289.999023438 517 279.999023438 475 269.999023438 441 c 0
 258.999023438 389 248.999023438 345 238.999023438 309 c 0
 232.999023438 281 222.999023438 240 207.999023438 187 c 0
 191.999023438 134 180.999023438 92 173.999023438 62 c 0
 173.411132812 54.35546875 172.477539062 49.8232421875 171.604492188 47.99609375 c 1
 185.645507812 47.9287109375 194.180664062 47 199 47 c 0
 243 47 295 51 355 58 c 0
 419 65 465 72 490 78 c 1
 497 78 l 2
 502 78 505 76 507 72 c 0
EndSplineSet
Validated: 524289
EndChar

StartChar: M
Encoding: 77 77 55
Width: 600
GlyphClass: 2
Flags: HMW
HStem: 664 20G
VStem: 41 1<-14.5 -10> 418 62<39 84 51.5 71>
LayerCount: 2
Fore
SplineSet
238 -7 m 1
 231 -7 226 -5 223 -1 c 0
 220 4 217 11 217 19 c 0
 217 51 222 124 231 239 c 0
 240 354 248 464 257 570 c 0
 259 610 264 648 267 684 c 1
 257 651 246 616 235 578 c 0
 220 529 205 470 187 403 c 0
 177 364 164 316 148 257 c 0
 139 224 130 194 122 167 c 0
 112 137 104 113 99 95 c 0
 94 78 89 65 88 58 c 0
 84 37 77 20 67 8 c 0
 58 -4 51 -10 42 -10 c 1
 42 -19 41 -19 41 -10 c 1
 40 -10 38 -8 37 -7 c 0
 33 -5 30 6 30 25 c 0
 30 33 33 44 36 58 c 0
 38 66 41 79 47 98 c 0
 53 118 62 144 73 178 c 0
 84 214 94 241 99 260 c 2
 146 412 l 2
 154 441 163 477 176 519 c 0
 200 601 218 649 229 666 c 0
 236 679 244 689 255 695 c 0
 266 701 276 704 284 704 c 2
 288 704 l 1
 289 704 l 2
 298 704 305 702 310 697 c 0
 315 691 316 681 316 667 c 2
 316 659 l 2
 316 606 305 483 283 291 c 0
 273 198 267 137 265 107 c 1
 272 97 280 95 287 102 c 1
 313 201 337 289 360 368 c 0
 377 425 396 482 417 539 c 0
 438 595 454 638 468 668 c 0
 472 678 478 686 485 692 c 0
 493 698 500 702 506 703 c 0
 512 703 518 704 521 704 c 2
 529 704 l 1
 533 704 l 1
 545 704 l 2
 547 704 552 703 556 702 c 0
 560 700 563 697 564 695 c 0
 565 693 566 689 567 683 c 0
 568 679 569 674 569 668 c 2
 569 665 l 2
 567 644 552 546 523 370 c 0
 495 195 480 96 480 72 c 0
 480 31 469 6 449 -4 c 0
 445 -6 442 -7 439 -7 c 0
 436 -7 431 -5 428 -2 c 0
 421 3 418 17 418 39 c 2
 418 44 l 2
 418 98 451 294 516 632 c 1
 509 642 500 644 492 639 c 1
 452 537 422 446 400 363 c 0
 378 286 356 212 333 143 c 0
 310 74 295 32 287 17 c 0
 280 1 264 -7 242 -7 c 1
 241 -15 239 -15 238 -7 c 1
EndSplineSet
Validated: 1
EndChar

StartChar: N
Encoding: 78 78 56
Width: 600
GlyphClass: 2
Flags: HMW
HStem: -12 21G<36 42.5> 685 20G<220.5 223.5 550.5 557.5>
LayerCount: 2
Fore
SplineSet
467 190 m 0
 453 133 442 90 434 63 c 0
 425 35 419 18 416 11 c 0
 409 -6 395 -14 373 -14 c 1
 372 -22 370 -22 369 -14 c 1
 362 -14 357 -12 354 -7 c 0
 350 -2 347 5 347 13 c 0
 345 26 338 56 325 101 c 2
 286 246 l 2
 273 295 259 349 246 410 c 0
 233 471 225 523 221 565 c 0
 219 595 215 624 213 653 c 1
 208 626 203 597 198 567 c 0
 186 494 173 425 159 362 c 0
 144 298 128 233 111 167 c 0
 94 103 84 63 82 49 c 0
 79 27 72 11 63 2 c 0
 55 -7 47 -12 38 -12 c 0
 34 -12 31 -10 29 -8 c 0
 27 -6 25 3 25 17 c 0
 25 25 27 35 30 48 c 0
 32 62 46 114 68 204 c 2
 127 443 l 2
 143 512 157 578 168 640 c 0
 170 653 173 664 178 673 c 0
 182 683 187 690 193 695 c 0
 200 699 205 702 210 703 c 0
 215 704 219 705 222 705 c 0
 225 705 229 704 231 704 c 0
 240 704 247 702 252 697 c 0
 256 692 259 682 259 668 c 0
 261 625 278 543 308 422 c 0
 337 301 363 204 385 130 c 0
 389 115 393 102 397 92 c 1
 400 103 404 116 407 132 c 0
 422 195 443 288 468 409 c 0
 495 530 510 609 514 649 c 0
 516 664 521 677 529 688 c 0
 538 699 546 705 555 705 c 0
 560 705 565 704 567 703 c 0
 569 702 572 700 573 698 c 0
 574 693 575 685 575 673 c 0
 575 671 574 664 573 654 c 0
 573 643 561 590 539 495 c 0
 518 397 494 295 467 190 c 0
EndSplineSet
Validated: 1
EndChar

StartChar: O
Encoding: 79 79 57
Width: 600
GlyphClass: 2
Flags: HMW
HStem: -24 72<205 206> 649 44<379 380.5>
VStem: 64 70<138.5 181.5> 471 65<517 533 517 534>
LayerCount: 2
Fore
SplineSet
511 367 m 0
 503 329 493 291 482 252 c 0
 471 213 460 183 449 161 c 0
 435 130 420 104 404 82 c 0
 389 61 373 43 358 29 c 0
 343 15 327 5 309 -3 c 0
 291 -11 273 -17 255 -20 c 0
 237 -23 217 -24 195 -24 c 0
 162 -24 133 -12 111 10 c 0
 89 32 74 62 67 101 c 0
 65 116 64 131 64 146 c 0
 64 161 68 189 75 231 c 0
 76 234 78 240 79 248 c 0
 86 278 91 302 96 320 c 0
 101 338 107 362 116 392 c 0
 133 448 155 501 184 551 c 0
 206 593 236 627 276 653 c 0
 316 679 358 693 400 693 c 0
 421 693 441 688 460 679 c 0
 479 670 494 657 507 639 c 0
 520 621 528 598 533 570 c 0
 535 556 536 541 536 525 c 0
 536 509 534 492 532 473 c 0
 527 440 519 405 511 367 c 0
260 55 m 0
 276 60 292 67 308 77 c 0
 324 87 338 101 352 118 c 0
 366 135 378 154 389 176 c 0
 394 184 401 204 410 237 c 0
 419 269 430 307 441 351 c 0
 452 395 461 439 468 481 c 0
 470 494 471 507 471 519 c 0
 471 549 466 576 453 598 c 0
 442 617 429 630 413 639 c 0
 402 646 388 649 373 649 c 0
 340 649 309 635 281 606 c 0
 254 579 231 541 211 492 c 0
 184 428 162 352 145 265 c 0
 138 225 134 194 134 169 c 0
 134 140 138 116 145 97 c 0
 150 83 159 71 171 62 c 0
 183 53 197 48 213 48 c 0
 229 48 244 50 260 55 c 0
EndSplineSet
Validated: 1
EndChar

StartChar: P
Encoding: 80 80 58
Width: 600
GlyphClass: 2
Flags: HMW
HStem: 230 69<254.5 277.5 252.5 290.5> 642 45<356 401.5>
VStem: 188 3 484 62<538.5 539.5>
LayerCount: 2
Fore
SplineSet
249 633 m 1
 245 614 239 587 230 551 c 0
 221 515 212 478 204 440 c 0
 196 402 187 361 178 319 c 1
 187 315 l 2
 209 304 236 299 269 299 c 0
 286 299 301 301 316 304 c 0
 331 307 344 311 356 316 c 0
 368 321 378 328 388 336 c 0
 398 344 408 352 415 360 c 0
 422 368 429 378 436 389 c 0
 443 400 448 409 452 418 c 0
 456 427 460 437 464 448 c 0
 468 459 472 469 474 476 c 0
 476 483 479 493 481 504 c 0
 483 515 484 526 484 535 c 0
 484 544 484 551 483 558 c 0
 480 575 473 588 464 599 c 0
 455 610 446 618 433 625 c 0
 422 632 410 637 399 639 c 0
 388 641 377 642 366 642 c 0
 346 642 308 639 249 633 c 1
87 141 m 0
 94 163 100.000976562 193 106.000976562 231 c 0
 113.000976562 258 121.000976562 294 128.000976562 337 c 0
 137.000976562 379 143.000976562 414 149.000976562 442 c 0
 159.786132812 490.04296875 173.455078125 547.69921875 190.0078125 614.96875 c 0
 189.359375 615.579101562 188.536132812 618.640625 188 624 c 1
 187 617 185 619 185 628 c 0
 185 630 184 632 184 634 c 0
 184 636 185 640 186 642 c 0
 188 649 191 655 196 660 c 0
 201 665 206 668 210 669 c 0
 231 674 261 679 301 682 c 0
 341 685 368 687 383 687 c 0
 420 687 454 680 481 665 c 0
 508 650 527 627 538 598 c 0
 544 581 546 563 546 543 c 0
 546 534 545 516 541 489 c 0
 532 453 519 420 500 388 c 0
 481 356 461 328 437 305 c 0
 415 282 389 263 361 250 c 0
 333 237 305 230 276 230 c 0
 233 230 199 233 177 240 c 1
 172 233 169 235 165 244 c 1
 158 207 153 176 149 151 c 0
 145 126 138 81 127 14 c 0
 125 4 118 -4 108 -10 c 0
 98 -16 89 -19 79 -19 c 0
 69 -19 62 -16 57 -11 c 0
 55 -9 53 -5 53 -1 c 0
 53 3 55 7 57 14 c 0
 64 42 74 84 87 141 c 0
EndSplineSet
Validated: 524289
EndChar

StartChar: Q
Encoding: 81 81 59
Width: 600
GlyphClass: 2
Flags: HMW
HStem: -39 20G -24 72 649 44
VStem: 66 71 238 46<146.5 196.5> 469 65
LayerCount: 2
Fore
SplineSet
242 48 m 1x7c
 256 48 l 1
 253 63 l 2
 246 92 241 115 239 132 c 0
 239 138 238 144 238 149 c 0
 238 174 245 193 260 204 c 0
 265 208 270 210 274 210 c 0
 276 210 277 210 279 208 c 0
 281 206 284 200 284 193 c 0
 286 160 295 123 307 82 c 2
 311 67 l 1
 322 75 l 2
 352 96 377 129 394 173 c 0
 399 183 405 203 413 234 c 0
 422 265 431 303 442 349 c 0
 453 395 461 439 466 481 c 0
 468 494 469 507 469 519 c 0
 469 552 463 579 450 601 c 0
 440 618 428 631 412 639 c 0
 401 646 387 649 372 649 c 0
 339 649 308 635 280 608 c 0
 252 581 230 543 210 494 c 0
 179 423 157 347 144 264 c 0
 140 240 137 218 137 197 c 0
 137 184 139 171 141 158 c 0
 146 125 155 99 171 79 c 0
 188 58 208 48 233 48 c 2
 242 48 l 1x7c
351 -211 m 0
 344 -209 339.000976562 -203.999023438 336.000976562 -194.999023438 c 0
 331.000976562 -182.999023438 322.000976562 -159.999023438 310.000976562 -127.999023438 c 0
 298.000976562 -95.9990234375 286.000976562 -59.9990234375 273.000976562 -18.9990234375 c 1xbc
 271.000976562 -27.9990234375 266.000976562 -27.9990234375 263.000976562 -20.9990234375 c 1
 248.000976562 -22.9990234375 232.000976562 -23.9990234375 215.000976562 -23.9990234375 c 0
 192.000976562 -23.9990234375 171.000976562 -19.9990234375 151.000976562 -10.9990234375 c 0
 131.000976562 -1.9990234375 116.000976562 10.0009765625 104.000976562 25.0009765625 c 0
 92.0009765625 40.0009765625 82.0009765625 60.0009765625 75.0009765625 81.0009765625 c 0
 68.0009765625 102.000976562 66.0009765625 126.000976562 66.0009765625 152.000976562 c 0
 66.0009765625 178.000976562 68.0009765625 205.000976562 73.0009765625 232.000976562 c 0
 98.0009765625 360.000976562 136.000976562 465.000976562 183.000976562 547.000976562 c 0
 205.000976562 589.000976562 236.000976562 623.000976562 276.000976562 651.000976562 c 0
 316.000976562 679.000976562 357.000976562 693.000976562 399.000976562 693.000976562 c 0
 444.000976562 693.000976562 479.000976562 677.000976562 504.000976562 644.000976562 c 0
 517.000976562 627.000976562 525.000976562 605.000976562 530.000976562 576.000976562 c 0
 532.000976562 561.000976562 534.000976562 545.000976562 534.000976562 528.000976562 c 0
 534.000976562 511.000976562 532.000976562 493.000976562 530.000976562 473.000976562 c 0
 524.000976562 427.000976562 513.000976562 372.000976562 497.000976562 307.000976562 c 0
 481.000976562 242.000976562 464.000976562 191.000976562 449.000976562 155.000976562 c 0
 421.000976562 86.0009765625 384.000976562 36.0009765625 337.000976562 7.0009765625 c 1
 334.427734375 -1.5751953125 331.119140625 -4.267578125 328.967773438 -0.4453125 c 1
 345.645507812 -42.5927734375 362.341796875 -83.77734375 380 -124 c 0
 385 -144 391 -155 396 -158 c 0
 396 -160 397 -163 397 -165 c 0
 397 -167 397 -170 396 -173 c 0
 394 -180 389 -187 384 -193 c 0
 379 -199 376 -205 372 -207 c 0
 367 -210 362 -212 357 -212 c 0
 355 -212 353 -211 351 -211 c 0
EndSplineSet
Validated: 524289
EndChar

StartChar: R
Encoding: 82 82 60
Width: 600
GlyphClass: 2
Flags: HMW
VStem: 75 1<-21 -19> 255 3 258 4<682 682> 484 64<459.5 483>
LayerCount: 2
Fore
SplineSet
412 -17 m 0xd0
 406 -15 401 -9 397 0 c 0
 390 15 381 32 368 53 c 0
 355 74 340 97 321 122 c 0
 302 147 281 172 255 197 c 0
 229 222 204 242 178 257 c 0
 176.296875 255.296875 174.709960938 254.40625 173.16015625 254.40625 c 0
 170.159179688 254.40625 167.296875 257.74609375 164 265 c 1
 164 253.838867188 162.525390625 248.57421875 161.475585938 248.57421875 c 0
 161.302734375 248.57421875 161.141601562 248.716796875 161 249 c 1
 154 210 146 165 139 112 c 0
 132 59 128 27 126 14 c 0
 124 4 118 -4 108 -10 c 0
 98 -16 89 -19 78 -19 c 2
 76 -19 l 1
 76 -23 75.75 -25 75.5 -25 c 0
 75.25 -25 75 -23 75 -19 c 1
 66 -19 59 -16 55 -11 c 0
 54 -9 52 -5 52 -1 c 0
 52 3 53 8 55 14 c 0
 66 49 74 79 80 104 c 0
 86 129 100 189 121 284 c 0
 123 298 130 325 141 365 c 0
 152 407 162 446 169 483 c 0
 173 505 177 537 183 576 c 0
 189 615 193 638 195 645 c 1
 143.037109375 468.625 117.037109375 380.375 117 380.375 c 1
 117 380.375 142.962890625 468.875 195 646 c 1
 195 643.215820312 195.158203125 641.85546875 195.348632812 641.85546875 c 0
 195.63671875 641.85546875 196 644.9765625 196 651 c 0
 197 661 202 670 211 678 c 0
 218 686 227 690 237 690 c 0
 246 690 252 688 255 685 c 0
 255.5625 679.9375 256.44140625 677.40625 257.102539062 677.40625 c 0
 257.6171875 677.40625 258 678.9375 258 682 c 1
 258.5 678 259.25 676 260 676 c 0
 260.75 676 261.5 678 262 682 c 1xb0
 306 680 347 672 382 661 c 0
 417 649 447 635 469 619 c 0
 491 603 510 584 523 563 c 0
 536 542 545 523 547 502 c 0
 547 495 548 487 548 479 c 0
 548 466 546 453 544 440 c 0
 537 409 524 383 504 363 c 0
 495 354 484 345 471 337 c 0
 458 329 445 323 431 318 c 0
 418 313 403 308 386 304 c 0
 369 300 353 295 336 293 c 0
 319 291 300 289 279 287 c 1
 272.8125 281.9375 266.625 279.40625 260.4375 279.40625 c 2
 246 284 l 1
 254.36328125 270.060546875 263.590820312 263.893554688 272.076171875 263.893554688 c 0
 272.721679688 263.893554688 273.36328125 263.9296875 274 264 c 0
 323 230 363 190 396 146 c 0
 430 102 451 64 458 33 c 1
 458 30 l 2
 458 22 456 15 452 8 c 0
 447 -1 440 -7 433 -12 c 0
 427 -16 422 -18 417 -18 c 0
 416 -18 414 -17 412 -17 c 0xd0
404 368 m 0
 416 372 427 377 438 384 c 0
 460 397 475 417 481 442 c 0
 483 449 484 456 484 463 c 0
 484 477 481 491 474 504 c 0
 464 524 450 540 433 554 c 0
 417 568 398 581 377 592 c 0
 337 613 299 628 259 636 c 2
 249 638 l 1
 238 581 229 535 223 500 c 0
 222 493 219 480 214 462 c 0
 209 444 199 407 182 350 c 1
 194 347 l 2
 201 346 211 345 222 345 c 2
 225 345 l 2
 227 345 237 346 256 347 c 0
 326 350 375 357 404 368 c 0
EndSplineSet
Validated: 524289
EndChar

StartChar: S
Encoding: 83 83 61
Width: 600
GlyphClass: 2
Flags: HMW
HStem: -29 62<189.5 193.5> 668 56<398.5 443.5>
VStem: 150 70<474 520.5> 414 71<234.5 287.5>
LayerCount: 2
Fore
SplineSet
53 117 m 0
 60 120 66 123 69 123 c 0
 72 123 76 124 77 124 c 2
 82 124 l 2
 83 124 85 122 87 119 c 0
 89 116 93 110 96 103 c 0
 104 82 117 65 137 52 c 0
 155 39 177 33 202 33 c 0
 217 33 233 36 250 41 c 0
 267 46 283 52 300 62 c 0
 317 72 333 84 348 97 c 0
 363 110 375 125 386 143 c 0
 397 161 405 180 409 200 c 0
 412 216 414 229 414 240 c 0
 414 259 411 275 404 290 c 0
 399 299 392 308 383 317 c 0
 374 326 364 334 351 341 c 0
 338 348 323 353 304 358 c 0
 285 363 264 368 241 371 c 0
 223 373 207 380 194 389 c 0
 181 398 172 409 165 422 c 0
 155 442 150 463 150 485 c 0
 150 492 150 499 152 508 c 0
 157 530 164 551 175 572 c 0
 186 593 200 612 217 631 c 0
 234 650 254 666 275 680 c 0
 296 694 321 704 349 712 c 0
 377 720 405 724 436 724 c 0
 451 724 473 722 500 719 c 0
 527 716 546 712 555 708 c 0
 562 706 567 701 569 694 c 0
 569 691 570 687 570 683 c 0
 570 679 569 673 567 667 c 0
 565 661 562 656 559 654 c 0
 556 652 552 649 548 649 c 0
 544 649 541 648 537 648 c 0
 533 648 529 649 524 650 c 0
 522 650 518 652 516 653 c 0
 505 656 497 660 490 661 c 0
 483 662 473 664 459 665 c 0
 445 667 429 668 412 668 c 0
 385 668 358 663 332 653 c 0
 306 643 282 628 261 608 c 0
 240 588 228 566 223 540 c 0
 221 532 220 524 220 517 c 0
 220 495 228 476 241 460 c 0
 258 439 286 428 324 426 c 0
 354 424 380 418 401 409 c 0
 422 400 439 389 450 376 c 0
 462 363 471 348 477 331 c 0
 483 314 485 296 485 279 c 0
 485 262 484 243 479 223 c 0
 472 192 461 164 446 137 c 0
 431 110 415 87 395 67 c 0
 375 47 354 30 331 15 c 0
 308 0 282 -11 257 -18 c 0
 232 -25 206 -29 181 -29 c 0
 141 -29 109 -20 82 -2 c 0
 55 16 38 36 32 60 c 0
 31 67 30 74 30 80 c 0
 30 86 32 92 34 97 c 0
 38 106 44 112 53 117 c 0
EndSplineSet
Validated: 1
EndChar

StartChar: T
Encoding: 84 84 62
Width: 600
GlyphClass: 2
Flags: HMW
HStem: 612 64<464 491.5 464 491.5>
LayerCount: 2
Fore
SplineSet
205 303 m 0
 233 459 251 560 260 606 c 1
 260 603 262 607 263 620 c 1
 179 625 132 628 120 630 c 0
 100 633 90 640 90 649 c 0
 90 651 91 653 91 655 c 0
 92 665 98 674 107 682 c 0
 113 687 120 690 127 690 c 0
 129 690 131 689 133 689 c 0
 166 682 283 678 486 676 c 0
 497 676 504 674 506 670 c 0
 508 666 509 662 509 657 c 0
 509 655 508 652 508 650 c 0
 506 640 500 631 492 622 c 0
 485 615 477 612 468 612 c 2
 464 612 l 2
 445.25 609.75 426.921875 608.625 409.015625 608.625 c 0
 379.171875 608.625 350.5 611.75 323 618 c 1
 295 475 258 277 213 24 c 0
 210 13 203 4 193 -3 c 0
 183 -10 173 -13 164 -13 c 2
 161 -13 l 2
 153 -13 147 -10 143 -5 c 0
 142 -3 141 1 141 6 c 0
 141 11 142 16 144 23 c 0
 153 54 174 147 205 303 c 0
EndSplineSet
Validated: 524289
EndChar

StartChar: U
Encoding: 85 85 63
Width: 600
GlyphClass: 2
Flags: HMW
HStem: -29 67<178 235>
VStem: 38 68<141.5 183.5> 138 62
LayerCount: 2
Fore
SplineSet
470 251 m 0
 463 222 454 194 441 168 c 0
 430 143 417 121 404 102 c 0
 391 83 378 66 363 51 c 0
 348 36 333 24 318 14 c 0
 303 4 288 -5 272 -11 c 0
 256 -17 242 -21 228 -24 c 0
 214 -27 199 -29 185 -29 c 0
 171 -29 156 -27 141 -22 c 0
 125 -17 109 -8 94 4 c 0
 79 16 67 31 57 49 c 0
 47 67 41 91 39 121 c 0
 39 129 38 137 38 146 c 0
 38 170 40 196 45 224 c 0
 87 427 118 564 138 637 c 0
 142 653 149 665 158 673 c 0
 167 681 176 685 185 685 c 0
 191 685 195 684 197 681 c 0
 199 678 200 673 200 667 c 0
 200 661 198 655 197 648 c 0
 147 422 118 285 111 238 c 0
 107 214 106 193 106 174 c 0
 106 160 107 146 109 131 c 0
 112 113 119 97 127 83 c 0
 135 69 147 59 162 50 c 0
 177 42 193 38 213 38 c 0
 257 38 296 54 330 88 c 0
 364 122 389 172 407 239 c 0
 416 267 426 303 435 345 c 0
 445 387 454 426 461 459 c 0
 484 566 497 623 498 629 c 0
 505 656 513 673 521 679 c 0
 525 682 528 685 531 685 c 0
 534 685 538 686 543 686 c 0
 548 686 551 685 553 684 c 0
 555 683 558 680 560 676 c 0
 562 672 563 669 563 664 c 0
 563 659 562 652 561 645 c 0
 542 541 512 410 470 251 c 0
EndSplineSet
Validated: 1
EndChar

StartChar: V
Encoding: 86 86 64
Width: 600
GlyphClass: 2
Flags: HMW
VStem: 75 64<623 664 631 664>
LayerCount: 2
Fore
SplineSet
525 674 m 2
 525 668 l 2
 524 662 519 654 512 645 c 0
 490 610 438 512 355 352 c 1
 278 193 227 85 203 27 c 0
 199 15 194 6 187 -1 c 0
 180 -8 172 -12 163 -12 c 2
 157 -12 l 2
 147 -12 139 -10 134 -5 c 0
 128 0 124 10 123 24 c 0
 114 96 103 204 92 350 c 0
 81 494 75 585 75 623 c 2
 75 631 l 2
 75 672 84 697 104 707 c 0
 109 709 112 711 116 711 c 0
 120 711 124 709 127 706 c 0
 134 700 138 686 139 664 c 0
 139 659 142 599 148 486 c 2
 156 359 l 1
 164 226 l 2
 167 184 170 151 172 126 c 0
 172 109 174 94 175 82 c 1
 182 90 188 102 195 117 c 0
 231 192 283 301 350 445 c 2
 457 664 l 2
 467 685 478 699 489 705 c 0
 494 709 499 711 504 711 c 0
 506 711 509 710 514 708 c 0
 517 704 520 699 522 692 c 0
 524 687 525 681 525 674 c 2
EndSplineSet
Validated: 1
EndChar

StartChar: W
Encoding: 87 87 65
Width: 600
GlyphClass: 2
Flags: HMW
VStem: 512 57
LayerCount: 2
Fore
SplineSet
43 27 m 2
 43 30 l 1
 43 30 44 31 44 32 c 0
 44 34 45 58 48 105 c 0
 50 136 54 168 58 199 c 0
 68 276 89 420 120 632 c 0
 126 675 138 702 158 711 c 0
 160 713 165 714 167 714 c 2
 169 714 l 2
 173 713 176 710 179 708 c 0
 181 707 183 702 183 693 c 0
 183 690 184 686 184 681 c 0
 184 679 183 676 182 672 c 0
 173 633 151 490 116 242 c 0
 113 219 110 187 105 147 c 0
 100 103 96 75 95 65 c 1
 102 55 110 53 118 59 c 1
 125 81 135 108 145 140 c 0
 154 169 175 237 208 342 c 2
 208 342 222 392 254 493 c 0
 271 545 286 588 298 622 c 0
 310 657 318 678 323 687 c 0
 330 703 345 711 366 711 c 1
 367 720 369 720 370 712 c 1
 385 712 392 703 392 685 c 0
 392 668 388 621 380 544 c 0
 378 517 373 479 367 428 c 0
 362 378 358 340 356 313 c 0
 351 273 344 208 338 116 c 0
 336 81 335 49 333 18 c 1
 342 45 351 75 360 108 c 0
 390 204 427 332 470 493 c 0
 494 572 508 623 512 645 c 0
 515 667 522 684 532 696 c 0
 541 707 549 713 557 713 c 0
 559 713 563 712 564 711 c 0
 568 708 569 697 569 678 c 0
 569 670 568 659 565 645 c 0
 557 611 542 560 520 491 c 2
 475 347 l 1
 475 347 464 303 437 217 c 0
 420 161 407 118 396 89 c 0
 385 59 376 39 369 28 c 0
 362 14 352 4 341 -3 c 0
 330 -8 322 -11 315 -11 c 2
 311 -11 l 1
 309 -11 l 2
 300 -11 293 -8 288 -3 c 0
 283 2 281 12 281 26 c 2
 281 30 l 2
 281 92 288 175 302 279 c 2
 320 411 l 2
 332 504 340 566 343 595 c 1
 336 605 328 607 321 601 c 1
 290 490 256 374 220 255 c 0
 185 137 160 61 145 26 c 0
 142 15 136 7 128 1 c 0
 120 -4 112 -8 104 -9 c 0
 96 -10 90 -11 83 -11 c 0
 72 -10 62 -9 54 -8 c 0
 51 -6 49 -4 48 -2 c 0
 46 0 45 4 44 11 c 0
 43 16 43 21 43 27 c 2
77 -11 m 1024
EndSplineSet
Validated: 1
EndChar

StartChar: X
Encoding: 88 88 66
Width: 600
GlyphClass: 2
Flags: HMW
VStem: 173 66
LayerCount: 2
Fore
SplineSet
402 -18 m 0
 395 -15 389 -7 383 5 c 0
 376 19 367 41 358 71 c 0
 349 100 338 137 326 183 c 0
 314 230 303 271 294 305 c 1
 281 288 l 2
 256 255 216 200 163 123 c 0
 107 48 76 7 69 0 c 0
 60 -11 52 -18 45 -21 c 0
 41 -23 37 -24 35 -24 c 0
 30 -24 26 -19 21 -9 c 0
 18 -3 16 4 16 11 c 0
 16 18 23 31 35 48 c 0
 42 56 78 98 142 175 c 1
 202 255 245 315 274 357 c 1
 178 627 l 2
 175 635 173 642 173 649 c 0
 173 667 179 682 190 693 c 0
 198 702 206 706 214 706 c 0
 216 706 220 704 224 702 c 0
 230 698 235 690 239 679 c 0
 252 651 279 567 321 427 c 2
 328 405 l 1
 341 424 l 2
 439 568 501 654 527 683 c 0
 535 694 543 701 551 705 c 0
 556 707 561 709 565 709 c 0
 570 709 574 707 578 700 c 0
 580 695 583 689 583 683 c 0
 583 682 584 679 584 676 c 2
 581 667 l 2
 579 661 575 655 568 648 c 2
 474 532 l 1
 415 450 376 395 355 364 c 0
 353 362 350 358 346 351 c 1
 356 321 372 269 393 195 c 0
 414 121 429 75 438 55 c 0
 443 45 445 36 445 28 c 0
 445 22 444 16 443 11 c 0
 442 6 439 1 435 -5 c 0
 427 -16 419 -22 412 -22 c 0
 410 -22 406 -20 402 -18 c 0
EndSplineSet
Validated: 1
EndChar

StartChar: Y
Encoding: 89 89 67
Width: 600
GlyphClass: 2
Flags: HMW
VStem: 107 76<613 653.5 626 653.5>
LayerCount: 2
Fore
SplineSet
530 623 m 0
 525 615 516 601.999023438 503 582.999023438 c 0
 490 563.999023438 478 546.999023438 470 533.999023438 c 0
 462 520.999023438 445 496.999023438 420 461.999023438 c 0
 398 426.999023438 378 396.999023438 364 374.999023438 c 0
 331.958007812 324.647460938 296.34765625 298.091796875 268 209 c 0
 247 143 251.8203125 95.607421875 204 -17 c 0
 198.903320312 -29.0009765625 178 -35 167 -38 c 0
 165 -38 161 -39 159 -39 c 0
 154 -39 149 -37 144 -33 c 0
 139 -28 135 -21 135 -13 c 0
 135 -10 137 -6 137 -4 c 0
 138 3 143.305664062 8.7080078125 147 18 c 0
 180 101 147 18 211 231 c 1
 205 258 197 291 186 329 c 0
 175 367 168 393 164 407 c 0
 160 421 153 443 143 475 c 0
 134 504 126 530 120 551 c 0
 114 572 109 593 107 613 c 2
 107 626 l 2
 107 634 108 641 110 647 c 0
 113 657 118 665 123 670 c 0
 128 675 133 680 140 682 c 0
 146 684 151 686 156 686 c 0
 160 686 164 685 168 684 c 0
 172 683 175 679 177 673 c 0
 179 667 183 659 183 648 c 0
 184 625 187 600 191 573 c 0
 192 564 194 552 198 536 c 0
 202 520 205 510 206 506 c 0
 217 464 224 442 224 442 c 2
 235 403 243 365 249 328 c 0
 250 311 252 301 253 300 c 0
 258 300 264 308 269 323 c 0
 271 327 280 340 293 362 c 0
 306 384 328 418 357 465 c 0
 386 512 407 548 422 574 c 0
 427 583 435 595 446 611 c 0
 458 627 468 640 473 649 c 0
 479 660 485 668 491 675 c 0
 497 682 503 686 508 688 c 0
 518 692 526 692 533 689 c 0
 535 687 539 684 541 682 c 0
 544 677 545 670 545 663 c 0
 545 661 545 656 544 651 c 0
 542 642 536 633 530 623 c 0
EndSplineSet
Validated: 524289
EndChar

StartChar: Z
Encoding: 90 90 68
Width: 600
GlyphClass: 2
Flags: HMW
HStem: 9 63 627 69<186.5 233 190 233> 629 55
LayerCount: 2
Fore
SplineSet
441 40 m 2xa0
 439 29 434 21 427 14 c 0
 420 7 411 3 397 3 c 0
 394 3 361 4 301 6 c 0
 241 8 185 9 132 9 c 0
 109 9 79 8 40 7 c 2
 39 7 l 2
 37 7 33 8 32 9 c 0
 31 10 28 15 26 20 c 0
 24 25 24 31 24 36 c 2
 24 49 l 2
 25 55 31 66 40 81 c 0
 49 96 64 117 85 144 c 0
 113 181 171 256 261 368 c 0
 350 480 418 561 462 612 c 2
 482 634 l 1
 433 632 378 630 316 629 c 0
 254 628 212 627 191 627 c 2xc0
 190 627 l 2
 183 627 177 628 176 632 c 0
 175 636 173 640 173 644 c 0
 173 648 174 651 174 655 c 0
 176 664 183 674 193 683 c 0
 203 692 215 696 227 696 c 0
 239 696 256 694 277 690 c 0
 298 686 317 684 332 684 c 2
 349 684 l 2
 388 684 439 686 503 691 c 0
 541 693 562 695 562 695 c 2
 564 695 567 694 568 693 c 0
 569 692 571 689 572 687 c 0
 574 682 577 676 577 670 c 0
 577 667 575 663 575 658 c 0
 573 654 569 648 560 639 c 0
 551 630 538 618 524 605 c 0
 510 592 501 581 494 573 c 0
 467 540 428 493 378 431 c 0
 328 369 279 308 231 247 c 0
 183 186 141 131 108 84 c 2
 93 63 l 1
 120 65 l 2
 189 70 252 72 311 72 c 0
 358 72 393 70 415 66 c 0
 427 64 435 60 439 55 c 0
 441 53 441 50 441 46 c 2
 441 40 l 2xa0
EndSplineSet
Validated: 1
EndChar

StartChar: bracketleft
Encoding: 91 91 69
Width: 600
GlyphClass: 2
Flags: HMW
HStem: -69 47 773 64<518 520>
LayerCount: 2
Fore
SplineSet
442 837 m 1
 513 837 l 2
 527 837 535 838 535 838 c 2
 544 838 550 837 552 833 c 0
 554 829 555 824 555 819 c 2
 555 812 l 2
 554 807 551 803 549 798 c 0
 543 786 536 778 527 775 c 0
 524 774 521 773 519 773 c 0
 517 773 514 774 513 774 c 0
 490 778 452 780 400 780 c 0
 377 780 347 779 312 778 c 1
 307 758 298 719 283 661 c 0
 268 603 256 555 246 516 c 0
 236 477 225 431 213 377 c 0
 206 337 190 268 166 170 c 0
 142 72 127 8 120 -22 c 1
 163 -22 l 2
 193 -22 229 -21 271 -20 c 0
 313 -19 336 -17 341 -17 c 0
 351 -17 357 -19 359 -21 c 0
 361 -25 361 -31 360 -39 c 0
 358 -49 354 -58 348 -65 c 0
 346 -68 342 -71 339 -72 c 0
 336 -73 333 -74 331 -74 c 0
 329 -74 326 -73 324 -73 c 0
 309 -71 289 -70 264 -70 c 0
 262 -70 254 -69 243 -69 c 0
 232 -69 217 -70 200 -71 c 0
 137 -75 94 -77 72 -77 c 0
 59 -77 51 -74 47 -70 c 0
 45 -68 44 -65 44 -61 c 0
 44 -55 46 -47 51 -37 c 1
 51 -36 l 1
 54 -27 l 2
 65 8 82 71 104 161 c 0
 126 251 147 341 166 431 c 0
 169 452 174 474 180 500 c 0
 186 526 198 579 218 660 c 0
 223 681 228 703 235 729 c 0
 242 755 246 772 248 781 c 2
 249 784 l 2
 249 788 248 791 248 793 c 0
 248 805 253 815 263 824 c 0
 270 831 281 835 294 835 c 0
 338 836 379 837 415 837 c 2
 442 837 l 1
EndSplineSet
Validated: 1
EndChar

StartChar: backslash
Encoding: 92 92 70
Width: 600
GlyphClass: 2
Flags: HMW
VStem: 364 71<4.29497e+09 4.29497e+09>
LayerCount: 2
Fore
SplineSet
387 -45 m 0
 376 -39 369 -29 364 -14 c 0
 362 -3 354 27 343 76 c 0
 332 125 324 160 319 181 c 0
 310 214 283 296 240 429 c 0
 197 562 171 645 163 679 c 0
 162 684 161 689 161 694 c 0
 161 702 163 709 165 715 c 0
 170 724 177 731 187 736 c 0
 195 739 202 741 209 741 c 0
 214 741 220 739 224 735 c 0
 228 731 231 726 233 718 c 0
 256 621 280 535 302 458 c 0
 337 333 382 190 436 30 c 0
 438 24 439 17 439 10 c 0
 439 3 437 -6 435 -15 c 0
 430 -31 423 -41 415 -45 c 0
 410 -47 406 -49 401 -49 c 0
 396 -49 392 -47 387 -45 c 0
EndSplineSet
Validated: 1
EndChar

StartChar: bracketright
Encoding: 93 93 71
Width: 600
GlyphClass: 2
Flags: HMW
HStem: -69 49 780 57<379 393.5>
LayerCount: 2
Fore
SplineSet
406 837 m 2
 443 837 483 836 525 835 c 0
 537 835 545 832 548 827 c 0
 550 824 552 820 552 816 c 0
 552 812 551 809 551 806 c 0
 549 801 547 796 545 792 c 2
 543 789 l 1
 543 787 l 1
 541 781 l 1
 541 780 l 2
 541 775 536 760 531 735 c 2
 501 591 l 2
 489 535 476 483 463 436 c 0
 441 346 420 256 400 166 c 0
 380 76 368 14 363 -21 c 2
 361 -30 l 1
 361 -32 l 2
 361 -39 360 -45 359 -50 c 0
 358 -58 353 -64 346 -69 c 0
 339 -74 329 -77 316 -77 c 0
 294 -77 252 -74 191 -71 c 0
 173 -71 152 -69 129 -69 c 0
 106 -69 86 -71 66 -73 c 0
 63 -73 59 -74 58 -74 c 0
 53 -74 49 -72 48 -70 c 0
 47 -63 47 -55 49 -44 c 0
 51 -35 56 -29 61 -24 c 0
 66 -19 75 -17 86 -17 c 0
 90 -17 112 -19 154 -20 c 0
 196 -21 231 -22 261 -22 c 2
 298 -22 l 1
 304 4 318 67 339 165 c 0
 360 263 376 331 387 371 c 1
 387 372 l 1
 400 425 412 472 420 511 c 0
 428 550 446 639 475 778 c 1
 436 779 405 780 382 780 c 0
 332 780 295 778 269 774 c 0
 267 774 263 773 261 773 c 0
 259 773 256 773 254 774 c 0
 252 775 250 778 250 780 c 0
 247 789 246 798 248 807 c 0
 250 816 254 823 261 830 c 0
 267 835 275 838 286 838 c 2
 287 838 l 2
 315 838 346 837 379 837 c 2
 406 837 l 2
EndSplineSet
Validated: 1
EndChar

StartChar: asciicircum
Encoding: 94 94 72
Width: 600
GlyphClass: 2
Flags: HMW
HStem: 607 326<87.5 370>
LayerCount: 2
Fore
SplineSet
480 614 m 0
 475 619 466 630 454 648 c 0
 452 650 448 654 446 658 c 0
 419 698 402 726 392 743 c 0
 382 760 370 787 353 824 c 2
 344 841 l 1
 332 828 l 2
 310 803 291 783 274 767 c 0
 257 751 244 739 234 731 c 0
 224 723 211 713 195 699 c 0
 179 685 163 670 145 653 c 0
 142 651 137 647 132 642 c 0
 114 625 101 615 94 610 c 0
 92 608 89 607 88 607 c 0
 87 607 86 609 84 609 c 0
 77 613 71 620 68 631 c 0
 68 632 67 634 67 636 c 0
 67 647 75 659 87 672 c 0
 102 689 123 709 149 734 c 0
 175 759 204 786 236 817 c 0
 268 848 300 882 333 918 c 0
 339 925 347 929 356 931 c 0
 360 932 364 933 368 933 c 0
 372 933 376 932 380 931 c 0
 385 929 390 926 391 922 c 2
 391 921 l 1
 407 886 421 857 433 834 c 0
 445 811 454 794 461 783 c 0
 468 772 478 756 491 735 c 0
 504 714 516 696 527 679 c 0
 530 674 532 668 532 663 c 0
 532 655 529 648 524 642 c 0
 514 629 503 621 491 616 c 0
 488 614 485 613 484 613 c 0
 483 613 481 614 480 614 c 0
EndSplineSet
Validated: 1
EndChar

StartChar: underscore
Encoding: 95 95 73
Width: 600
GlyphClass: 2
Flags: HMW
HStem: -87 60<95.5 117>
LayerCount: 2
Fore
SplineSet
79 -72 m 0
 79 -68 80 -64 81 -59 c 0
 83 -49 86 -41 91 -36 c 0
 96 -30 104 -27 115 -27 c 2
 117 -27 l 2
 174 -28 222 -29 262 -29 c 0
 302 -29 351 -28 412 -27 c 0
 461 -27 490 -25 501 -25 c 0
 512 -25 518 -27 519 -30 c 0
 521 -35 522 -42 521 -51 c 0
 519 -62 514 -70 509 -75 c 0
 502 -82 493 -85 482 -85 c 0
 253 -86 126 -87 99 -87 c 0
 92 -87 87 -86 84 -84 c 0
 81 -82 79 -78 79 -72 c 0
EndSplineSet
Validated: 1
EndChar

StartChar: grave
Encoding: 96 96 74
Width: 600
GlyphClass: 2
Flags: HMW
HStem: 636 161<255 355>
LayerCount: 2
Fore
SplineSet
354 636 m 0
 346 636 338 639 329 644 c 0
 300 665 281 678 274 683 c 0
 267 688 258 695 247 704 c 0
 236 713 226 721 219 728 c 0
 214 734 211 743 211 754 c 0
 211 763 214 772 219 781 c 0
 226 788 236 794 247 796 c 0
 250 796 254 797 256 797 c 0
 262 797 267 796 272 792 c 0
 274 790 290 773 319 742 c 0
 324 736 332 729 342 720 c 0
 352 711 362 703 370 698 c 0
 380 692 386 684 388 673 c 0
 388 670 389 666 389 664 c 0
 389 658 386 653 383 649 c 0
 378 642 370 638 360 637 c 0
 358 637 356 636 354 636 c 0
EndSplineSet
Validated: 1
EndChar

StartChar: a
Encoding: 97 97 75
Width: 600
GlyphClass: 2
Flags: HMW
HStem: -28 69 438 72
VStem: 429 51
LayerCount: 2
Fore
SplineSet
267 450 m 0
 292 471 327 486.999023438 370 499.999023438 c 0
 391 505.999023438 413 509.999023438 436 509.999023438 c 2
 444 509.999023438 l 2
 496 508.999023438 528 492.999023438 538 464.999023438 c 0
 545.201171875 444.74609375 548.755859375 420.64453125 548.755859375 392.51171875 c 0
 548.755859375 358.13671875 543.448242188 317.743164062 533 270.999023438 c 0
 533 268.999023438 531 260.999023438 528 247.999023438 c 0
 525 234.999023438 520 212.999023438 512 182.999023438 c 0
 504 152.999023438 501 136.999023438 501 135.999023438 c 0
 497 118.999023438 492 86.9990234375 486 36.9990234375 c 0
 485 21.9990234375 482 8.9990234375 480 -2.0009765625 c 0
 475 -26.0009765625 468 -38.0009765625 460 -38.0009765625 c 0
 439 -38.0009765625 429 -34.0009765625 429 -25.0009765625 c 0
 427.828125 -7.427734375 427.342773438 12.205078125 427.342773438 34.09765625 c 0
 427.342773438 49.578125 427.584960938 66.1884765625 427.999023438 84 c 1
 420.999023438 71 415.999023438 64 411.999023438 64 c 0
 383.999023438 29 358.999023438 5 335.999023438 -10 c 0
 316.999023438 -22 289.999023438 -28 252.999023438 -28 c 0
 236.999023438 -28 219.999023438 -23 201.999023438 -12 c 0
 182.999023438 -1 167.999023438 17 156.999023438 40 c 0
 145.999023438 63 140.999023438 87 138.999023438 111 c 1
 142.999023438 128 148.999023438 146 156.999023438 165 c 0
 165.999023438 186 177.999023438 203 193.999023438 217 c 0
 216.999023438 238 232.999023438 251 240.999023438 255 c 0
 275.999023438 273 295.999023438 284 300.999023438 285 c 0
 342.999023438 298 365.999023438 306 370.999023438 307 c 0
 399.999023438 311 417.999023438 314 425.999023438 316 c 0
 428.999023438 317 446.999023438 323 478.999023438 335 c 0
 479.999023438 339 481.999023438 340 481.999023438 340 c 2
 484.999023438 346 486.999023438 353 487.999023438 359 c 0
 488.999023438 365 490.999023438 370 490.999023438 376 c 0
 490.999023438 382 489.999023438 389 485.999023438 398 c 0
 480.999023438 410 472.999023438 419 463.999023438 425 c 0
 456.999023438 431 442.999023438 436 423.999023438 437 c 0
 420.999023438 437 417.999023438 438 414.999023438 438 c 0
 401.999023438 438 388.999023438 435 372.999023438 430 c 0
 356.999023438 425 343.999023438 417 331.999023438 409 c 0
 309.999023438 395 292.999023438 383 281.999023438 373 c 0
 261.999023438 352 246.999023438 340 233.999023438 340 c 0
 227.999023438 340 221.999023438 343 216.999023438 348 c 0
 209.764648438 354.430664062 206.407226562 361.5078125 206.407226562 369.75 c 0
 206.407226562 371.76171875 206.607421875 373.842773438 207 376 c 0
 209 387 218 401 230 415 c 0
 241 428 253 439 267 450 c 0
356 67.9990234375 m 0
 369 77.9990234375 381 89.9990234375 392 103.999023438 c 0
 404 117.999023438 416 135.999023438 427 156.999023438 c 0
 438 177.999023438 448 200.999023438 455 225.999023438 c 2
 458 236.999023438 l 1
 447 235.999023438 l 2
 332 224.999023438 253 191.999023438 210 136.999023438 c 1
 207 131.999023438 l 1
 208 126.999023438 l 2
 216 94.9990234375 226 72.9990234375 240 59.9990234375 c 0
 252 46.9990234375 267 40.9990234375 286 40.9990234375 c 0
 308 40.9990234375 332 48.9990234375 356 67.9990234375 c 0
EndSplineSet
Validated: 524289
EndChar

StartChar: b
Encoding: 98 98 76
Width: 600
GlyphClass: 2
Flags: HMW
HStem: -14 74<259 281.5> 425 65<325 399.5>
VStem: 91 60 440 69<295.5 370.5>
LayerCount: 2
Fore
SplineSet
498 263 m 0
 491 227 480 194 467 164 c 0
 454 134 438 107 422 86 c 0
 406 65 389 46 372 31 c 0
 355 16 339 4 322 -3 c 0
 305 -10 289 -14 274 -14 c 0
 232 -14 197 2 171 31 c 1
 166 29 162 34 157 47 c 1
 155 32 153 26 151 26 c 0
 146 12 141 2 134 -3 c 0
 127 -8 119 -11 110 -11 c 0
 103 -11 97 -9 95 -6 c 0
 93 -3 91 2 91 8 c 0
 91 14 92 22 94 30 c 0
 112 115 139 237 175 396 c 0
 210 555 233 663 246 722 c 0
 250 741 255 753 261 759 c 0
 267 765 275 768 285 768 c 0
 291 768 296 766 299 761 c 0
 301 759 302 754 302 748 c 0
 302 742 301 733 299 723 c 0
 292 698 285 666 278 624 c 0
 265 564 252 499 239 428 c 1
 247 437 255 443 262 445 c 0
 299 475 340 490 383 490 c 0
 416 490 444 480 465 461 c 0
 494 436 509 397 509 344 c 0
 509 319 505 292 498 263 c 0
408 397 m 0
 391 416 369 425 343 425 c 0
 307 425 270 408 231 374 c 2
 228 371 l 1
 211 288 190 201 168 109 c 1
 171 105 l 2
 182 88 196 77 214 70 c 0
 229 63 248 60 270 60 c 0
 310 60 343 78 371 113 c 0
 400 147 421 193 434 251 c 0
 438 269 440 287 440 304 c 0
 440 344 429 375 408 397 c 0
EndSplineSet
Validated: 1
EndChar

StartChar: c
Encoding: 99 99 77
Width: 600
GlyphClass: 2
Flags: HMW
HStem: -31 68<222 269> 458 69<360 416>
VStem: 110 70<123.5 126.5> 420 70<358.5 405>
LayerCount: 2
Fore
SplineSet
466 492 m 0
 483 468 490 440 490 407 c 2
 490 405 l 2
 490 389 488 376 483 365 c 0
 477 352 467 343 454 337 c 0
 448 335 443 333 438 333 c 0
 435 333 431 334 429 335 c 0
 427 335 425 338 423 343 c 0
 421 348 420 354 420 363 c 0
 420 366 418 377 418 397 c 0
 418 402 418 408 417 415 c 0
 416 422 414 428 412 432 c 0
 410 436 406 440 402 444 c 0
 394 453 382 458 365 458 c 0
 355 458 345 456 334 451 c 0
 323 446 311 438 298 426 c 0
 285 414 273 399 261 382 c 0
 249 365 237 343 226 315 c 0
 213 287 202 256 193 221 c 0
 184 189 180 161 180 137 c 0
 180 110 186 88 197 71 c 0
 212 50 233 39 260 37 c 2
 269 37 l 2
 292 37 313 42 331 52 c 0
 352 64 367 78 374 93 c 0
 380 104 386 112 392 118 c 0
 398 124 401 128 405 129 c 0
 409 130 413 131 416 131 c 0
 419 131 422 129 427 127 c 0
 430 125 433 122 435 120 c 0
 437 118 438 114 438 110 c 0
 438 100 433 86 422 69 c 0
 407 44 383 22 352 2 c 0
 337 -9 319 -17 299 -23 c 0
 279 -28 257 -31 235 -31 c 0
 209 -31 187 -26 167 -14 c 0
 149 -3 136 12 127 32 c 0
 116 57 110 85 110 116 c 0
 110 137 113 158 118 180 c 0
 129 227 143 269 160 308 c 0
 177 347 196 379 217 406 c 0
 237 433 256 455 276 474 c 0
 315 509 357 527 403 527 c 0
 429 527 450 515 466 492 c 0
EndSplineSet
Validated: 1
EndChar

StartChar: d
Encoding: 100 100 78
Width: 600
GlyphClass: 2
Flags: HMW
HStem: -14 76<179 214> 436 75<286 290 286 286>
VStem: 59 62<171 182> 330 65<20.5 50>
LayerCount: 2
Fore
SplineSet
242 65 m 0
 251 67 259 71 266 74 c 0
 273 77 279 81 286 87 c 0
 293 93 298 99 303 103 c 0
 308 107 313 113 319 121 c 0
 325 129 331 135 333 139 c 0
 335 143 338 147 341 152 c 0
 344 157 347 162 349 164 c 0
 362 226 369 261 371 268 c 0
 372 275 374 286 378 301 c 0
 382 316 384 329 386 338 c 1
 385 341 l 2
 378 368 367 391 350 409 c 0
 333 427 313 436 290 436 c 2
 286 436 l 2
 262 435 239 426 218 410 c 0
 197 394 181 373 166 348 c 0
 151 323 139 296 132 267 c 0
 124 235 121 207 121 183 c 0
 121 159 123 137 130 120 c 0
 138 99 152 83 169 74 c 0
 182 66 196 62 213 62 c 2
 214 62 l 2
 223 62 233 63 242 65 c 0
59 166 m 0
 59 198 63 233 72 271 c 0
 81 316 98 358 120 394 c 0
 142 430 168 458 199 479 c 0
 228 500 260 511 292 511 c 0
 336 511 372 498 397 472 c 1
 402 475 406 471 411 458 c 1
 442 595 464 681 475 716 c 0
 480 733 487 745 494 754 c 0
 503 764 512 769 524 769 c 0
 531 769 538 766 540 761 c 0
 541 760 542 757 542 753 c 0
 542 746 539 736 536 723 c 0
 525 681 506 606 478 495 c 0
 450 384 431 299 418 242 c 1
 418 241 l 1
 411 202 405 168 401 139 c 0
 397 110 396 89 396 77 c 0
 396 65 395 54 395 46 c 0
 395 38 394 32 392 27 c 0
 388 16 383 8 376 2 c 0
 371 -3 364 -7 355 -9 c 0
 352 -9 347 -10 345 -10 c 0
 343 -10 340 -9 338 -8 c 0
 336 -7 335 -4 334 -1 c 0
 332 6 330 15 330 26 c 0
 330 34 331 43 332 52 c 0
 333 60 335 74 337 95 c 1
 329 78 321 67 313 62 c 0
 305 51 297 42 289 34 c 0
 281 26 272 17 261 10 c 0
 240 -6 216 -14 187 -14 c 0
 171 -14 155 -10 140 -3 c 0
 125 4 110 15 98 30 c 0
 86 45 76 64 69 85 c 0
 62 106 59 134 59 166 c 0
EndSplineSet
Validated: 1
EndChar

StartChar: e
Encoding: 101 101 79
Width: 600
GlyphClass: 2
Flags: HMW
HStem: -28 60<232 265 232 265> 455 66<335 383>
VStem: 111 61<134 140.5>
LayerCount: 2
Fore
SplineSet
416 60 m 0
 404 45 392 33 381 24 c 0
 370 14 358 5 344 -4 c 0
 318 -20 283 -28 241 -28 c 2
 232 -28 l 2
 180 -27 145 -4 126 39 c 0
 116 63 111 91 111 124 c 0
 111 157 116 193 125 234 c 0
 135 279 150 320 170 356 c 0
 190 392 211 423 234 447 c 0
 255 471 277 489 301 502 c 0
 325 515 350 521 375 521 c 0
 391 521 407 516 424 505 c 0
 441 494 455 479 468 458 c 0
 481 437 488 416 489 393 c 0
 489 378 481 362 467 343 c 0
 453 324 439 310 426 300 c 0
 400 280 368 261 328 241 c 0
 308 232 292 224 278 217 c 0
 264 210 248 202 227 193 c 0
 209 184 191 178 174 173 c 1
 173 158 172 146 172 138 c 0
 172 130 173 123 173 116 c 0
 175 101 179 88 185 75 c 0
 191 62 199 51 212 44 c 0
 225 36 241 32 259 32 c 0
 271 32 284 35 298 40 c 0
 312 45 324 51 335 60 c 0
 355 77 369 89 376 98 c 0
 387 110 396 119 404 124 c 0
 409 127 415 129 419 129 c 0
 423 129 427 127 430 124 c 0
 435 119 438 112 438 105 c 0
 438 93 431 78 416 60 c 0
283 427 m 0
 272 417 261 405 251 391 c 0
 241 377 231 360 221 339 c 0
 210 318 201 295 194 270 c 2
 189 249 l 1
 209 255 l 2
 312 287 382 319 419 352 c 2
 425 357 l 1
 423 364 l 2
 416 396 407 419 394 433 c 0
 380 448 364 455 345 455 c 0
 325 455 304 446 283 427 c 0
EndSplineSet
Validated: 1
EndChar

StartChar: f
Encoding: 102 102 80
Width: 600
GlyphClass: 2
Flags: HMW
HStem: -16 63 422 65 428 61 703 62
LayerCount: 2
Fore
SplineSet
340 -5 m 0xb0
 333 -12 325.999023438 -16.0009765625 314.999023438 -16.0009765625 c 0
 258.999023438 -17.0009765625 221.999023438 -18.0009765625 203.999023438 -18.0009765625 c 0
 149.999023438 -18.0009765625 109.999023438 -16.0009765625 82.9990234375 -14.0009765625 c 1
 82.9990234375 -22.0009765625 81.9990234375 -22.0009765625 81.9990234375 -14.0009765625 c 1
 71.9990234375 -14.0009765625 64.9990234375 -11.0009765625 62.9990234375 -6.0009765625 c 0
 60.9990234375 -2.0009765625 59.9990234375 1.9990234375 59.9990234375 5.9990234375 c 0
 59.9990234375 9.9990234375 60.9990234375 13.9990234375 61.9990234375 18.9990234375 c 0
 63.9990234375 29.9990234375 67.9990234375 38.9990234375 74.9990234375 45.9990234375 c 0
 80.9990234375 51.9990234375 90.9990234375 54.9990234375 101.999023438 54.9990234375 c 2
 106.999023438 54.9990234375 l 2
 110.999023438 54.9990234375 117.999023438 53.9990234375 129.999023438 53.9990234375 c 0
 141.999023438 53.9990234375 154.999023438 51.9990234375 167.999023438 51.9990234375 c 0
 168.999023438 48.9990234375 169.999023438 51.9990234375 169.999023438 61.9990234375 c 0
 172.999023438 74.9990234375 175.999023438 87.9990234375 176.999023438 98.9990234375 c 0
 177.999023438 109.999023438 179.999023438 123.999023438 182.999023438 137.999023438 c 0
 185.999023438 151.999023438 188.999023438 171.999023438 192.999023438 198.999023438 c 0
 210.999023438 311.999023438 223.999023438 386.999023438 229.999023438 423.999023438 c 1
 224.999023438 428.999023438 219.999023438 427.999023438 214.999023438 422.999023438 c 1
 205.999023438 422.999023438 192.999023438 421.999023438 176.999023438 421.999023438 c 0
 170.999023438 421.999023438 166.999023438 422.999023438 164.999023438 424.999023438 c 0
 162.999023438 426.999023438 160.999023438 431.999023438 160.999023438 437.999023438 c 0
 160.999023438 441.999023438 161.999023438 446.999023438 162.999023438 451.999023438 c 0
 164.999023438 462.999023438 167.999023438 471.999023438 172.999023438 477.999023438 c 0
 177.999023438 483.999023438 184.999023438 486.999023438 193.999023438 486.999023438 c 2
 240.999023438 486.999023438 l 1xd0
 242.999023438 505.999023438 247.999023438 524.999023438 251.999023438 545.999023438 c 0
 258.999023438 576.999023438 266.999023438 603.999023438 279.999023438 628.999023438 c 0
 292.999023438 653.999023438 306.999023438 673.999023438 323.999023438 690.999023438 c 0
 340.999023438 707.999023438 358.999023438 720.999023438 379.999023438 731.999023438 c 0
 400.999023438 742.999023438 421.999023438 751.999023438 443.999023438 756.999023438 c 0
 467.999023438 761.999023438 493.999023438 764.999023438 518.999023438 764.999023438 c 0
 527.999023438 764.999023438 533.999023438 761.999023438 537.999023438 757.999023438 c 0
 539.999023438 755.999023438 540.999023438 752.999023438 540.999023438 749.999023438 c 0
 540.999023438 746.999023438 539.999023438 742.999023438 539.999023438 739.999023438 c 0
 537.999023438 728.999023438 531.999023438 719.999023438 525.999023438 712.999023438 c 0
 519.999023438 705.999023438 512.999023438 702.999023438 507.999023438 702.999023438 c 0
 454.999023438 702.999023438 410.999023438 687.999023438 373.999023438 657.999023438 c 0
 337.999023438 627.999023438 313.999023438 588.999023438 303.999023438 540.999023438 c 0
 300.999023438 525.999023438 297.999023438 513.999023438 296.999023438 502.999023438 c 2
 296.999023438 502.999023438 295.999023438 500.999023438 295.999023438 488.999023438 c 1xb0
 323.87109375 492.901367188 352.053710938 494.939453125 380.720703125 494.939453125 c 0
 403.479492188 494.939453125 426.543945312 493.655273438 450 491 c 0
 459 491 464 489 465 487 c 0xd0
 467 482 468 476 467 467 c 0
 465 456 461 446 456 440 c 0
 451 434 443 431 433 431 c 0
 420 431 392 430 349 428 c 0
 327 428 306 426 285 426 c 1
 280 401 275 370 269 334 c 0
 263 298 251 226 232 116 c 0
 227 83 224 65 224 63 c 2
 224 51 l 2
 227 44 230 44 233 50 c 1
 277 48 312 47 334 47 c 0
 343 47 350 45 352 41 c 0
 354 39 355 35 355 32 c 0
 355 29 354 25 354 22 c 0
 352 11 347 2 340 -5 c 0xb0
EndSplineSet
Validated: 524289
EndChar

StartChar: g
Encoding: 103 103 81
Width: 600
GlyphClass: 2
Flags: HMW
HStem: -292 59<163 184 163 189> -258 57<71 95> -31 75<266.5 277.5> 437 72<392 454.5 398 454.5>
VStem: 149 61<85 151.5>
LayerCount: 2
Fore
SplineSet
326 55 m 0x38
 341 61 354 69 365 79 c 0
 376 89 387 99 396 112 c 0
 405 125 413 137 419 149 c 0
 426 161 431 173 436 186 c 0
 436 187 452 253 483 383 c 0
 484 390 487 397 492 403 c 2
 503 418 l 1
 483 422 l 1
 480 422 l 1
 454 432 429 437 405 437 c 2
 398 437 l 2
 386 437 374 434 362 430 c 0
 350 426 337 418 324 409 c 0
 311 400 298 388 286 375 c 0
 274 362 263 346 253 326 c 0
 243 306 236 284 229 260 c 0
 224 239 220 219 216 199 c 0
 212 179 210 161 210 142 c 0
 210 123 212 107 216 92 c 0
 220 77 227 65 238 56 c 0
 248 48 259 44 274 44 c 0
 291 44 309 48 326 55 c 0x38
535 402 m 0
 527 367 519 327 510 285 c 0
 494 208 479 144 466 91 c 0
 453 38 441 -8 429 -50 c 0
 419 -82 406 -112 392 -139 c 0
 378 -166 362 -188 345 -207 c 0
 328 -226 309 -241 289 -254 c 0
 251 -279 210 -292 168 -292 c 0xb8
 151 -292 134 -289 119 -284 c 0
 104 -279 92 -273 83 -267 c 2
 77 -263 l 2
 74 -261 72 -258 71 -258 c 2
 67 -255 l 1
 65 -251 l 2
 65 -250 64 -248 64 -247 c 2
 64 -243 l 2
 64 -242 65 -239 66 -236 c 0
 68 -225 73 -216 81 -209 c 0
 86 -204 91 -201 95 -201 c 2x78
 95 -201 97 -202 98 -202 c 0
 100 -202 105 -205 111 -210 c 0
 117 -215 126 -220 136 -225 c 0
 146 -230 157 -233 169 -233 c 0xb8
 199 -233 227 -225 255 -210 c 0
 283 -195 308 -174 330 -146 c 0
 352 -118 368 -87 379 -52 c 0
 384 -38 390 -13 399 22 c 0
 404 32 409 50 413 75 c 1
 402 53 392 38 381 33 c 1
 348 -9 304 -31 251 -31 c 0
 230 -31 213 -27 199 -19 c 0
 181 -9 168 7 160 29 c 0
 153 48 149 71 149 99 c 0
 149 119 156 159 166 221 c 0
 175 263 187 299 202 332 c 0
 217 365 232 393 250 414 c 0
 268 435 287 453 308 468 c 0
 329 483 351 494 372 500 c 0
 393 506 416 509 440 509 c 0
 469 509 490 507 501 505 c 0
 512 503 523 497 533 489 c 0
 535 487 536 483 536 478 c 0
 536 469 533 460 528 453 c 1
 528 452 l 2
 527 451 521 444 510 433 c 1
 517 437 523 435 530 427 c 0
 532 427 533 425 534 423 c 0
 535 421 536 418 536 415 c 0
 536 412 536 407 535 402 c 0
EndSplineSet
Validated: 1
EndChar

StartChar: h
Encoding: 104 104 82
Width: 600
GlyphClass: 2
Flags: HMW
HStem: 414 87<382.5 451.5 391 451.5>
VStem: 298 2<768 772> 436 68<334.5 420>
LayerCount: 2
Fore
SplineSet
492 320 m 0
 483 278 472 226 461 163 c 0
 450 100 441 55 436 33 c 0
 432 14 425 0 415 -10 c 0
 406 -19 397 -23 389 -23 c 0
 382 -23 376 -18 371 -11 c 0
 369 -6 367 -1 367 6 c 0
 367 9 368 13 368 17 c 0
 371 36 379 72 392 126 c 0
 406 180 416 224 424 259 c 0
 432 294 436 323 436 346 c 0
 436 369 432 387 424 398 c 0
 417 409 406 414 392 414 c 2
 391 414 l 2
 374 414 358 410 343 403 c 0
 328 396 315 386 304 376 c 0
 293 366 284 354 274 340 c 0
 264 326 256 314 250 301 c 0
 244 288 238 276 233 264 c 0
 228 252 225 242 223 235 c 0
 221 228 218 221 218 217 c 0
 218 213 215 207 213 199 c 0
 211 191 209 184 208 179 c 0
 205 166 200 151 196 131 c 0
 192 111 188 96 185 82 c 0
 182 68 175 46 166 16 c 0
 162 4 155 -5 145 -12 c 0
 135 -19 126 -22 117 -22 c 1
 115 -21 l 2
 112 -21 108 -21 106 -20 c 0
 104 -19 101 -16 99 -14 c 0
 97 -11 96 -7 96 -2 c 0
 96 3 97 8 99 15 c 0
 107 44 121 94 140 167 c 0
 159 240 170 288 175 313 c 0
 197 428 225 565 259 723 c 0
 262 738 268 750 275 757 c 0
 282 764 290 768 298 768 c 1
 298 776 300 776 300 768 c 1
 307 768 312 766 315 761 c 0
 319 756 319 746 317 732 c 0
 302 655 277 527 244 349 c 1
 255 367 265 384 275 401 c 0
 282 414 291 426 301 437 c 0
 311 448 323 458 336 468 c 0
 349 478 364 486 381 492 c 0
 401 498 421 501 443 501 c 0
 460 501 473 496 482 488 c 0
 491 480 498 468 501 452 c 0
 503 440 504 427 504 413 c 0
 504 387 500 356 492 320 c 0
EndSplineSet
Validated: 1
EndChar

StartChar: i
Encoding: 105 105 83
Width: 600
GlyphClass: 2
Flags: HMW
HStem: -17 62<128 288> 406 61<328 402> 581 130<394.5 441.5 398 441.5>
VStem: 359 125
LayerCount: 2
Fore
SplineSet
119 -12 m 0
 118 -10 116 -5 116 -1 c 0
 116 3 118 8 119 13 c 0
 122 23 126 31 131 37 c 0
 136 42 143 45 153 45 c 2
 288 45 l 1
 295 82 300 111 303 132 c 0
 306 153 311 173 315 194 c 0
 320 217 328 262 342 326 c 0
 350 362 356 383 357 388 c 1
 358 385 359 389 360 401 c 1
 356 394 353 395 350 404 c 0
 346 405 340 406 332 406 c 0
 324 406 314 405 302 405 c 0
 290 405 281 404 274 404 c 2
 256 404 l 1
 255 404 l 2
 250 404 248 406 246 409 c 0
 245 412 244 416 244 418 c 0
 244 420 245 424 245 427 c 0
 246 438 249 446 254 453 c 0
 258 458 264 461 271 461 c 2
 272 461 l 1
 309 465 344 467 375 467 c 2
 402 467 l 2
 408 467 413 465 416 463 c 0
 419 461 421 457 421 453 c 0
 423 442 423 432 421 424 c 0
 408 382 397 338 387 296 c 0
 377 254 368 217 362 186 c 0
 357 155 349 108 339 45 c 1
 458 45 l 2
 466 45 470 44 471 42 c 0
 472 40 473 36 473 34 c 0
 473 32 472 27 471 21 c 0
 469 10 465 3 459 -3 c 0
 453 -9 446 -12 436 -12 c 0
 426 -12 380 -12 298 -14 c 0
 215 -16 159 -17 132 -17 c 0
 124 -17 120 -15 119 -12 c 0
391 690 m 0
 408 703 424 710 441 711 c 0
 442 711 443 712 444 712 c 0
 459 712 470 706 477 696 c 0
 482 688 483 679 483 669 c 0
 483 664 483 658 482 652 c 0
 477 633 468 617 454 604 c 0
 440 591 423 583 403 581 c 2
 398 581 l 2
 391 581 385 582 380 584 c 0
 375 586 370 591 366 597 c 0
 361 606 359 616 359 627 c 0
 359 652 370 673 391 690 c 0
EndSplineSet
Validated: 1
EndChar

StartChar: j
Encoding: 106 106 84
Width: 600
GlyphClass: 2
Flags: HMW
HStem: -287 66<65 109.5> 397 68 578 129<468.5 518.5>
VStem: 431 120<621.5 670>
LayerCount: 2
Fore
SplineSet
452 582 m 0
 445 585 440 590 437 597 c 0
 433 606 431 616 431 627 c 0
 431 634 431 641 433 649 c 0
 437 666 446 680 460 690 c 0
 476 701 492 707 511 707 c 0
 526 707 537 702 544 692 c 0
 549 684 551 675 551 665 c 0
 551 660 550 654 549 647 c 0
 544 627 536 611 521 598 c 0
 506 585 490 578 473 578 c 0
 464 578 457 580 452 582 c 0
211 -193 m 0
 230 -183 246 -171 262 -156 c 0
 278 -141 291 -123 303 -102 c 0
 315 -81 325 -56 330 -29 c 0
 331 -23 335 3 343 48 c 0
 351 93 360 139 369 186 c 0
 378 233 395 303 417 398 c 1
 412 389 405 389 400 397 c 1
 387 396 350 396 288 396 c 0
 262 396 246 397 241 397 c 0
 236 397 232 398 230 399 c 0
 228 400 225 403 223 407 c 0
 221 411 219 415 219 420 c 0
 219 422 219 426 220 431 c 0
 222 438 227 445 233 451 c 0
 239 457 247 459 257 459 c 0
 277 460 305 462 342 463 c 0
 379 464 406 465 422 465 c 0
 440 465 453 464 464 464 c 2
 465 464 l 2
 470 464 475 462 478 460 c 0
 481 458 483 454 483 450 c 0
 484 439 484 430 483 423 c 0
 475 401 469 382 464 367 c 0
 462 360 460 351 458 342 c 0
 454 325 442 270 423 178 c 0
 406 87 391 15 380 -36 c 0
 374 -64 367 -90 357 -113 c 0
 347 -136 335 -156 322 -173 c 0
 309 -190 296 -205 280 -218 c 0
 264 -231 249 -242 233 -250 c 0
 217 -258 200 -265 182 -271 c 0
 162 -277 144 -282 125 -284 c 0
 106 -286 88 -287 69 -287 c 0
 61 -287 55 -284 51 -280 c 0
 49 -278 48 -275 48 -272 c 0
 48 -269 49 -265 49 -262 c 0
 51 -251 57 -241 65 -233 c 0
 73 -225 80 -221 86 -221 c 0
 133 -221 174 -212 211 -193 c 0
EndSplineSet
Validated: 1
EndChar

StartChar: k
Encoding: 107 107 85
Width: 600
GlyphClass: 2
Flags: HMW
VStem: 379 58
LayerCount: 2
Fore
SplineSet
395 -22 m 0
 393 -22 390 -20 388 -17 c 0
 385 -14 381 -7 379 4 c 0
 378 9 372 23 363 45 c 0
 354 68 345 91 336 113 c 0
 327 136 318 163 310 192 c 0
 301 219 296 242 294 261 c 2
 292 283 l 1
 201 199 l 1
 196 199 l 1
 194 190 l 2
 187 165 181 135 176 101 c 0
 170 67 165 44 162 32 c 0
 158 11 151 -3 142 -11 c 0
 134 -19 125 -23 116 -23 c 0
 115 -23 113 -22 112 -22 c 0
 104 -22 98 -18 93 -9 c 0
 91 -4 90 2 90 10 c 0
 90 13 91 18 93 23 c 0
 102 54 115 104 131 173 c 0
 160 291 190 424 222 571 c 0
 237 650 247 698 251 718 c 0
 253 735 259 748 267 756 c 0
 275 764 284 768 293 768 c 0
 300 768 306 764 309 756 c 0
 311 751 312 745 312 737 c 0
 312 733 311 729 310 724 c 0
 293 638 261 488 214 277 c 1
 240 302 l 2
 275 339 318 382 370 433 c 1
 427 480 459 506 466 512 c 0
 475 521 482 528 489 530 c 0
 492 532 496 533 498 533 c 0
 501 533 505 529 507 522 c 0
 509 516 510 510 510 504 c 0
 510 495 503 483 486 469 c 0
 471 452 420 404 334 324 c 1
 336 317 l 2
 341 292 352 257 369 212 c 0
 386 165 402 125 415 93 c 0
 429 64 437 45 438 37 c 0
 436 15 427 -2 413 -13 c 0
 405 -19 399 -22 395 -22 c 0
EndSplineSet
Validated: 1
EndChar

StartChar: l
Encoding: 108 108 86
Width: 600
GlyphClass: 2
Flags: HMW
HStem: -30 61 414 59 481 21G
VStem: 187 67<87.501 125>
LayerCount: 2
Fore
SplineSet
451 44 m 0
 451 33 447 23.0009765625 438 13.0009765625 c 0
 429 4.0009765625 418 -2.9990234375 407 -7.9990234375 c 0
 384 -19.9990234375 321 -29.9990234375 310 -29.9990234375 c 2
 301 -29.9990234375 l 2
 261 -27.9990234375 230 -12.9990234375 209 14.0009765625 c 0
 199 27.0009765625 193 45.0009765625 190 66.0009765625 c 0
 189 75.0009765625 187 83.0009765625 187 92.0009765625 c 0
 187 107.000976562 190 123.000976562 193 141.000976562 c 0
 195 156.000976562 198 172.000976562 203 192.000976562 c 0
 208 215.000976562 213 231.000976562 215 239.000976562 c 0
 217 247.000976562 220 262.000976562 226 283.000976562 c 0
 232 304.000976562 236 317.000976562 237 324.000976562 c 0
 238 331.000976562 242 344.000976562 248 364.000976562 c 0
 298.357421875 531.858398438 298.357421875 531.858398438 313 649.000976562 c 0
 313 657.000976562 317 665.000976562 322 673.000976562 c 0
 327 680.000976562 331 683.000976562 336 683.000976562 c 0
 342 683.000976562 347 680.000976562 354 673.000976562 c 0
 362.26953125 664.731445312 367.576171875 659.424804688 367.576171875 641.909179688 c 0
 367.576171875 610.530273438 350.543945312 539.969726562 303 343 c 0
 295 314 289 294 287 283 c 0
 285 272 280 254 274 228 c 0
 268 202 263 187 263 183 c 0
 263 179 261 168 257 151 c 0
 255 140 254 130 254 120 c 0
 254 99 257 82 266 67 c 0
 279 45 300 32 327 31 c 2
 334 31 l 2
 361 31 408 43 439 59 c 0
 441 59 444 60 445 60 c 0
 446 60 447 59 447 59 c 2
 449 57 451 51 451 44 c 0
EndSplineSet
Validated: 524289
EndChar

StartChar: m
Encoding: 109 109 87
Width: 600
GlyphClass: 2
Flags: HMW
HStem: 416 94<289.5 342.5>
VStem: 314 40 469 65<387.5 472.5>
LayerCount: 2
Fore
SplineSet
269 408 m 0
 260 402 250 392 239 379 c 0
 220 357 203 329 186 297 c 1
 180 275 171 234 159 177 c 0
 154 154 148 124 141 87 c 0
 134 50 129 28 127 19 c 0
 125 10 121 3 118 -3 c 0
 115 -9 111 -15 107 -17 c 0
 103 -19 99 -20 95 -21 c 0
 91 -22 88 -23 83 -23 c 0
 76 -23 70 -21 68 -17 c 0
 67 -15 66 -11 66 -5 c 0
 66 1 67 7 68 15 c 0
 69 23 73 39 78 65 c 0
 83 91 87 116 92 140 c 0
 116 251 140 360 164 467 c 0
 169 488 176 504 187 513 c 0
 196 521 204 525 212 525 c 2
 213 525 l 1
 214 525 l 2
 216 525 219 525 221 524 c 0
 226 522 228 516 228 508 c 0
 228 500 226 490 222 477 c 0
 220 472 217 464 213 453 c 2
 205 427 l 2
 196 405 187 374 177 335 c 1
 193 370 209 397 225 416 c 1
 261 478 299 510 340 510 c 0
 345 510 350 504 352 492 c 0
 355 479 357 462 357 441 c 0
 357 435 356 415 355 381 c 1
 362 401 369 412 376 415 c 1
 418 478 465 510 518 510 c 0
 522 510 525 508 527 506 c 0
 532 499 534 484 534 461 c 0
 534 449 532 433 529 413 c 0
 519 346 502 264 479 167 c 0
 468 122 458 77 450 34 c 0
 448 21 444 10 441 2 c 0
 438 -6 435 -12 432 -15 c 0
 429 -18 425 -20 423 -21 c 0
 421 -22 417 -23 414 -23 c 2
 408 -23 l 2
 406 -23 403 -22 401 -21 c 0
 399 -20 396 -18 394 -16 c 0
 392 -14 390 -7 390 3 c 0
 390 10 392 18 393 27 c 0
 397 53 402 80 408 107 c 0
 416 132 424 164 432 205 c 0
 440 240 448 272 455 301 c 0
 462 330 466 354 468 374 c 0
 468 380 469 385 469 390 c 0
 469 399 467 405 465 409 c 0
 462 414 457 416 452 416 c 2
 451 416 l 2
 431 416 413 405 394 383 c 0
 377 362 361 335 345 301 c 1
 339 262 328 212 313 150 c 0
 298 88 288 46 285 24 c 0
 283 13 280 4 278 -2 c 0
 276 -9 272 -14 269 -16 c 0
 264 -21 258 -23 253 -23 c 0
 251 -23 249 -22 249 -22 c 1
 248 -22 l 2
 242 -22 237 -20 235 -16 c 0
 234 -14 233 -9 233 -2 c 0
 233 1 234 9 235 20 c 0
 238 41 247 78 261 131 c 0
 275 184 285 226 291 256 c 0
 293 256 295 263 296 279 c 0
 308 339 314 374 314 387 c 0
 314 401 310 410 302 414 c 0
 300 415 296 416 293 416 c 0
 286 416 278 414 269 408 c 0
EndSplineSet
Validated: 1
EndChar

StartChar: n
Encoding: 110 110 88
Width: 600
GlyphClass: 2
Flags: HMW
HStem: 242 2 417 93<378.5 427>
VStem: 406 2<-26.5 -23> 434 61<352 417.5>
LayerCount: 2
Fore
SplineSet
107 17 m 0
 109 23 112 40 115 68 c 0
 118 96 122 120 125 140 c 0
 134 185 149 248 170 326 c 0
 191 404 205 449 207 462 c 0
 212 482 220 495 229 503 c 0
 237 511 245 515 253 515 c 2
 255 515 l 1
 256 515 l 2
 263 515 268 512 270 507 c 0
 271 505 272 502 272 496 c 0
 272 490 269 482 267 472 c 0
 263 455 260 445 259 440 c 0
 252 427 246 405 240 375 c 1
 253 400 265 418 277 428 c 1
 293 451 313 470 336 486 c 0
 359 502 387 510 419 510 c 0
 435 510 448 507 459 501 c 0
 472 494 480 482 486 466 c 0
 492 450 495 429 495 406 c 0
 495 383 491 355 485 324 c 0
 477 281 469 226 462 161 c 0
 455 96 450 51 447 30 c 0
 444 10 438 -3 431 -11 c 0
 424 -19 416 -22 408 -22 c 1
 408 -31 406 -31 406 -23 c 1
 398 -23 392 -20 388 -14 c 0
 385 -10 383 -4 383 5 c 0
 383 10 383 16 384 21 c 0
 385 26 390 58 398 118 c 0
 405 175 413 222 420 258 c 0
 429 306 434 341 434 363 c 0
 434 368 433 373 433 377 c 0
 431 392 425 402 415 409 c 0
 408 414 398 417 386 417 c 0
 371 417 357 415 343 409 c 0
 329 403 318 396 307 387 c 0
 296 378 285 367 274 355 c 0
 263 343 254 332 247 321 c 0
 240 310 232 299 224 286 c 0
 214 253.5 214 253.5 197 177 c 0
 192 154 187 124 182 88 c 0
 177 52 173 30 171 20 c 0
 167 4 161 -7 152 -14 c 0
 145 -20 137 -22 128 -22 c 0
 119 -22 113 -19 109 -14 c 0
 105 -9 105 2 107 17 c 0
EndSplineSet
Validated: 524289
EndChar

StartChar: o
Encoding: 111 111 89
Width: 600
GlyphClass: 2
Flags: HMW
HStem: -27 74<262 263> 472 46<319.5 374>
VStem: 94 70<156.5 163.5> 434 71<341 367>
LayerCount: 2
Fore
SplineSet
179 91 m 0
 187 78 199 68 214 61 c 0
 227 53 243 48 262 47 c 2
 269 47 l 2
 284 47 300 52 315 62 c 0
 330 72 344 85 356 104 c 0
 381 139 402 186 417 245 c 0
 428 289 434 326 434 356 c 0
 434 378 430 398 423 414 c 0
 414 435 401 451 382 461 c 0
 369 468 354 472 337 472 c 0
 302 472 272 452 247 412 c 0
 221 374 198 321 178 253 c 0
 168 214 164 183 164 161 c 0
 164 152 165 144 165 137 c 0
 167 119 171 104 179 91 c 0
484 224 m 0
 472 182 458 147 442 116 c 0
 426 85 405 59 383 37 c 0
 344 -5 294 -27 232 -27 c 0
 203 -27 178 -20 157 -5 c 0
 137 9 122 28 112 51 c 0
 100 80 94 113 94 150 c 0
 94 177 99 204 106 233 c 1
 106 234 l 1
 115 274 128 312 146 347 c 0
 164 382 185 412 209 437 c 0
 231 462 255 483 281 497 c 0
 307 511 335 518 364 518 c 0
 384 518 403 514 420 508 c 0
 437 502 453 492 467 478 c 0
 481 464 491 445 498 424 c 0
 503 406 505 384 505 358 c 0
 505 318 498 273 484 224 c 0
EndSplineSet
Validated: 1
EndChar

StartChar: p
Encoding: 112 112 90
Width: 600
GlyphClass: 2
Flags: HMW
HStem: -34 20G -31 70<239.5 284 239.5 298> 437 72<394.5 395.5>
VStem: 461 67<329 381.5>
LayerCount: 2
Fore
SplineSet
199 -20 m 1xb0
 195 -26 192 -24 187 -14 c 1
 178 -56 166 -102 155 -155 c 0
 144 -208 136 -242 133 -256 c 0
 130 -270 124 -280 117 -287 c 0
 110 -294 102 -297 94 -297 c 0
 87 -297 82 -294 79 -292 c 0
 74 -289 71 -283 71 -274 c 0
 71 -270 73 -265 73 -260 c 0
 84 -198 107 -90 139 61 c 0
 171 212 196 332 215 419 c 0
 222 454 228 478 232 492 c 0
 237 508 240 518 242 523 c 0
 247 532 254 538 262 543 c 0
 269 546 274 548 279 548 c 0
 286 548 292 545 295 539 c 0
 296 537 296 533 296 531 c 0
 296 529 296 525 295 523 c 0
 290 512 283 496 278 476 c 0
 276 473 273 462 271 443 c 1
 279 458 286 464 295 462 c 1
 337 493 377 509 412 509 c 0
 433 509 451 507 465 502 c 0
 479 497 492 489 502 477 c 0
 512 465 520 448 524 427 c 0
 527 411 528 392 528 371 c 0
 528 329 522 279 509 220 c 0
 504 198 498 174 488 151 c 0
 478 128 466 105 452 83 c 0
 438 61 422 42 405 25 c 0
 390 8 374 -6 355 -16 c 0
 336 -25 317 -31 298 -31 c 2x70
 284 -31 l 2
 244 -31 216 -27 199 -20 c 1xb0
325 419 m 0
 302 407 281 392 262 375 c 2
 258 372 l 1
 258 368 l 1
 248 311 l 2
 245 292 227 206 197 52 c 1
 205 48 l 2
 216 42 230 39 249 39 c 0
 268 39 287 39 307 40 c 0
 326 41 342 49 358 62 c 0
 374 75 388 92 399 113 c 0
 421 152 438 197 449 248 c 0
 456 285 461 316 461 342 c 0
 461 355 460 367 458 376 c 0
 456 391 450 403 443 413 c 0
 436 423 428 429 419 432 c 0
 410 435 401 437 390 437 c 0
 370 437 348 431 325 419 c 0
EndSplineSet
Validated: 1
EndChar

StartChar: q
Encoding: 113 113 91
Width: 600
GlyphClass: 2
Flags: HMW
HStem: -31 71<207 256 217 256> 417 53<341 395.5>
VStem: 96 72<112 162.5> 271 81 273 2
LayerCount: 2
Fore
SplineSet
96 122 m 0xf0
 96 142 99 161 104 181 c 0
 114 223 127 261 144 295 c 0
 161 329 178 357 198 378 c 0
 217 399 235 417 256 431 c 0
 277 445 296 455 317 461 c 0
 338 467 359 470 381 470 c 0
 410 470 434 465 455 455 c 0
 476 445 491 433 498 418 c 0
 502 411 504 403 504 395 c 0
 504 386 501 378 496 372 c 0
 491 367 486 364 480 362 c 1
 478 353 476 353 474 360 c 1
 441 218 420 129 411 92 c 0
 401 43 391 3 381 -30 c 0
 370 -83 360 -127 352 -162 c 1
 352 -163 l 1xf0
 343 -216 333 -261 324 -298 c 1
 273 -298 273 -298 273 -288 c 0xe8
 273 -284.837890625 271 -280 271 -275 c 0
 271 -270 272 -263 274 -255 c 0
 287 -205 307 -121 334 -3 c 1
 327 -15 321 -19 314 -14 c 1
 291 -25 261 -31 225 -31 c 2
 217 -31 l 2
 197 -31 179 -26 163 -18 c 0
 147 -10 135 2 125 16 c 0
 115 30 108 45 103 64 c 0
 98 83 96 102 96 122 c 0xf0
168 150 m 0
 168 135 169 122 171 109 c 0
 175 89 183 74 196 61 c 0
 209 48 225 41 243 40 c 2
 256 40 l 2
 289 40 317 46 342 61 c 2
 347 64 l 1
 356 106 382 216 424 394 c 1
 418 399 l 2
 408 406 398 411 387 413 c 0
 377 415 363 417 346 417 c 0
 336 417 325 415 314 411 c 0
 303 407 291 401 278 392 c 0
 265 383 253 371 242 357 c 0
 231 343 219 326 208 304 c 0
 196 282 186 257 179 230 c 0
 172 202 168 175 168 150 c 0
EndSplineSet
Validated: 524289
EndChar

StartChar: r
Encoding: 114 114 92
Width: 600
GlyphClass: 2
Flags: HMW
HStem: 441 65
LayerCount: 2
Fore
SplineSet
108 62 m 0
 112 94 116 120 119 140 c 0
 128 184 142 245 163 320 c 0
 184 395 197 443 202 463 c 0
 207 482 214 495 223 503 c 0
 232 511 241 515 250 515 c 0
 257 515 262 512 264 507 c 0
 265 505 266 501 266 495 c 0
 266 489 265 481 263 472 c 0
 250 431 238 386 226 335 c 1
 239 359 251 379 264 396 c 0
 272 409 282 421 296 434 c 0
 310 447 325 459 344 470 c 0
 363 481 385 490 410 496 c 0
 437 503 462 506 487 506 c 2
 495 506 l 2
 496 503 497 498 498 492 c 0
 499 486 500 480 500 473 c 0
 500 466 499 458 499 451 c 0
 497 434 494 417 491 400 c 0
 488 383 484 370 479 360 c 0
 474 349 468 340 462 335 c 0
 456 330 449 325 440 323 c 2
 436 323 l 2
 431 323 427 325 425 328 c 0
 422 333 420 338 420 345 c 2
 420 349 l 2
 420 356 421 365 424 377 c 0
 427 389 429 400 429 409 c 0
 429 418 426 427 422 435 c 0
 422 443 420 445 419 441 c 1
 412 441 l 2
 391 441 372 436 353 427 c 0
 334 418 317 407 303 394 c 0
 289 381 275 366 262 350 c 0
 240 323 222 297 210 272 c 1
 201 235 194 207 191 187 c 0
 185 160 179 125 173 83 c 0
 170 54 166 31 163 14 c 0
 161 2 156 -7 151 -13 c 0
 145 -20 136 -24 124 -24 c 0
 114 -24 107 -22 103 -17 c 0
 101 -15 100 -11 100 -6 c 0
 100 -1 102 4 102 10 c 0
 104 21 106 38 108 62 c 0
EndSplineSet
Validated: 1
EndChar

StartChar: s
Encoding: 115 115 93
Width: 600
GlyphClass: 2
Flags: HMW
HStem: -35 63<205.5 251.5> 405 64<404 489 413 489>
VStem: 105 72 183 61<282.5 313> 403 65<140 162> 425 70<393 428 405 428>
LayerCount: 2
Fore
SplineSet
161 -26 m 0xf8
 145 -20 131 -10 121 3 c 0
 111 16 105 32 105 51 c 0
 105 81 114 101 133 110 c 0
 140 113 147 115 154 115 c 0
 159 115 165 112 169 108 c 0
 173 104 176 98 177 89 c 0
 178 80 180 74 181 69 c 0
 182 64 184 59 187 52 c 0
 190 45 195 40 201 37 c 0
 212 31 227 28 244 28 c 0
 259 28 277 33 298 42 c 0
 319 51 340 63 360 79 c 0
 381 96 395 113 401 131 c 0
 402 134 403 138 403 142 c 0xf8
 403 151 400 158 394 165 c 0
 387 173 376 180 363 185 c 0
 351 190 339 195 326 199 c 0
 323.1875 198.4375 320.41015625 198.15625 317.654296875 198.15625 c 0
 305.71484375 198.15625 294.1875 203.4375 282 214 c 1
 264 220 250 226 238 231 c 0
 212 242 195 253 188 264 c 0
 185 270 183 278 183 287 c 0
 183 296 184 306 186 317 c 0
 197 363 227 400 276 427 c 0
 323 455 394 469 489 469 c 1
 489 469 491 466 491 464 c 0
 491 462 493 457 494 449 c 0
 495 441 495 432 495 424 c 0
 495 416 495 407 494 396 c 0
 493 385 491 375 490 367 c 0
 488 359 486 352 485 346 c 0
 484 340 481 334 477 329 c 0
 473 324 467 321 461 319 c 0
 458 318 454 317 450 317 c 0
 446 317 443 318 440 320 c 0
 435 324 431 329 431 334 c 0
 427 354 425 373 425 393 c 2
 425 405 l 1xf4
 413 405 l 2
 395 405 378 403 360 400 c 0
 343 397 327 392 310 386 c 0
 293 380 279 370 267 359 c 0
 254 346 246 332 244 316 c 2
 244 313 l 2
 244 302 250 293 263 285 c 0
 276 277 295 268 322 261 c 0
 341 256 357 251 372 246 c 0
 388 241 404 234 419 226 c 0
 434 218 445 210 453 201 c 0
 461 192 465 182 467 171 c 0
 467 168 468 164 468 160 c 0
 468 151 466 142 463 132 c 0
 452 98 432 68 404 42 c 0
 377 17 348 -3 316 -16 c 0
 284 -29 251 -35 216 -35 c 0
 195 -35 177 -32 161 -26 c 0xf8
EndSplineSet
Validated: 524289
EndChar

StartChar: t
Encoding: 116 116 94
Width: 600
GlyphClass: 2
Flags: HMW
HStem: -22 61<251 284 251 284> 422 59<426 447.5> 489 21G
VStem: 137 67<95.5 133>
LayerCount: 2
Fore
SplineSet
384 48 m 0
 384 37 380 27 371 17 c 0
 362 8 351 1 340 -4 c 0
 317 -16 290 -22 260 -22 c 2
 251 -22 l 2
 211 -20 180 -5 159 22 c 0
 149 35 143 53 140 74 c 0
 139 83 137 91 137 100 c 0
 137 115 140 131 143 149 c 0
 145 164 148 180 153 200 c 0
 158 223 163 239 165 247 c 0
 167 255 170 270 176 291 c 0
 182 312 186 325 187 332 c 0
 188 339 192 352 198 372 c 0
 204 392 209 409 214 426 c 1
 155 426 l 2
 149 426 145 427 143 429 c 0
 141 431 140 434 140 439 c 0
 140 444 141 450 142 456 c 0
 144 467 148 476 153 482 c 0
 158 488 166 491 176 491 c 0
 194 491 209 490 220 490 c 1
 223 494 228 494 231 489 c 1
 232 497 233 500 233 499 c 1
 246 548 256 601 263 657 c 0
 263 665 267 673 272 681 c 0
 277 688 281 691 286 691 c 0
 292 691 297 688 304 681 c 0
 309 676 313 671 313 666 c 0
 302 612 291 552 281 487 c 1
 378 483 432 481 444 481 c 0
 451 481 457 480 459 478 c 0
 461 476 462 472 462 465 c 0
 462 461 462 456 461 451 c 0
 459 442 453 434 448 429 c 0
 443 424 436 422 426 422 c 0
 367 424 316 424 269 424 c 1
 266 404 260 380 253 351 c 0
 245 322 239 302 237 291 c 0
 235 280 230 262 224 236 c 0
 218 210 213 195 213 191 c 0
 213 187 211 176 207 159 c 0
 205 148 204 138 204 128 c 0
 204 107 207 90 216 75 c 0
 229 53 250 40 277 39 c 2
 284 39 l 2
 311 39 341 47 372 63 c 0
 374 63 377 64 378 64 c 0
 379 64 380 63 380 63 c 2
 382 61 384 55 384 48 c 0
EndSplineSet
Validated: 1
EndChar

StartChar: u
Encoding: 117 117 95
Width: 600
GlyphClass: 2
Flags: HMW
HStem: -17 69<179.5 232>
VStem: 96 69<80 107.5>
LayerCount: 2
Fore
SplineSet
502 446 m 0
 502 436 497 414 490 381 c 0
 483 348 479 329 478 322 c 0
 466 264 444 164 411 23 c 0
 407 6 401 -5 394 -12 c 0
 387 -19 379 -23 371 -23 c 0
 369 -23 366 -24 366 -24 c 2
 359 -24 354 -22 351 -17 c 0
 348.856445312 -14.3203125 347.861328125 -9.91796875 347.861328125 -3.7919921875 c 0
 347.861328125 1.5126953125 348.607421875 8.1103515625 350 16 c 0
 354 28 357 48 361 77 c 1
 353.5 62.9375 346 55.90625 338.5 55.90625 c 2
 337 56 l 1
 322 43 308 31 291 20 c 0
 274 9 255 -1 233 -8 c 0
 216 -14 199 -17 182 -17 c 0
 177 -17 173 -16 168 -16 c 0
 152 -15 138 -7 125 6 c 0
 112 19 104 35 100 55 c 0
 98 66 96 75 96 85 c 0
 96 95 98 105 99 114 c 0
 106 160 116 213 130 274 c 0
 135 295 143 324 153 362 c 0
 163 400 170 426 172 441 c 0
 175 454 181 464 189 470 c 0
 197 476 204 479 213 479 c 0
 222 479 229 476 233 471 c 0
 235 469 235 464 235 458 c 0
 235 455 235 450 234 444 c 0
 233 438 228 418 219 381 c 0
 209 343 201 311 196 284 c 0
 180 215 171 163 167 126 c 0
 166 118 165 111 165 104 c 0
 165 86 168 73 176 65 c 0
 183 60 190 56 197 55 c 0
 204 54 212 52 221 52 c 0
 243 52 269 58 295 72 c 0
 321 86 347 102 370 122 c 1
 370 115 372 116 373 125 c 0
 383 167 393 218 405 278 c 0
 422 352 435 407 440 442 c 0
 442 453 447 462 455 468 c 0
 463 474 471 479 479 479 c 0
 487 479 494 477 499 471 c 0
 502 467 503 462 503 457 c 0
 503 454 503 450 502 446 c 0
EndSplineSet
Validated: 524289
EndChar

StartChar: v
Encoding: 118 118 96
Width: 600
GlyphClass: 2
Flags: HMW
VStem: 112 70<415 453.5 421 453.5>
LayerCount: 2
Fore
SplineSet
487 462 m 2
 486 453 481 443 474 430 c 1
 474 436 473 436 473 430 c 0
 460 403 444 375 425 345 c 0
 406 313 377 261 336 188 c 0
 298 117 264 52 233 -7 c 0
 230 -16 224 -22 216 -25 c 0
 212 -26 209 -27 205 -27 c 0
 201 -27 197 -26 193 -24 c 0
 188 -20 184 -14 183 -7 c 0
 148 144 124 285 112 415 c 1
 112 421 l 2
 112 449 119 470 132 484 c 0
 136 488 141 492 146 494 c 0
 150 497 154 499 158 499 c 0
 161 499 165 497 168 495 c 0
 171 493 175 486 177 477 c 0
 180 470 182 460 182 447 c 0
 184 392 188 346 192 306 c 2
 196 264 l 2
 197 253 201 225 207 182 c 0
 214 135 218 110 218 107 c 0
 219 90 221 77 221 66 c 1
 227 71 233 81 239 95 c 0
 315 232 377 352 426 455 c 0
 436 477 446 491 457 498 c 0
 463 502 468 504 471 504 c 0
 474 504 478 503 480 501 c 0
 485 496 487 487 487 472 c 2
 487 462 l 2
EndSplineSet
Validated: 1
EndChar

StartChar: w
Encoding: 119 119 97
Width: 600
GlyphClass: 2
Flags: HMW
HStem: -6 21G<117 117>
VStem: 79 84 277 45<48.5 78> 303 43
LayerCount: 2
Fore
SplineSet
81 3 m 0xd0
 80 43 79 81 79 118 c 0
 79 239 87 347 102 442 c 0
 104 459 107 472 114 480 c 0
 122 491 133 496 144 496 c 0
 150 496 154 493 157 488 c 0
 160 483 163 475 163 462 c 2
 163 455 l 1
 151 371 138 246 125 80 c 0
 123 49 119 21 117 -6 c 1
 196 200 l 1
 242 335 274 422 290 460 c 0
 294 471 298 480 304 487 c 0
 310 495 317 499 325 499 c 0
 332 499 337 495 340 489 c 0
 343 485 346 475 346 459 c 0
 346 454 344 429 340 385 c 0
 337 341 334 288 330 226 c 0
 325 165 322 116 322 78 c 2xe0
 322 10 l 1
 329 27 336 47 343 69 c 0
 366 135 408 263 468 452 c 0
 473 471 480 483 487 489 c 0
 492 493 498 495 503 495 c 0
 505 495 507 494 509 494 c 0
 513 492 517 488 519 482 c 0
 521 478 522 472 522 465 c 0
 522 461 520 453 517 441 c 0
 495 373 466 295 432 208 c 0
 400 120 374 54 354 10 c 0
 348 -4 341 -14 333 -20 c 0
 326 -25 319 -27 310 -27 c 2
 307 -27 l 1
 306 -27 l 2
 299 -27 293 -24 288 -19 c 0
 284 -14 280 -5 279 9 c 0
 278 24 277 40 277 57 c 0
 277 99 283 165 293 252 c 0
 300 307 303 341 303 353 c 0
 304 380 307 405 309 428 c 1
 300 410 291 388 282 363 c 0
 272 337 260 301 245 255 c 0
 230 211 213 165 196 120 c 0
 177 76 160 34 140 -4 c 0
 136 -15 130 -23 123 -28 c 0
 116 -33 109 -36 104 -36 c 0
 99 -36 93 -33 88 -27 c 0
 83 -22 81 -12 81 3 c 0xd0
EndSplineSet
Validated: 1
EndChar

StartChar: x
Encoding: 120 120 98
Width: 600
GlyphClass: 2
Flags: HMW
HStem: -22 21G<400.5 406> 483 20G<225.5 227.5>
LayerCount: 2
Fore
SplineSet
87 -23 m 0
 84 -21 80 -17 77 -10 c 0
 75 -3 72 4 72 12 c 0
 72 22 78 34 91 48 c 0
 100 60 116 76 138 96 c 2
 211 175 l 2
 236 201 256 226 273 248 c 2
 277 254 l 1
 274 261 l 2
 263 290 250 322 231 359 c 0
 212 392 200 414 196 424 c 0
 192 432 191 439 191 446 c 0
 191 457 192 466 195 473 c 0
 197 479 202 485 207 491 c 0
 212 496 216 500 221 502 c 0
 222 502 225 503 226 503 c 0
 229 503 232 501 235 499 c 0
 240 495 246 488 250 477 c 0
 258 462 268 438 282 405 c 0
 296 372 308 340 318 311 c 2
 325 292 l 1
 342 315 372 356 414 413 c 0
 442 446 463 468 476 481 c 0
 491 498 503 506 513 506 c 0
 516 506 520 503 522 498 c 0
 526 490 527 481 527 471 c 0
 527 469 526 466 525 463 c 0
 523 458 518 452 511 447 c 2
 350 256 l 2
 348 254 343 250 340 248 c 2
 343 240 l 2
 352 216 363 192 374 170 c 0
 386 145 396 123 406 102 c 0
 417 84 427 69 432 56 c 0
 436 47 438 38 438 30 c 0
 438 23 437 17 436 12 c 0
 435 7 431 1 426 -6 c 0
 421 -13 417 -18 412 -20 c 0
 410 -21 407 -22 405 -22 c 0
 396 -22 388 -13 381 5 c 0
 349 71 322 132 301 188 c 2
 295 205 l 1
 283 191 l 2
 263 165 234 128 195 80 c 1
 153 36 128 9 120 0 c 0
 112 -11 105 -18 98 -21 c 0
 95 -23 91 -24 90 -24 c 0
 89 -24 87 -24 87 -23 c 0
EndSplineSet
Validated: 1
EndChar

StartChar: y
Encoding: 121 121 99
Width: 600
GlyphClass: 2
Flags: HMW
VStem: 161 64<430 470.5 442 470.5> 224 1<448.5 472.5>
LayerCount: 2
Fore
SplineSet
540 441 m 0x80
 518 401 485 348 443 280 c 0
 403 212 366 148 331 88 c 0
 274 -13 218 -109 161 -200 c 2
 97 -296 l 2
 90 -306 81 -313 72 -316 c 0
 70 -316 67 -317 65 -317 c 0
 61 -317 57 -316 53 -312 c 0
 48 -307 46 -300 46 -292 c 0
 46 -289 47 -285 47 -282 c 0
 47 -275 51 -268 57 -260 c 0
 116 -177 172 -88 227 6 c 1
 194 169 172 310 161 430 c 1
 161 442 l 2
 161 451 162 459 164 466 c 0
 167 476 171 484 175 489 c 0
 179 494 185 499 190 501 c 0
 195 504 199 506 204 506 c 0
 206 506 209 505 212 504 c 0
 215 503 218 499 220 493 c 0
 222 487 224 478 224 467 c 1x40
 224 474 225 474 225 467 c 0
 225 430 229 387 234 340 c 0
 239 293 245 256 249 228 c 0
 253 200 261 151 272 84 c 1
 277 92 283 101 288 110 c 0
 372 255 439 374 489 468 c 0
 495 479 501 488 507 495 c 0
 513 502 518 506 523 508 c 0
 528 510 532 511 535 511 c 0
 538 511 542 510 544 509 c 0
 546 507 549 504 550 502 c 0
 552 497 554 490 554 482 c 0
 554 480 553 475 552 469 c 0
 550 460 546 451 540 441 c 0x80
EndSplineSet
Validated: 1
EndChar

StartChar: z
Encoding: 122 122 100
Width: 600
GlyphClass: 2
Flags: HMW
HStem: 9 57<173.5 204> 417 61<288 414>
LayerCount: 2
Fore
SplineSet
408 13 m 0
 402 6 393 3 380 3 c 0
 376 3 353 4 310 6 c 0
 267 8 225 9 183 9 c 0
 164 9 138 8 103 7 c 0
 101 7 98 8 97 9 c 0
 96 10 93 15 92 20 c 0
 91 25 89 31 89 37 c 0
 89 46 91 54 95 61 c 0
 97 65 103 73 112 83 c 0
 121 93 134 106 152 122 c 0
 163 133 191 157 233 197 c 0
 272 237 308 275 345 313 c 0
 382 350 410 379 429 399 c 2
 450 421 l 1
 420 420 l 2
 377 418 340 417 310 417 c 0
 266 417 232 419 212 424 c 0
 206 425 202 428 199 430 c 0
 196 432 194 437 194 442 c 0
 194 444 195 448 195 452 c 0
 197 464 203 474 210 482 c 0
 214 487 219 490 225 490 c 0
 226 490 228 489 229 489 c 0
 285 482 341 478 397 478 c 0
 431 478 465 479 498 481 c 2
 499 481 l 2
 501 481 502 480 503 479 c 0
 504 478 506 475 507 473 c 0
 509 468 510 463 510 456 c 0
 510 452 509 448 509 444 c 0
 509 440 505 433 499 423 c 0
 493 413 481 399 466 379 c 0
 444 350 419 322 391 295 c 0
 366 268 344 245 324 226 c 2
 253 159 l 2
 225 132 200 108 178 87 c 2
 156 66 l 1
 399 66 l 2
 410 64 418 60 420 56 c 0
 422 54 423 50 423 48 c 0
 423 46 422 43 422 40 c 0
 420 29 415 20 408 13 c 0
EndSplineSet
Validated: 1
EndChar

StartChar: braceleft
Encoding: 123 123 101
Width: 600
GlyphClass: 2
Flags: HMW
HStem: -87 60<286.5 321> 332 76<76.5 103.5> 778 60<486 499.5>
VStem: 117 68<13.5 47> 227 65<271 292.5 275 292.5> 250 69<571.5 615> 268 69<472 488 481 483.5>
LayerCount: 2
Fore
SplineSet
344 -46 m 0xf8
 344 -48 343 -50 343 -52 c 0
 341 -61 335 -70 328 -77 c 0
 322 -84 313 -87 301 -87 c 0
 272 -87 245 -85 221 -79 c 0
 197 -73 176 -65 159 -54 c 0
 142 -43 130 -30 123 -13 c 0
 119 -3 117 8 117 19 c 0
 117 27 118 35 120 44 c 0
 124 62 129 79 137 96 c 0
 145 113 153 128 161 141 c 2
 161 141 169 155 186 182 c 0
 195 195 203 210 210 225 c 0
 217 240 223 256 227 271 c 1
 227 275 l 2
 227 285 219 295 201 306 c 0
 183 316 159 323 130 328 c 0
 113 330 96 332 78 332 c 0
 75 332 71 333 68 334 c 0
 65 335 63 339 60 344 c 0
 57 349 55 354 55 361 c 0
 55 364 56 368 56 371 c 0
 58 382 63 391 70 398 c 0
 77 405 86 408 95 408 c 0
 112 408 127 409 140 410 c 0
 153 411 167 413 182 415 c 0
 197 417 209 420 220 424 c 0
 231 428 242 435 251 443 c 0
 260 451 266 461 268 472 c 2xf2
 268 481 l 2
 268 486 266 494 264 503 c 0
 262 512 259 523 255 534 c 0
 251 545 250 561 250 582 c 0xf4
 250 601 252 621 257 642 c 0
 271 702 301 750 348 785 c 0
 395 820 452 838 520 838 c 0
 529 838 536 836 541 831 c 0
 543 828 545 824 545 821 c 0
 545 812 539 802 525 791 c 0
 513 782 503 778 496 778 c 0
 452 778 414 768 383 746 c 0
 341 716 319 672 319 615 c 2
 319 601 l 2
 320 580 322 562 326 547 c 0
 330 532 334 520 335 509 c 0
 336 498 337 491 337 488 c 2xf2
 337 481 l 2
 335 470 328 459 319 449 c 0xf4
 310 439 299 429 286 421 c 0
 259 404 230 393 199 386 c 2
 156 377 l 1
 198 363 l 2
 229 352 253 339 271 322 c 0
 285 309 292 297 292 288 c 0
 292 287 291 285 291 284 c 0
 289 270 283 256 276 241 c 0
 269 226 261 213 253 200 c 0
 245 187 237 173 229 159 c 0
 221 145 212 129 204 111 c 0
 196 93 190 76 186 57 c 0
 186 53 185 49 185 45 c 0
 185 35 188 26 194 17 c 0
 202 6 213 -2 226 -8 c 0
 239 -14 254 -19 269 -22 c 0
 284 -25 300 -27 316 -27 c 0
 326 -27 334 -30 339 -35 c 0
 342 -37 344 -41 344 -46 c 0xf8
EndSplineSet
Validated: 1
EndChar

StartChar: bar
Encoding: 124 124 102
Width: 600
GlyphClass: 2
Flags: HMW
VStem: 158 284
LayerCount: 2
Fore
SplineSet
440 789 m 2
 338 367 l 2
 271 92 232 -76 219 -138 c 0
 215 -150 209 -160 200 -166 c 0
 191 -172 183 -175 174 -175 c 2
 172 -175 l 2
 169 -175 166 -174 164 -173 c 0
 162 -172 160 -171 159 -169 c 0
 158 -167 158 -164 158 -159 c 0
 158 -154 160 -148 162 -139 c 0
 170 -112 190 -34 221 96 c 2
 320 513 l 2
 355 661 376 750 383 780 c 0
 387 795 393 805 399 813 c 0
 405 821 413 825 422 825 c 2
 425 825 l 2
 432 825 437 823 439 820 c 0
 441 817 442 813 442 808 c 0
 442 803 441 796 440 789 c 2
EndSplineSet
Validated: 1
EndChar

StartChar: braceright
Encoding: 125 125 103
Width: 600
GlyphClass: 2
Flags: HMW
HStem: -87 60<98.5 112> 353 77 778 60<277.5 312.5>
VStem: 264 69<268.5 281.5> 280 69<130.5 184.5> 309 65<468.5 487> 414 68<704 737.5>
LayerCount: 2
Fore
SplineSet
341 109 m 0xea
 327 49 297 1 250 -34 c 0
 203 -69 146 -87 78 -87 c 0
 69 -87 63 -85 58 -80 c 0
 56 -77 54 -73 54 -70 c 2
 54 -66 l 2
 56 -57 63 -49 74 -40 c 0
 85 -31 95 -27 102 -27 c 0
 147 -27 185 -16 216 5 c 0
 247 26 266 56 275 92 c 0
 278 107 280 122 280 139 c 0
 280 142 279 146 279 151 c 0
 279 172 276 191 273 208 c 0
 267 243 264 264 264 273 c 0xf2
 264 277 265 280 265 281 c 0
 267 292 272 303 281 313 c 0
 290 323 302 332 315 340 c 0
 342 356 371 368 402 375 c 2
 444 385 l 1
 404 399 l 2
 373 410 348 423 330 440 c 0
 316 453 309 464 309 473 c 0xe6
 309 474 310 476 310 477 c 0
 313 492 318 506 325 520 c 0
 332 534 338 546 346 558 c 0
 354 570 362 583 370 596 c 0
 378 609 387 624 394 641 c 0
 401 658 407 675 412 694 c 0
 413 698 414 702 414 706 c 0
 414 716 411 725 405 734 c 0
 398 745 387 753 373 759 c 0
 359 765 345 770 329 773 c 0
 313 776 298 778 282 778 c 0
 273 778 265 781 260 786 c 0
 257 789 255 793 255 797 c 0
 255 799 256 801 256 803 c 0
 258 812 263 821 270 828 c 0
 277 835 287 838 298 838 c 0
 327 838 353 835 377 829 c 0
 401 823 422 815 440 804 c 0
 457 794 469 781 476 764 c 0
 480 754 482 743 482 732 c 0
 482 724 481 716 479 707 c 0
 475 689 469 672 462 656 c 0
 455 640 447 625 439 613 c 0
 431 601 423 589 414 576 c 0
 405 563 397 550 390 536 c 0
 383 522 377 506 374 491 c 2
 374 487 l 2
 374 481 376 476 381 471 c 0
 386 466 392 461 400 456 c 0
 408 451 418 447 429 443 c 0
 440 439 454 436 471 434 c 0
 488 432 505 430 523 430 c 0
 526 430 530 429 533 428 c 0
 536 427 539 423 542 418 c 0
 545 413 547 408 547 401 c 2
 545 391 l 2
 543 380 537 371 531 364 c 0
 525 357 517 354 507 354 c 0
 490 354 474 354 461 353 c 0
 448 352 434 350 419 348 c 0
 404 346 391 341 380 337 c 0
 369 333 360 327 351 319 c 0
 342 311 336 301 334 290 c 0
 334 288 333 284 333 279 c 0xf2
 333 274 334 267 336 257 c 0
 338 247 341 236 344 224 c 0
 347 212 349 195 349 174 c 0
 349 153 346 131 341 109 c 0xea
EndSplineSet
Validated: 1
EndChar

StartChar: asciitilde
Encoding: 126 126 104
Width: 600
GlyphClass: 2
Flags: HMW
HStem: 276 81<347.5 378> 437 82<213 243.5>
LayerCount: 2
Fore
SplineSet
545 496 m 2
 545 493 l 2
 545 485 540 472 531 452 c 0
 527 444 523 434 516 423 c 0
 483 368 451 328 420 304 c 0
 396 285 374 276 353 276 c 0
 342 276 332 278 324 282 c 0
 316 286 308 291 302 299 c 0
 296 307 291 317 287 327 c 0
 283 337 278 350 273 367 c 0
 268 384 265 394 264 396 c 0
 263 398 261 403 259 409 c 0
 257 415 254 420 252 422 c 0
 250 422 248 425 246 427 c 0
 241 432 236 435 231 436 c 0
 227 436 222 437 216 437 c 0
 210 437 205 436 199 434 c 0
 193 432 188 427 182 422 c 0
 176 417 172 412 168 407 c 0
 160 397 142 369 117 324 c 0
 110 312 101 301 87 292 c 0
 76 285 68 282 62 282 c 2
 60 282 l 2
 59 282 57 286 56 292 c 0
 56 294 54 297 54 300 c 0
 54 303 57 310 60 320 c 0
 91 383 122 433 156 468 c 0
 189 502 217 519 239 519 c 0
 248 519 256 519 262 518 c 0
 268 517 274 515 280 513 c 0
 286 511 291 506 295 501 c 0
 299 496 303 489 307 479 c 0
 311 469 315 458 319 444 c 2
 323 426 l 2
 324 419 327 413 328 409 c 0
 332 394 335 385 338 380 c 0
 340 377 343 373 345 370 c 0
 349 365 353 360 358 359 c 0
 363 358 369 357 374 357 c 2
 378 357 l 1
 392 357 l 2
 395 357 399 359 405 360 c 0
 411 361 416 365 420 369 c 0
 424 373 430 378 435 384 c 0
 445 395 458 413 475 440 c 0
 486 457 497 472 510 485 c 0
 517 492 523 498 530 500 c 0
 532 500 536 501 538 501 c 0
 543 501 545 500 545 496 c 2
60 282 m 1024
EndSplineSet
Validated: 1
EndChar

StartChar: lambda
Encoding: 955 955 113
Width: 600
GlyphClass: 2
Flags: HMW
HStem: -28.1074 21G
LayerCount: 2
Fore
SplineSet
96.4248046875 -28.107421875 m 0
 91.091796875 -28.107421875 85.7744140625 -26.4423828125 80.470703125 -23.109375 c 0
 74.3603515625 -20.4423828125 69.994140625 -16.609375 67.3720703125 -11.609375 c 0
 64.75 -6.609375 64.1494140625 0.890625 65.5712890625 10.890625 c 0
 65.9892578125 12.890625 66.07421875 14.890625 65.8251953125 16.890625 c 0
 67.6357421875 25.5576171875 71.98828125 35.224609375 78.8837890625 45.8916015625 c 0
 146.58984375 162.55859375 236.473632812 299.225585938 348.536132812 455.892578125 c 1
 327.228515625 548.559570312 303.194335938 634.559570312 276.435546875 713.892578125 c 0
 273.966796875 721.225585938 273.360351562 727.892578125 274.61328125 733.892578125 c 2
 275.03125 735.892578125 l 2
 277.23046875 743.225585938 280.38671875 749.55859375 284.5 754.891601562 c 0
 288.614257812 760.224609375 293.756835938 764.891601562 299.924804688 768.891601562 c 0
 308.372070312 774.224609375 315.859375 776.557617188 322.387695312 775.890625 c 0
 325.720703125 775.890625 328.983398438 775.557617188 332.177734375 774.890625 c 0
 341.481445312 771.557617188 347.3515625 764.557617188 349.790039062 753.890625 c 0
 355.194335938 731.890625 363.579101562 700.223632812 374.944335938 658.890625 c 0
 400.170898438 572.223632812 423.7421875 479.223632812 445.658203125 379.890625 c 0
 460.208007812 321.890625 476.325195312 260.223632812 494.008789062 194.890625 c 0
 511.693359375 129.557617188 524.56640625 77.890625 532.627929688 39.890625 c 0
 535.06640625 29.2236328125 535.450195312 19.890625 533.778320312 11.890625 c 0
 532.107421875 3.890625 529.381835938 -2.7763671875 525.600585938 -8.109375 c 0
 518.84375 -18.109375 510.381835938 -25.109375 500.212890625 -29.109375 c 0
 490.044921875 -33.109375 480.044921875 -33.109375 470.212890625 -29.109375 c 0
 465.297851562 -27.109375 461.203125 -22.7763671875 457.928710938 -16.109375 c 0
 453.849609375 -10.109375 450.922851562 -1.7763671875 449.151367188 8.890625 c 0
 433.42578125 99.5576171875 408.256835938 215.224609375 373.64453125 355.891601562 c 0
 373.623046875 368.55859375 372.209960938 374.55859375 369.403320312 373.891601562 c 0
 332.092773438 316.55859375 304.58203125 274.225585938 286.872070312 246.892578125 c 0
 269.162109375 219.559570312 246.834960938 182.892578125 219.891601562 136.892578125 c 0
 192.420898438 91.5595703125 169.258789062 50.892578125 150.404296875 14.892578125 c 0
 144.564453125 2.892578125 138.31640625 -6.2744140625 131.66015625 -12.607421875 c 0
 125.004882812 -18.9404296875 118.80078125 -23.107421875 113.049804688 -25.107421875 c 0
 107.299804688 -27.107421875 101.7578125 -28.107421875 96.4248046875 -28.107421875 c 0
EndSplineSet
Validated: 524289
EndChar

StartChar: endash
Encoding: 8211 8211 114
Width: 600
GlyphClass: 2
Flags: HMW
HStem: 261 63<147.5 193.5>
LayerCount: 2
Fore
SplineSet
132 276 m 0
 132 280 133 285 134 290 c 0
 136 301 139 309 144 314 c 0
 150 321 159 324 170 324 c 0
 217 324 272 323 337 322 c 0
 402 321 440 320 450 320 c 0
 460 320 465 318 466 316 c 0
 468 312 468 306 467 298 c 0
 465 287 460 278 455 273 c 0
 449 267 441 264 430 264 c 0
 263 262 170 261 151 261 c 0
 144 261 140 262 137 264 c 0
 134 266 132 270 132 276 c 0
EndSplineSet
Validated: 1
EndChar

StartChar: emdash
Encoding: 8212 8212 115
Width: 600
GlyphClass: 2
Flags: HMW
HStem: 261 61<93.5 115>
LayerCount: 2
Fore
SplineSet
77 276 m 0
 77 280 78 284 79 289 c 0
 81 300 84 308 89 313 c 0
 94 319 102 322 113 322 c 2
 115 322 l 2
 172 322 219 321 258 321 c 0
 297 321 348 322 412 322 c 0
 462 322 493 323 503 323 c 0
 513 323 519 321 521 318 c 0
 523 313 523 307 522 298 c 0
 520 287 515 278 510 273 c 0
 504 267 495 264 484 264 c 0
 253 262 124 261 97 261 c 0
 90 261 85 262 82 264 c 0
 79 266 77 270 77 276 c 0
EndSplineSet
Validated: 1
EndChar

StartChar: quoteleft
Encoding: 8216 8216 116
Width: 600
GlyphClass: 2
Flags: HMW
HStem: 495 235<296 298 293 299.5>
VStem: 245 69<684.5 718.5> 245 111
LayerCount: 2
Fore
SplineSet
277 512 m 0xc0
 271 533 265 560 259 594 c 0
 253 628 248 657 246 680 c 0
 246 682 245 684 245 685 c 0
 245 693 248 700 253 707 c 0
 259 716 265 722 274 725 c 0
 283 728 290 730 296 730 c 0
 300 730 305 729 308 727 c 0
 311 725 314 721 314 716 c 0
 318 681 332 624 355 547 c 0
 355 545 356 541 356 539 c 0xa0
 356 526 343 514 317 501 c 0
 309 497 302 495 297 495 c 0
 295 495 294 496 292 496 c 0
 290 496 287 498 284 500 c 0
 281 502 278 507 277 512 c 0xc0
EndSplineSet
Validated: 1
EndChar

StartChar: quoteright
Encoding: 8217 8217 117
Width: 600
GlyphClass: 2
Flags: HMW
HStem: 467 252<231.5 366.5>
VStem: 208 184
LayerCount: 2
Fore
SplineSet
208 502 m 0
 208 510 211 518 217 526 c 0
 232 546 252 574 277 611 c 0
 302 648 320 679 333 701 c 0
 338 708 343 713 348 715 c 0
 353 717 359 719 364 719 c 0
 369 719 375 717 381 714 c 0
 386 712 390 707 392 700 c 2
 392 694 l 2
 392 690 390 683 386 674 c 0
 337 588 301 530 278 499 c 0
 268 485 257 476 246 471 c 0
 241 469 236 467 233 467 c 0
 230 467 227 468 225 469 c 0
 218 473 212 481 209 493 c 0
 209 496 208 500 208 502 c 0
EndSplineSet
Validated: 1
EndChar

StartChar: quotesinglbase
Encoding: 8218 8218 118
Width: 600
GlyphClass: 2
Flags: HMW
VStem: 258 83 274 68<502 528.001 523.001 528.001 523.001 528.5>
LayerCount: 2
Fore
SplineSet
274 512 m 2x40
 274 545 269 601.001953125 258 683.001953125 c 0x80
 258 686.001953125 257 689.001953125 257 689.001953125 c 2
 257 691.001953125 258 693.001953125 259 696.001953125 c 0
 260 699.001953125 263 703.001953125 265 706.001953125 c 0
 267 709.001953125 271 712.001953125 275 714.001953125 c 0
 279 716.001953125 284 720.001953125 288 721.001953125 c 0
 292 722.001953125 295 724.001953125 300 724.001953125 c 0
 308 726.001953125 315 728.001953125 320 728.001953125 c 0
 322 728.001953125 326 727.001953125 329 724.001953125 c 0
 332 721.001953125 335 715.001953125 336 708.001953125 c 0
 338 684.001953125 340 654.001953125 341 618.001953125 c 0
 341.70703125 592.545898438 342.4140625 569.58984375 342.4140625 550.194335938 c 0
 342.4140625 542.16015625 342.29296875 534.737304688 342 528.000976562 c 0
 342 518.000976562 339 509.000976562 332 502.000976562 c 0
 325 495.000976562 317 490.000976562 309 488.000976562 c 0
 302.452148438 486.69140625 296.666992188 485.953125 291.810546875 485.953125 c 0
 285.540039062 485.953125 280.817382812 487.182617188 278 490 c 0
 276 492 274 497 274 502 c 2
 274 512 l 2x40
EndSplineSet
Validated: 524289
EndChar

StartChar: quotedblleft
Encoding: 8220 8220 119
Width: 600
GlyphClass: 2
Flags: HMW
VStem: 168 69<673.5 707.5> 168 112 320 69<723 761.5 728 761.5>
LayerCount: 2
Fore
SplineSet
353 554 m 0x20
 347 575 341 603 334 637 c 0
 327 671 322 700 320 723 c 2
 320 728 l 2
 320 736 323 743 328 750 c 0
 334 759 342 765 350 768 c 0
 358 771 365 773 371 773 c 0
 375 773 378 772 382 770 c 0
 386 768 389 764 389 759 c 0
 393 724 407 667 430 590 c 0
 431 588 432 584 432 582 c 0
 432 569 418 557 392 544 c 0
 385 540 378 538 372 538 c 0
 370 538 368 539 366 539 c 0
 364 539 361 540 359 542 c 0
 357 544 355 549 353 554 c 0x20
201 501 m 0
 195 522 189 549 183 583 c 0
 177 617 171 647 169 670 c 0
 169 671 168 673 168 674 c 0xa0
 168 682 171 689 176 696 c 0
 182 705 189 711 198 714 c 0
 207 717 214 719 220 719 c 0
 224 719 228 718 231 716 c 0
 234 714 237 710 237 705 c 0
 242 670 256 613 279 536 c 0
 279 534 280 530 280 528 c 0x60
 280 515 267 503 241 490 c 0
 233 487 226 485 221 485 c 2
 215 485 l 2
 213 485 211 487 208 489 c 0
 205 491 202 496 201 501 c 0
EndSplineSet
Validated: 1
EndChar

StartChar: quotedblright
Encoding: 8221 8221 120
Width: 600
GlyphClass: 2
Flags: HMW
HStem: 467 306<297.5 306.5> 699 20G<427.5 432.5>
VStem: 142 316<548 695>
LayerCount: 2
Fore
SplineSet
332 748 m 0xa0
 332 742 330 735 325 728 c 0
 276 642 240 583 218 552 c 0
 211 543 204 537 196 532 c 0
 188 527 181 524 176 524 c 0
 171 524 166 525 162 527 c 0
 149 536 142 544 142 552 c 0
 142 557 145 563 150 570 c 0
 165 589 186 618 213 660 c 0
 240 700 259 732 272 755 c 0
 276 762 281 767 287 769 c 0
 293 771 299 773 304 773 c 0
 309 773 315 771 321 768 c 0
 326 766 329 761 331 754 c 0
 331 752 332 750 332 748 c 0xa0
414 715 m 0
 420 717 425 719 430 719 c 0x60
 435 719 441 717 447 714 c 0
 452 712 456 707 458 700 c 2
 458 695 l 2
 458 691 456 684 452 674 c 0
 403 588 367 529 345 498 c 0
 334 485 323 476 312 471 c 0
 307 469 302 467 299 467 c 0
 296 467 293 468 291 469 c 0
 284 473 278 481 275 493 c 0
 275 496 274 500 274 502 c 0
 274 507 278 515 283 526 c 0
 299 546 319 574 343 611 c 0
 367 648 386 679 399 701 c 0
 403 708 408 713 414 715 c 0
EndSplineSet
Validated: 1
EndChar

StartChar: bullet
Encoding: 8226 8226 121
Width: 600
GlyphClass: 2
Flags: HMW
HStem: 348 159<261 327 270 327>
VStem: 218 164<397 460.5>
LayerCount: 2
Fore
SplineSet
218 404 m 0
 218 435 232 460 260 481 c 0
 281 497 303 506 324 507 c 2
 327 507 l 2
 347 507 362 500 371 487 c 0
 378 478 382 467 382 454 c 0
 382 447 381 440 379 433 c 0
 374 411 362 391 344 375 c 0
 326 359 304 350 279 348 c 2
 270 348 l 2
 252 348 239 354 230 367 c 0
 222 378 218 390 218 404 c 0
EndSplineSet
Validated: 1
EndChar
